{"glyphs":{"0":{"ha":1037,"x_min":95,"x_max":942,"o":"m 95 533 q 124 731 95 631 q 209 903 153 831 q 526 1059 327 1059 q 835 904 720 1059 q 942 555 942 760 q 819 127 942 281 q 529 -14 707 -14 q 225 133 353 -14 q 95 533 95 283 m 351 214 q 373 177 351 214 q 453 102 395 140 q 561 63 510 63 q 649 84 612 63 q 715 152 686 105 q 780 452 780 254 q 696 837 780 689 q 483 985 613 985 q 319 892 381 985 q 254 647 254 797 q 281 392 254 497 q 351 214 307 287 z "},"1":{"ha":631,"x_min":88,"x_max":561,"o":"m 538 50 q 561 31 561 50 q 548 10 561 20 q 509 0 536 0 q 444 3 469 0 q 408 7 418 6 q 385 9 397 8 q 341 10 361 10 q 269 7 288 10 q 239 3 250 4 q 216 1 228 2 q 119 9 138 -3 q 101 30 101 20 q 123 52 101 52 l 187 45 q 240 69 226 45 q 263 148 261 106 q 266 218 266 189 l 266 718 q 252 844 266 804 q 200 884 237 884 l 107 874 q 88 891 88 874 q 108 913 88 903 q 152 931 128 922 q 205 951 176 939 q 264 977 235 963 q 356 1027 328 1006 q 413 1059 400 1059 q 425 1040 425 1059 q 423 1005 425 1021 q 420 965 421 988 q 416 840 416 907 l 416 218 q 426 107 416 134 q 442 69 435 81 q 495 45 456 45 l 538 50 z "},"2":{"ha":936,"x_min":109,"x_max":841,"o":"m 841 251 q 841 243 841 251 q 826 203 841 236 q 802 150 811 171 q 786 107 793 129 q 757 0 774 71 l 136 0 q 117 7 125 0 q 109 39 109 14 q 121 106 109 64 q 169 199 134 148 q 423 465 238 303 q 593 645 547 574 q 642 811 642 721 q 589 939 642 891 q 448 986 536 986 q 285 924 357 986 q 189 765 213 863 q 178 740 186 753 q 161 728 170 728 q 138 757 138 728 l 138 944 q 273 1025 213 1005 q 463 1059 370 1059 q 619 1042 556 1059 q 726 993 682 1025 q 818 811 818 927 q 752 633 818 720 q 519 419 684 543 q 227 127 281 239 l 489 127 q 796 243 689 127 q 829 265 817 265 q 841 251 841 265 z "},"3":{"ha":919,"x_min":129,"x_max":824,"o":"m 446 -16 q 129 75 260 -16 l 129 276 q 144 305 129 305 q 171 260 161 305 q 210 175 182 215 q 277 109 239 136 q 450 57 352 57 q 608 114 541 57 q 680 270 680 175 q 594 457 680 377 q 412 535 513 535 q 376 531 388 535 q 338 522 351 522 q 314 541 314 522 q 397 593 314 568 q 567 680 513 627 q 621 812 621 733 q 566 940 621 890 q 424 990 511 990 q 220 883 288 990 q 189 811 197 847 q 174 768 180 775 q 161 761 169 761 q 146 790 146 761 l 146 968 q 452 1059 281 1059 q 686 1000 600 1059 q 772 833 772 939 q 715 701 772 767 q 570 599 658 635 q 749 510 679 582 q 824 321 824 434 q 765 144 824 225 q 622 26 713 71 q 446 -16 536 -16 z "},"4":{"ha":980,"x_min":54,"x_max":946,"o":"m 377 52 l 441 45 q 494 69 479 45 q 517 148 515 106 q 519 218 519 189 l 519 313 l 113 313 q 54 338 54 313 q 89 399 54 357 l 600 1022 q 650 1065 636 1065 q 670 1023 670 1065 l 670 401 l 766 401 q 881 423 838 401 q 906 438 895 431 q 932 450 925 450 q 946 436 946 450 q 932 406 946 429 q 886 291 899 356 q 870 264 880 264 q 856 273 863 264 q 836 289 848 282 q 803 301 823 296 q 677 313 756 313 l 670 313 l 670 218 q 680 107 670 134 q 696 69 689 81 q 749 45 710 45 l 792 50 q 814 31 814 50 q 802 10 814 20 q 762 0 789 0 q 697 3 723 0 q 661 7 672 6 q 639 9 650 8 q 595 10 614 10 q 523 7 542 10 q 492 3 503 4 q 469 1 481 2 q 373 9 391 -3 q 355 30 355 20 q 377 52 355 52 m 224 401 l 519 401 l 519 820 l 214 445 q 194 411 194 422 q 224 401 194 401 z "},"5":{"ha":925,"x_min":109,"x_max":830,"o":"m 229 656 q 427 701 316 701 q 610 672 538 701 q 730 595 681 644 q 830 342 830 496 q 696 74 830 174 q 418 -16 576 -16 q 182 34 299 -16 q 109 75 142 51 l 109 276 q 124 305 109 305 q 153 263 136 305 q 199 182 170 221 q 267 116 228 144 q 454 57 349 57 q 658 183 600 57 q 680 301 680 231 q 657 431 680 372 q 596 534 635 490 q 393 630 512 630 q 219 566 289 630 q 185 543 195 543 q 166 570 166 543 l 166 1002 q 194 1026 170 1026 l 404 1026 q 580 1035 536 1026 q 688 1082 652 1049 q 720 1105 713 1105 q 733 1090 733 1105 q 718 1038 733 1078 q 679 899 686 957 l 229 899 l 229 656 z "},"6":{"ha":989,"x_min":109,"x_max":895,"o":"m 811 955 q 818 945 811 955 q 830 916 824 935 q 836 875 836 896 q 817 854 836 854 q 785 882 800 854 q 576 994 728 994 q 359 870 444 994 q 265 517 271 741 q 461 679 323 638 q 571 692 508 692 q 694 669 633 692 q 800 605 755 646 q 895 380 895 517 q 770 83 895 193 q 521 -16 660 -16 q 221 125 332 -16 q 109 523 109 269 q 241 901 109 743 q 445 1039 327 1001 q 562 1059 504 1059 q 660 1050 620 1059 q 729 1026 699 1041 q 779 993 758 1012 q 811 955 799 975 m 277 355 q 385 137 305 217 q 562 61 461 61 q 694 126 643 61 q 745 279 745 190 q 724 429 745 368 q 669 533 703 491 q 512 618 600 618 q 359 548 422 618 q 277 355 298 478 z "},"7":{"ha":797,"x_min":47,"x_max":777,"o":"m 342 5 l 269 0 q 249 7 256 0 q 246 30 242 14 q 268 92 250 46 q 313 201 286 138 l 377 342 l 457 510 l 549 698 l 652 899 l 260 899 q 83 802 161 899 q 59 787 71 787 q 47 802 47 787 q 54 839 47 817 q 70 891 60 861 q 102 1012 94 968 q 116 1062 110 1056 q 127 1069 121 1069 q 151 1054 139 1069 q 168 1035 163 1038 q 180 1030 172 1032 q 235 1026 197 1026 l 737 1026 q 768 1024 759 1026 q 777 1015 777 1023 q 771 995 777 1006 l 758 966 q 568 498 625 667 q 441 23 474 218 q 417 0 438 0 l 342 5 z "},"8":{"ha":996,"x_min":88,"x_max":907,"o":"m 683 565 q 907 292 907 453 q 798 77 907 166 q 502 -16 682 -16 q 182 79 293 -16 q 88 281 88 159 q 156 454 88 376 q 318 557 222 529 q 148 806 148 660 q 239 978 148 905 q 500 1059 340 1059 q 758 985 659 1059 q 851 817 851 916 q 750 609 851 696 q 683 565 719 583 m 610 597 q 712 742 691 644 q 718 804 718 770 q 700 875 718 838 q 650 939 682 912 q 472 997 583 997 q 308 910 343 997 q 298 859 298 884 q 309 804 298 833 q 350 743 320 775 q 573 611 422 665 l 610 597 m 241 374 q 228 291 228 338 q 251 198 228 243 q 315 119 274 153 q 538 45 406 45 q 694 95 633 45 q 755 229 755 146 q 556 445 755 349 q 465 486 500 471 q 417 506 430 500 l 393 517 q 241 374 279 484 z "},"9":{"ha":980,"x_min":95,"x_max":871,"o":"m 141 163 q 160 189 141 189 q 191 162 179 189 q 224 114 202 135 q 275 79 245 94 q 406 49 336 49 q 528 76 475 49 q 620 159 581 103 q 711 500 706 280 q 517 364 640 396 q 418 353 475 353 q 301 379 361 353 q 194 450 240 404 q 95 702 95 551 q 205 964 95 863 q 458 1059 308 1059 q 761 922 649 1059 q 871 559 871 786 q 750 148 871 307 q 418 -16 625 -16 q 207 49 287 -16 q 141 163 141 102 m 333 529 q 351 508 333 529 q 411 464 369 487 q 495 441 454 441 q 570 452 536 441 q 629 485 604 463 q 708 617 677 526 q 614 895 691 791 q 441 994 541 994 q 262 863 303 994 q 250 756 250 821 q 273 632 250 692 q 333 529 297 572 z "},"\u0001":{"ha":0,"x_min":0,"x_max":0,"o":""},"\u0002":{"ha":0,"x_min":0,"x_max":0,"o":""},"\u0003":{"ha":0,"x_min":0,"x_max":0,"o":""},"\u0004":{"ha":0,"x_min":0,"x_max":0,"o":""},"\u0005":{"ha":0,"x_min":0,"x_max":0,"o":""},"\u0006":{"ha":0,"x_min":0,"x_max":0,"o":""},"\u0007":{"ha":0,"x_min":0,"x_max":0,"o":""},"\b":{"ha":0,"x_min":0,"x_max":0,"o":""},"\t":{"ha":0,"x_min":0,"x_max":0,"o":""},"\u0010":{"ha":0,"x_min":0,"x_max":0,"o":""},"\u0011":{"ha":0,"x_min":0,"x_max":0,"o":""},"\u0012":{"ha":0,"x_min":0,"x_max":0,"o":""},"\u0013":{"ha":0,"x_min":0,"x_max":0,"o":""},"\u0014":{"ha":0,"x_min":0,"x_max":0,"o":""},"\u0015":{"ha":0,"x_min":0,"x_max":0,"o":""},"\u0016":{"ha":0,"x_min":0,"x_max":0,"o":""},"\u0017":{"ha":0,"x_min":0,"x_max":0,"o":""},"\u0018":{"ha":0,"x_min":0,"x_max":0,"o":""},"\u0019":{"ha":0,"x_min":0,"x_max":0,"o":""}," ":{"ha":373,"x_min":0,"x_max":0,"o":""},"!":{"ha":454,"x_min":115,"x_max":339,"o":"m 315 1059 q 339 1036 339 1059 q 333 988 339 1020 q 321 920 327 956 q 298 741 305 804 q 263 445 271 529 q 249 339 255 361 q 227 317 243 317 q 205 339 212 317 q 195 406 199 361 q 184 504 191 450 q 159 720 166 663 l 146 825 q 126 960 133 926 q 115 1036 115 1018 q 140 1059 115 1059 l 228 1053 l 315 1059 m 155 15 q 149 21 155 15 q 138 44 143 28 q 132 77 132 60 q 139 112 132 94 q 159 142 146 129 q 221 172 188 172 q 271 163 254 172 q 300 140 289 154 q 323 82 323 111 q 316 37 323 54 q 294 8 308 20 q 235 -16 267 -16 q 185 -7 203 -16 q 155 15 167 1 z "},"\"":{"ha":581,"x_min":62,"x_max":516,"o":"m 121 629 q 109 707 115 668 q 85 830 92 795 q 73 891 78 866 q 62 973 62 952 q 68 1009 62 994 q 87 1036 75 1025 q 148 1059 112 1059 q 208 1036 184 1059 q 232 983 232 1014 q 224 903 232 937 q 181 713 191 756 l 163 629 l 121 629 m 406 629 q 393 707 399 668 q 369 830 376 795 q 357 891 362 866 q 346 973 346 952 q 353 1009 346 994 q 372 1036 359 1025 q 432 1059 396 1059 q 492 1036 469 1059 q 516 983 516 1014 q 508 903 516 937 q 465 713 475 756 l 448 629 l 406 629 z "},"#":{"ha":1035,"x_min":68,"x_max":967,"o":"m 245 -16 q 234 -16 245 -16 q 213 -2 224 -16 q 201 22 201 12 q 202 36 201 32 q 203 49 202 41 q 216 108 206 65 l 271 341 l 123 341 q 84 354 101 341 q 68 389 68 366 q 85 422 68 411 q 124 434 102 434 l 292 434 l 337 625 l 184 625 q 145 637 162 625 q 129 672 129 650 q 146 706 129 694 q 185 718 163 718 l 359 718 l 418 966 q 463 1055 436 1044 q 484 1059 471 1059 q 510 1048 497 1059 q 523 1026 523 1037 q 522 1009 523 1015 q 521 994 522 1002 q 515 961 518 974 l 458 718 l 691 718 l 750 966 q 795 1055 768 1044 q 817 1059 804 1059 q 842 1048 829 1059 q 855 1026 855 1037 q 854 1009 855 1015 q 853 994 854 1002 q 847 961 850 974 l 791 718 l 911 718 q 950 706 932 718 q 967 672 967 694 q 950 637 967 650 q 912 625 934 625 l 769 625 l 724 434 l 843 434 q 882 422 865 434 q 899 389 899 411 q 883 354 899 366 q 844 341 866 341 l 703 341 l 631 30 q 613 -2 627 12 q 577 -16 599 -16 q 545 -2 556 -16 q 534 22 534 12 q 534 36 534 32 q 536 49 534 41 q 549 108 538 65 l 603 341 l 370 341 l 298 30 q 280 -2 294 12 q 245 -16 267 -16 m 625 434 l 669 625 l 437 625 l 392 434 l 625 434 z "},"$":{"ha":981,"x_min":138,"x_max":888,"o":"m 459 -14 q 143 85 313 -5 l 143 319 q 168 397 143 397 q 189 359 183 397 q 349 85 211 159 q 459 53 397 60 l 459 459 q 210 588 292 500 q 138 772 138 665 q 216 958 138 880 q 459 1057 304 1045 l 459 1185 q 490 1236 459 1236 q 525 1186 525 1236 l 525 1058 q 675 1034 609 1056 l 694 1027 q 716 1022 709 1022 q 747 1042 733 1022 q 781 1074 771 1074 q 799 1049 798 1074 q 802 1006 800 1024 q 807 966 804 987 q 825 884 814 924 q 841 790 841 816 q 824 765 841 765 q 795 801 812 765 q 525 993 709 980 l 525 617 q 870 393 813 549 q 888 282 888 344 q 864 165 888 220 q 792 72 839 111 q 525 -15 694 -9 l 525 -144 q 494 -193 525 -193 q 459 -142 459 -193 l 459 -14 m 459 991 q 273 894 315 979 q 260 837 260 867 q 268 778 260 806 q 298 724 277 750 q 459 635 346 670 l 459 991 m 525 51 q 761 233 761 58 q 525 443 761 378 l 525 51 z "},"%":{"ha":1282,"x_min":88,"x_max":1194,"o":"m 253 -16 q 247 -16 253 -16 q 230 -6 240 -16 q 220 15 220 3 q 222 33 220 26 q 228 49 224 40 q 241 71 233 58 l 964 999 q 1023 1056 1000 1048 q 1043 1059 1030 1059 q 1066 1049 1055 1059 q 1078 1027 1078 1040 q 1046 961 1078 1002 l 322 30 q 279 -13 292 -9 q 253 -16 266 -16 m 334 579 q 224 601 273 579 q 145 658 175 623 q 88 819 88 724 q 162 987 88 918 q 343 1059 237 1059 q 529 991 458 1059 q 597 827 597 926 q 521 644 597 713 q 334 579 450 579 m 266 696 q 277 681 266 696 q 316 649 288 666 q 369 631 345 631 q 410 638 393 631 q 441 662 427 646 q 469 761 469 697 q 457 866 469 824 q 423 940 444 909 q 320 1005 378 1005 q 224 924 249 1005 q 216 853 216 896 q 230 768 216 810 q 266 696 243 727 m 685 227 q 705 316 685 272 q 759 392 724 359 q 940 463 833 463 q 1126 396 1055 463 q 1194 231 1194 330 q 1118 49 1194 118 q 941 -16 1046 -16 q 742 62 810 -16 q 685 227 685 128 m 821 328 q 813 257 813 300 q 827 173 813 214 q 863 101 840 132 q 971 36 909 36 q 1066 178 1066 36 q 1020 345 1066 277 q 917 410 975 410 q 821 328 846 410 z "},"&":{"ha":1223,"x_min":88,"x_max":1168,"o":"m 762 138 q 425 -13 613 -13 q 178 64 271 -13 q 88 250 88 138 q 146 418 88 350 q 345 550 206 488 q 217 761 235 670 q 212 829 212 791 q 231 911 212 868 q 288 986 250 954 q 515 1059 370 1059 q 713 1000 641 1059 q 779 855 779 944 q 532 566 779 671 q 653 446 584 511 l 810 298 q 921 556 921 456 q 873 593 921 593 q 848 590 854 593 q 828 587 837 587 q 806 606 806 587 q 821 626 806 617 q 872 635 836 635 l 1003 626 q 1046 629 1026 626 q 1103 635 1082 635 q 1138 626 1124 635 q 1152 605 1152 617 q 1130 586 1152 586 l 1097 591 q 1001 509 1040 591 q 857 254 926 353 l 1048 67 q 1112 45 1071 45 l 1146 50 q 1168 33 1168 50 q 1099 -2 1168 -2 l 1003 3 q 985 3 995 3 q 967 1 976 2 q 920 2 930 -1 q 898 13 909 5 q 832 69 874 28 l 762 138 m 491 612 q 603 719 566 653 q 631 816 631 768 q 617 900 631 863 q 583 962 604 937 q 488 1008 543 1008 q 391 971 428 1008 q 354 877 354 936 q 374 777 354 817 q 491 612 408 709 m 463 55 q 715 184 583 55 l 387 506 q 281 393 317 464 q 252 278 252 336 q 308 113 252 172 q 463 55 364 55 z "},"'":{"ha":347,"x_min":88,"x_max":258,"o":"m 148 629 q 135 707 142 668 q 112 830 119 795 q 100 891 104 866 q 88 973 88 952 q 95 1009 88 994 q 114 1036 102 1025 q 175 1059 138 1059 q 235 1036 211 1059 q 258 983 258 1014 q 250 903 258 937 q 208 713 217 756 l 190 629 l 148 629 z "},"(":{"ha":567,"x_min":95,"x_max":567,"o":"m 507 -151 l 548 -148 q 567 -164 567 -148 q 548 -184 567 -176 q 495 -193 530 -193 q 343 -151 416 -193 q 216 -23 271 -108 q 95 485 95 163 q 216 993 95 807 q 343 1120 271 1078 q 495 1163 416 1163 q 548 1154 530 1163 q 567 1134 567 1145 q 548 1118 567 1118 l 507 1121 q 332 974 399 1121 q 258 485 258 807 q 332 -4 258 163 q 507 -151 399 -151 z "},")":{"ha":567,"x_min":0,"x_max":472,"o":"m 60 -151 l 19 -148 q 0 -164 0 -148 q 19 -184 0 -176 q 72 -193 37 -193 q 223 -151 151 -193 q 351 -23 296 -108 q 472 485 472 163 q 351 993 472 807 q 223 1120 296 1078 q 72 1163 151 1163 q 19 1154 37 1163 q 0 1134 0 1145 q 19 1118 0 1118 l 60 1121 q 235 974 168 1121 q 309 485 309 807 q 235 -4 309 163 q 60 -151 168 -151 z "},"*":{"ha":709,"x_min":88,"x_max":621,"o":"m 545 762 l 475 764 q 390 758 429 764 q 455 698 426 718 q 530 637 511 661 q 543 601 543 618 q 535 569 543 583 q 517 547 528 556 q 474 528 495 528 q 443 533 454 528 q 422 550 431 538 q 396 607 404 573 q 384 653 388 640 q 374 680 379 666 q 362 707 368 694 l 351 731 q 315 647 327 688 q 294 587 302 607 q 275 555 285 566 q 237 534 259 534 q 201 539 215 534 q 178 553 188 545 q 155 597 155 574 q 163 635 155 621 q 185 660 172 649 q 214 681 199 671 l 241 698 q 314 760 273 720 q 232 769 267 770 q 175 769 197 768 q 133 775 153 769 q 88 833 88 789 q 127 905 88 884 q 153 910 139 910 q 180 905 167 910 q 205 891 193 899 q 229 873 218 882 l 250 855 q 330 805 286 828 q 313 897 326 858 q 287 998 287 970 q 307 1042 287 1025 q 356 1059 328 1059 q 405 1043 385 1059 q 425 1000 425 1027 q 417 951 425 972 l 400 907 q 375 802 382 863 q 452 845 426 825 q 490 875 477 866 q 514 890 503 884 q 552 902 534 902 q 581 896 569 902 q 602 879 593 889 q 621 826 621 855 q 600 779 621 796 q 545 762 579 762 z "},"+":{"ha":871,"x_min":102,"x_max":770,"o":"m 388 390 l 102 390 l 102 483 l 388 483 l 388 777 l 484 777 l 484 483 l 770 483 l 770 390 l 484 390 l 484 96 l 388 96 l 388 390 z "},",":{"ha":347,"x_min":61,"x_max":286,"o":"m 91 -266 q 64 -239 64 -266 q 92 -207 64 -220 q 138 -180 119 -195 q 168 -151 156 -166 q 191 -99 192 -121 q 180 -65 189 -76 q 136 -45 170 -55 q 61 47 61 -22 q 119 137 61 113 q 162 145 138 145 q 253 105 220 145 q 286 -14 286 64 q 222 -183 286 -100 q 91 -266 159 -266 z "},"-":{"ha":593,"x_min":95,"x_max":498,"o":"m 449 468 q 498 422 498 468 q 485 388 498 400 q 450 375 472 375 l 143 375 q 108 388 121 375 q 95 422 95 400 q 144 468 95 468 l 449 468 z "},".":{"ha":347,"x_min":62,"x_max":284,"o":"m 89 20 q 82 27 89 20 q 69 54 75 35 q 62 92 62 73 q 71 132 62 112 q 94 168 79 153 q 176 202 126 202 q 258 164 227 202 q 284 87 284 131 q 254 18 284 50 q 182 -16 220 -16 q 123 -6 144 -16 q 89 20 102 4 z "},"/":{"ha":684,"x_min":68,"x_max":616,"o":"m 504 1063 q 560 1152 534 1140 q 583 1155 570 1155 q 606 1144 597 1155 q 616 1122 616 1134 q 601 1057 616 1095 l 163 -147 q 117 -193 145 -193 q 78 -179 88 -193 q 68 -155 68 -165 q 68 -140 68 -145 q 72 -127 69 -136 l 79 -104 q 92 -69 83 -91 l 504 1063 z "},":":{"ha":347,"x_min":62,"x_max":284,"o":"m 89 20 q 82 27 89 20 q 69 54 75 35 q 62 92 62 73 q 71 132 62 112 q 94 168 79 153 q 176 202 126 202 q 258 164 227 202 q 284 87 284 131 q 254 18 284 50 q 182 -16 220 -16 q 123 -6 144 -16 q 89 20 102 4 m 89 474 q 82 482 89 474 q 69 508 75 490 q 62 547 62 527 q 71 587 62 566 q 94 623 79 607 q 176 656 126 656 q 258 618 227 656 q 284 542 284 585 q 254 473 284 504 q 182 438 220 438 q 123 448 144 438 q 89 474 102 458 z "},";":{"ha":347,"x_min":62,"x_max":286,"o":"m 88 359 q 81 367 88 359 q 68 393 75 374 q 62 431 62 412 q 70 471 62 451 q 93 507 78 492 q 175 541 125 541 q 257 503 227 541 q 283 427 283 470 q 253 357 283 389 q 181 323 220 323 q 122 333 143 323 q 88 359 102 343 m 92 -266 q 64 -239 64 -266 q 92 -207 64 -220 q 138 -180 120 -195 q 169 -151 157 -166 q 191 -99 193 -121 q 180 -65 190 -76 q 136 -45 171 -55 q 62 47 62 -22 q 120 137 62 113 q 163 145 139 145 q 253 105 220 145 q 286 -14 286 64 q 223 -183 286 -100 q 92 -266 159 -266 z "},"<":{"ha":637,"x_min":68,"x_max":535,"o":"m 68 389 l 535 673 l 535 562 l 220 371 l 535 176 l 535 62 l 68 349 l 68 389 z "},"=":{"ha":871,"x_min":102,"x_max":770,"o":"m 102 579 l 770 579 l 770 486 l 102 486 l 102 579 m 102 355 l 770 355 l 770 262 l 102 262 l 102 355 z "},">":{"ha":637,"x_min":102,"x_max":569,"o":"m 569 389 l 102 673 l 102 562 l 416 371 l 102 176 l 102 62 l 569 349 l 569 389 z "},"?":{"ha":701,"x_min":88,"x_max":633,"o":"m 386 332 q 342 300 386 300 q 290 319 309 300 q 254 401 254 354 q 380 646 254 499 q 475 854 475 758 q 328 985 475 985 q 212 942 262 985 q 139 812 161 899 q 128 787 136 800 q 111 774 120 774 q 88 804 88 774 l 88 991 q 345 1059 210 1059 q 565 1001 488 1059 q 633 861 633 949 q 525 642 633 748 q 433 561 487 606 q 313 399 313 463 q 325 376 313 385 q 351 363 336 366 q 376 355 366 361 q 386 332 386 349 m 259 15 q 253 21 259 15 q 241 44 247 28 q 236 77 236 60 q 243 112 236 94 q 263 142 250 129 q 325 172 292 172 q 375 163 357 172 q 404 140 393 154 q 427 82 427 111 q 419 37 427 54 q 399 8 412 20 q 339 -16 371 -16 q 289 -7 307 -16 q 259 15 271 1 z "},"@":{"ha":1577,"x_min":90,"x_max":1502,"o":"m 911 -162 l 902 -129 q 911 -104 902 -115 q 939 -94 920 -94 q 972 -106 958 -94 q 985 -153 985 -119 q 957 -225 985 -186 q 878 -295 928 -265 q 609 -359 768 -359 q 250 -256 393 -359 q 90 81 90 -140 q 210 487 90 294 q 540 796 331 680 q 1027 920 760 920 q 1370 823 1243 920 q 1502 538 1502 721 q 1432 292 1502 413 q 1264 107 1367 181 q 1071 35 1164 35 q 1057 30 1064 35 l 1040 18 q 1007 1 1017 1 q 951 4 971 5 l 924 2 q 884 0 905 0 q 848 79 835 0 q 644 -16 750 -16 q 483 47 530 -16 q 449 155 449 92 q 463 269 449 218 q 504 365 477 319 q 569 450 530 411 q 655 519 607 490 q 888 581 759 581 q 1109 503 1038 581 l 1013 78 q 1013 66 1010 68 q 1021 68 1015 65 l 1038 73 q 1068 77 1048 77 q 1122 91 1088 77 q 1189 129 1155 104 q 1254 191 1223 154 q 1310 275 1285 228 q 1363 502 1363 378 q 1260 758 1363 667 q 979 849 1158 849 q 589 735 764 849 q 336 460 430 632 q 247 123 247 294 q 460 -253 247 -169 q 646 -283 536 -283 q 830 -241 744 -283 q 911 -162 911 -201 m 941 477 q 858 517 909 517 q 704 416 781 517 q 623 178 623 311 q 636 97 623 119 q 703 58 659 58 q 832 129 763 58 q 870 173 852 149 l 941 477 z "},"A":{"ha":1158,"x_min":-18,"x_max":1177,"o":"m 129 10 l 34 0 q -6 9 7 0 q -18 31 -18 18 q 4 50 -18 50 l 37 45 q 88 71 68 45 q 181 241 125 118 q 539 1015 528 992 q 557 1048 550 1037 q 581 1065 569 1065 q 605 1048 593 1065 q 654 952 623 1021 l 1008 180 q 1096 51 1058 70 q 1121 45 1108 45 l 1154 50 q 1177 31 1177 50 q 1122 0 1177 0 l 991 10 l 825 0 q 775 10 790 0 q 761 31 761 20 q 783 50 761 50 l 831 43 q 859 48 850 43 q 868 66 868 54 q 867 87 868 79 q 863 107 865 96 q 840 163 857 127 l 788 272 q 766 300 778 294 q 712 312 747 312 l 361 312 q 295 288 311 312 q 285 268 290 279 l 252 189 q 214 79 214 100 q 267 45 214 45 l 300 50 q 321 31 321 50 q 257 0 321 0 q 196 3 219 0 q 129 10 150 10 m 342 392 q 418 371 342 371 l 651 371 q 726 382 716 371 q 729 392 729 387 q 724 410 729 397 l 574 774 q 534 839 547 839 q 506 798 523 839 l 351 422 q 342 392 342 403 z "},"B":{"ha":1040,"x_min":66,"x_max":984,"o":"m 122 991 l 89 987 q 66 1006 66 987 q 79 1026 66 1017 q 121 1036 92 1036 q 168 1035 151 1036 l 201 1032 q 286 1027 248 1027 q 403 1033 349 1027 q 571 1044 498 1044 q 706 1026 644 1044 q 810 978 768 1008 q 893 827 893 918 q 781 640 893 713 q 701 601 745 617 q 905 494 826 572 q 984 311 984 414 q 880 80 984 170 q 576 -16 768 -16 q 457 -6 519 -16 q 302 11 347 12 q 245 9 258 9 q 202 5 216 7 q 79 10 102 -9 q 66 31 66 20 q 89 50 66 50 l 132 45 q 185 69 171 45 q 209 148 206 106 q 211 218 211 189 l 211 810 q 201 920 211 894 q 184 962 192 947 q 122 991 168 991 m 360 633 q 493 620 425 620 q 600 630 560 620 q 669 663 640 641 q 731 801 731 709 q 675 931 731 881 q 530 981 620 981 q 400 963 441 981 q 360 903 360 944 l 360 633 m 731 494 q 710 511 731 494 q 627 545 688 528 q 494 562 566 562 q 360 552 421 562 l 360 157 q 568 52 360 52 q 800 191 744 52 q 819 302 819 238 q 796 413 819 366 q 731 494 773 461 z "},"C":{"ha":1158,"x_min":101,"x_max":1061,"o":"m 1056 137 q 649 -16 895 -16 q 249 133 402 -16 q 101 494 101 275 q 259 903 101 743 q 496 1040 358 1003 q 621 1059 564 1059 q 711 1054 677 1059 q 772 1041 745 1048 q 844 1017 814 1029 q 899 999 888 999 q 942 1021 920 999 l 971 1050 q 999 1069 990 1069 q 1016 1041 1016 1069 q 1017 992 1016 1013 q 1021 954 1018 972 q 1038 869 1027 909 l 1054 806 q 1061 767 1061 783 q 1044 739 1061 739 q 1023 754 1031 739 q 857 928 967 863 q 633 992 749 992 q 359 882 470 992 q 247 595 247 769 q 284 384 247 481 q 384 215 321 286 q 532 103 448 143 q 712 62 616 62 q 963 202 872 62 q 1015 329 996 254 q 1025 358 1020 347 q 1043 369 1030 369 q 1056 329 1056 369 l 1056 137 z "},"D":{"ha":1275,"x_min":68,"x_max":1197,"o":"m 123 991 l 90 987 q 68 1006 68 987 q 80 1026 68 1017 q 123 1036 93 1036 q 170 1035 153 1036 l 202 1032 q 294 1027 249 1027 q 429 1034 362 1027 q 614 1046 549 1046 q 1038 903 878 1046 q 1197 522 1197 761 q 1021 136 1197 290 q 591 -16 847 -16 q 495 -11 535 -16 l 422 -1 q 316 10 348 10 q 271 10 283 10 q 247 9 259 9 q 203 5 217 7 q 80 10 104 -9 q 68 31 68 20 q 90 50 68 50 l 134 45 q 186 69 172 45 q 210 148 208 106 q 212 218 212 189 l 212 810 q 203 920 212 894 q 186 962 193 947 q 123 991 170 991 m 366 889 l 366 162 q 410 77 366 101 q 574 52 458 52 q 772 77 690 52 q 912 156 855 102 q 1029 507 1029 269 q 905 862 1029 740 q 575 980 784 980 q 366 889 366 980 z "},"E":{"ha":927,"x_min":35,"x_max":928,"o":"m 330 160 q 396 66 330 66 l 536 66 q 806 157 701 66 q 842 191 825 174 l 876 225 q 914 250 900 250 q 928 240 928 250 q 909 189 928 222 q 878 135 890 157 q 857 93 867 114 q 840 49 848 71 l 823 0 l 267 0 q 180 -3 202 0 q 98 -10 135 -10 q 48 0 60 -10 q 35 21 35 10 q 58 39 35 39 l 101 35 q 154 58 140 35 q 180 218 180 104 l 180 810 q 170 920 180 894 q 153 962 161 947 q 91 991 137 991 l 58 987 q 35 1006 35 987 q 48 1026 35 1017 q 90 1036 60 1036 q 137 1035 120 1036 l 170 1032 q 259 1026 222 1026 l 810 1026 q 833 920 815 978 q 864 804 864 820 q 853 787 864 787 q 833 800 844 787 q 734 906 753 891 q 701 930 716 921 q 669 946 686 939 q 577 960 632 960 l 396 960 q 344 944 358 960 q 330 897 330 928 l 330 610 q 392 571 330 571 l 558 571 q 647 618 607 571 q 667 650 661 635 q 677 671 673 665 q 687 676 681 676 q 705 642 705 676 l 699 534 l 705 428 q 687 394 705 394 q 669 414 677 394 q 647 452 661 435 q 617 481 633 470 q 558 505 586 505 l 391 505 q 346 492 362 505 q 330 460 330 479 l 330 160 z "},"F":{"ha":924,"x_min":40,"x_max":876,"o":"m 414 45 l 477 52 q 494 45 488 52 q 500 30 500 39 q 484 10 500 20 q 446 0 468 0 q 411 0 423 0 q 385 1 398 1 q 352 4 366 3 q 326 7 337 6 q 304 9 315 8 q 260 10 279 10 q 184 7 207 10 q 53 10 77 -9 q 40 31 40 20 q 62 50 40 50 l 106 45 q 159 69 144 45 q 182 148 180 106 q 184 218 184 189 l 184 810 q 175 920 184 894 q 157 962 165 947 q 96 991 142 991 l 62 987 q 40 1006 40 987 q 53 1026 40 1017 q 95 1036 65 1036 q 142 1035 125 1036 l 174 1032 q 212 1029 191 1029 l 245 1027 q 269 1026 258 1026 l 821 1026 q 845 916 828 972 q 876 804 876 821 q 865 787 876 787 q 844 800 854 787 q 822 826 835 812 q 745 907 762 893 q 713 930 728 921 q 680 946 698 939 q 588 960 643 960 l 401 960 q 352 940 370 960 q 335 884 335 920 l 335 607 q 397 568 335 568 l 595 568 q 682 616 643 568 q 703 647 696 632 q 713 668 709 663 q 724 673 717 673 q 741 639 741 673 l 735 530 l 741 425 q 724 391 741 391 q 705 412 714 391 q 682 449 696 432 q 654 478 669 467 q 595 502 622 502 l 396 502 q 351 489 367 502 q 335 457 335 476 l 335 218 q 345 107 335 134 q 361 69 354 81 q 414 45 375 45 z "},"G":{"ha":1158,"x_min":80,"x_max":1148,"o":"m 1126 507 l 1078 512 q 1039 393 1040 512 q 1039 339 1039 363 l 1039 135 l 982 104 q 931 73 955 90 q 873 39 908 56 q 796 9 838 21 q 595 -16 712 -16 q 384 25 479 -16 q 221 134 288 65 q 80 494 80 279 q 231 898 80 738 q 472 1039 328 1000 q 613 1059 544 1059 q 825 1021 732 1059 q 864 1010 853 1010 q 878 1010 874 1010 q 887 1015 882 1011 q 914 1038 895 1019 l 934 1059 q 962 1076 951 1076 q 979 1051 979 1076 q 981 1004 979 1025 q 989 960 984 982 q 1007 880 998 910 q 1023 801 1023 829 q 1008 773 1023 773 q 986 788 995 773 q 836 932 938 878 q 632 984 736 984 q 456 956 528 984 q 332 878 383 928 q 225 603 225 772 q 378 205 225 360 q 591 79 469 113 q 700 62 651 62 q 782 71 749 62 q 840 96 815 79 q 892 199 892 134 l 892 339 q 882 449 892 423 q 865 488 873 475 q 813 512 852 512 l 763 505 q 746 511 752 505 q 741 527 741 517 q 753 547 741 536 q 788 557 766 557 q 822 556 810 557 q 845 555 833 556 q 865 553 856 555 l 882 552 q 950 547 914 547 q 1031 552 1000 547 q 1092 557 1061 557 q 1136 547 1123 557 q 1148 526 1148 536 q 1126 507 1148 507 z "},"H":{"ha":1273,"x_min":61,"x_max":1211,"o":"m 478 50 q 500 31 500 50 q 488 10 500 20 q 448 0 475 0 q 384 3 409 0 q 347 7 358 6 q 324 9 336 8 q 281 10 301 10 q 205 7 228 10 q 73 10 98 -9 q 61 31 61 20 q 83 50 61 50 l 127 45 q 180 69 165 45 q 203 148 201 106 q 205 218 205 189 l 205 819 q 196 929 205 903 q 179 967 186 955 q 127 991 165 991 l 83 987 q 61 1005 61 987 q 74 1026 61 1016 q 113 1036 86 1036 q 178 1033 153 1036 q 214 1029 203 1030 q 237 1027 225 1028 q 281 1026 260 1026 q 356 1029 334 1026 q 438 1036 401 1036 q 488 1026 475 1036 q 500 1005 500 1016 q 478 987 500 987 l 435 991 q 382 967 396 991 q 358 888 361 930 q 356 819 356 847 l 356 682 q 368 656 356 663 q 431 644 389 644 l 842 644 q 916 682 916 644 l 916 819 q 907 929 916 903 q 890 967 897 955 q 838 991 876 991 l 794 987 q 772 1005 772 987 q 784 1026 772 1016 q 824 1036 797 1036 q 889 1033 863 1036 q 925 1029 914 1030 q 948 1027 936 1028 q 991 1026 971 1026 q 1067 1029 1044 1026 q 1149 1036 1112 1036 q 1199 1026 1186 1036 q 1211 1005 1211 1016 q 1189 987 1211 987 l 1145 991 q 1093 967 1107 991 q 1069 888 1072 930 q 1067 819 1067 847 l 1067 218 q 1076 107 1067 134 q 1093 69 1086 81 q 1145 45 1107 45 l 1189 50 q 1211 31 1211 50 q 1199 10 1211 20 q 1159 0 1186 0 q 1094 3 1120 0 q 1058 7 1069 6 q 1035 9 1047 8 q 991 10 1012 10 q 916 7 939 10 q 784 10 808 -9 q 772 31 772 20 q 794 50 772 50 l 838 45 q 890 69 876 45 q 914 148 911 106 q 916 218 916 189 l 916 530 q 898 562 916 549 q 842 576 880 576 l 431 576 q 374 562 391 576 q 356 530 356 549 l 356 218 q 366 107 356 134 q 382 69 375 81 q 435 45 396 45 l 478 50 z "},"I":{"ha":579,"x_min":70,"x_max":509,"o":"m 487 50 q 509 31 509 50 q 497 10 509 20 q 457 0 484 0 q 392 3 418 0 q 356 7 367 6 q 334 9 345 8 q 290 10 309 10 q 214 7 237 10 q 83 10 106 -9 q 70 31 70 20 q 92 50 70 50 l 136 45 q 189 69 174 45 q 212 148 210 106 q 214 218 214 189 l 214 819 q 205 929 214 903 q 189 967 195 955 q 136 991 174 991 l 92 987 q 70 1005 70 987 q 82 1026 70 1016 q 122 1036 95 1036 q 187 1033 161 1036 q 223 1029 212 1030 q 245 1027 234 1028 q 290 1026 270 1026 q 365 1029 342 1026 q 447 1036 410 1036 q 497 1026 484 1036 q 509 1005 509 1016 q 487 987 509 987 l 444 991 q 391 967 405 991 q 367 888 370 930 q 365 819 365 847 l 365 218 q 374 107 365 134 q 391 69 384 81 q 444 45 405 45 l 487 50 z "},"J":{"ha":924,"x_min":106,"x_max":923,"o":"m 901 987 l 857 991 q 804 967 819 991 q 781 888 783 930 q 779 819 779 847 l 779 323 q 654 68 779 161 q 389 -16 543 -16 q 181 30 289 -16 q 106 70 142 46 l 106 319 q 119 393 106 383 q 130 397 123 397 q 141 389 137 397 q 159 325 145 380 q 203 209 172 269 q 269 115 233 150 q 422 51 333 51 q 612 199 564 51 q 628 327 628 252 l 628 819 q 618 929 628 903 q 602 967 609 955 q 549 991 588 991 l 506 987 q 484 1005 484 987 q 496 1026 484 1016 q 536 1036 509 1036 q 601 1033 575 1036 q 637 1029 626 1030 q 659 1027 648 1028 q 703 1026 684 1026 q 779 1029 756 1026 q 861 1036 823 1036 q 910 1026 898 1036 q 923 1005 923 1016 q 901 987 923 987 z "},"K":{"ha":1044,"x_min":62,"x_max":1087,"o":"m 479 50 q 502 31 502 50 q 489 10 502 20 q 450 0 477 0 q 385 3 410 0 q 349 7 359 6 q 326 9 338 8 q 282 10 302 10 q 207 7 229 10 q 75 10 99 -9 q 62 31 62 20 q 85 50 62 50 l 128 45 q 181 69 167 45 q 204 148 202 106 q 207 218 207 189 l 207 819 q 197 929 207 903 q 180 967 188 955 q 128 991 167 991 l 85 987 q 62 1005 62 987 q 75 1026 62 1016 q 115 1036 87 1036 q 179 1033 154 1036 q 216 1029 205 1030 q 239 1027 227 1028 q 282 1026 262 1026 q 357 1029 335 1026 q 439 1036 402 1036 q 489 1026 477 1036 q 502 1005 502 1016 q 479 987 502 987 l 436 991 q 383 967 397 991 q 360 888 362 930 q 357 819 357 847 l 357 586 q 483 647 419 602 q 731 859 591 724 q 812 970 812 940 q 781 992 812 992 l 737 987 q 715 1005 715 987 q 728 1026 715 1016 q 767 1036 741 1036 q 807 1035 792 1036 l 838 1032 q 902 1027 883 1027 l 1006 1036 q 1053 1026 1041 1036 q 1065 1005 1065 1016 q 1042 987 1065 987 l 999 991 q 878 906 963 991 q 624 678 730 766 q 442 557 517 590 q 673 467 582 534 q 850 243 777 392 q 995 47 922 96 q 1027 34 1015 34 q 1049 37 1042 34 q 1081 37 1076 45 q 1087 24 1087 29 q 1019 -8 1087 -8 q 900 7 950 -8 q 806 56 849 22 q 648 279 720 123 q 439 494 562 456 q 357 509 400 506 l 357 218 q 367 107 357 134 q 384 69 376 81 q 436 45 397 45 l 479 50 z "},"L":{"ha":927,"x_min":57,"x_max":918,"o":"m 352 160 q 418 66 352 66 l 547 66 q 649 77 614 66 q 760 140 703 96 l 787 161 q 835 203 814 182 l 873 243 q 906 265 894 265 q 918 250 918 265 q 903 203 918 235 l 879 150 q 833 0 857 100 l 322 0 q 201 -3 224 0 q 119 -10 157 -10 q 70 0 82 -10 q 57 21 57 10 q 79 39 57 39 l 123 35 q 176 58 161 35 q 201 218 201 104 l 201 819 q 192 929 201 903 q 175 967 182 955 q 123 991 161 991 l 79 987 q 57 1005 57 987 q 70 1026 57 1016 q 109 1036 82 1036 q 174 1033 149 1036 q 210 1029 199 1030 q 233 1027 221 1028 q 277 1026 256 1026 q 352 1029 330 1026 q 434 1036 397 1036 q 484 1026 471 1036 q 496 1005 496 1016 q 474 987 496 987 l 431 991 q 378 967 392 991 q 354 888 357 930 q 352 819 352 847 l 352 160 z "},"M":{"ha":1389,"x_min":41,"x_max":1360,"o":"m 368 0 l 245 10 q 199 7 227 10 q 62 31 62 -12 q 85 50 62 50 l 128 45 q 181 69 167 45 q 204 148 202 106 q 207 218 207 189 l 208 775 q 161 908 208 844 q 64 996 116 974 q 45 1008 49 1003 q 41 1019 41 1013 q 77 1036 41 1036 l 287 1029 l 726 345 l 1079 1025 q 1206 1029 1171 1025 q 1299 1036 1263 1036 q 1360 1005 1360 1036 q 1337 986 1360 986 l 1294 991 q 1241 967 1255 991 q 1218 888 1221 930 q 1215 816 1215 846 l 1215 218 q 1225 107 1215 134 q 1241 69 1234 81 q 1294 45 1255 45 l 1337 50 q 1360 31 1360 50 q 1347 10 1360 20 q 1308 0 1335 0 q 1243 3 1268 0 q 1206 7 1217 6 q 1184 9 1196 8 q 1140 10 1160 10 q 1065 7 1087 10 q 933 10 957 -9 q 920 31 920 20 q 943 50 920 50 l 986 45 q 1039 69 1025 45 q 1062 148 1060 106 q 1065 218 1065 189 l 1065 842 l 717 169 q 679 133 698 133 q 661 144 669 133 q 636 182 653 155 l 283 722 l 283 218 q 292 107 283 134 q 309 69 302 81 q 361 45 323 45 l 405 50 q 427 31 427 50 q 415 10 427 20 q 368 0 402 0 z "},"N":{"ha":1272,"x_min":56,"x_max":1227,"o":"m 409 0 l 281 10 q 236 7 263 10 q 99 31 99 -12 q 121 50 99 50 l 165 45 q 218 69 203 45 q 241 148 239 106 q 243 218 243 189 l 244 782 q 227 851 244 815 q 199 902 210 887 q 176 931 189 917 q 148 958 163 945 q 92 994 114 986 q 56 1022 56 1007 q 92 1036 56 1036 l 301 1029 l 1006 283 l 1006 814 q 997 924 1006 898 q 981 963 987 950 q 928 987 966 987 l 878 982 q 856 1000 856 982 q 869 1021 856 1011 q 917 1031 882 1031 l 1044 1021 q 1090 1025 1063 1021 q 1169 1031 1137 1031 q 1214 1021 1202 1031 q 1227 1000 1227 1011 q 1204 982 1227 982 l 1161 987 q 1108 962 1122 987 q 1085 884 1087 925 q 1082 814 1082 842 l 1082 123 q 1097 14 1082 41 q 1112 -4 1103 4 q 1126 -28 1126 -16 q 1106 -44 1126 -44 q 1034 5 1080 -44 l 319 769 l 319 218 q 329 107 319 134 q 346 69 338 81 q 398 45 359 45 l 448 50 q 470 31 470 50 q 457 10 470 20 q 409 0 444 0 z "},"O":{"ha":1275,"x_min":90,"x_max":1185,"o":"m 90 498 q 129 719 90 616 q 241 898 168 823 q 655 1059 398 1059 q 928 985 804 1059 q 1116 795 1047 915 q 1185 533 1185 674 q 1019 127 1185 278 q 630 -16 862 -16 q 237 125 385 -16 q 90 498 90 266 m 231 603 q 302 312 231 441 q 480 127 369 194 q 707 62 588 62 q 932 157 844 62 q 1028 439 1028 260 q 964 718 1028 588 q 800 911 904 838 q 580 984 696 984 q 332 878 431 984 q 231 603 231 768 z "},"P":{"ha":1044,"x_min":75,"x_max":967,"o":"m 449 45 l 513 52 q 529 45 524 52 q 535 30 535 39 q 519 10 535 20 q 481 0 503 0 q 446 0 458 0 q 420 1 433 1 q 387 4 401 3 q 361 7 372 6 q 339 9 351 8 q 295 10 315 10 q 220 7 242 10 q 88 10 112 -9 q 75 31 75 20 q 98 50 75 50 l 141 45 q 194 69 180 45 q 217 148 215 106 q 220 218 220 189 l 220 810 q 210 920 220 894 q 193 962 201 947 q 131 991 177 991 l 98 987 q 75 1006 75 987 q 88 1026 75 1017 q 130 1036 100 1036 q 177 1035 160 1036 l 210 1032 q 302 1027 256 1027 q 403 1032 363 1027 l 458 1040 q 586 1046 507 1046 q 735 1025 664 1046 q 859 965 807 1004 q 967 752 967 884 q 834 486 967 583 q 546 397 713 397 q 370 424 463 397 l 370 218 q 380 107 370 134 q 396 69 389 81 q 449 45 410 45 m 370 510 q 560 464 452 464 q 735 529 667 464 q 802 692 802 593 q 715 905 802 826 q 507 980 634 980 q 381 929 414 980 q 370 889 370 912 l 370 510 z "},"Q":{"ha":1275,"x_min":82,"x_max":1275,"o":"m 479 -102 q 460 -79 460 -102 q 514 -29 460 -54 q 661 -1 577 -1 q 798 -14 745 -1 q 892 -48 850 -27 q 967 -96 934 -70 l 1030 -151 q 1095 -198 1064 -181 q 1152 -215 1125 -215 q 1215 -203 1196 -215 l 1241 -189 q 1255 -185 1248 -185 q 1275 -204 1275 -185 q 1233 -248 1275 -229 q 1126 -268 1188 -268 q 1017 -259 1063 -268 q 928 -232 971 -250 q 758 -117 839 -195 q 698 -66 716 -76 q 628 -49 665 -49 q 498 -96 556 -49 q 479 -102 490 -102 m 82 498 q 121 719 82 616 q 234 898 161 823 q 648 1059 391 1059 q 921 985 797 1059 q 1108 795 1040 915 q 1178 533 1178 674 q 1012 127 1178 278 q 623 -16 854 -16 q 229 125 378 -16 q 82 498 82 266 m 223 603 q 296 312 223 441 q 473 127 361 194 q 699 62 581 62 q 925 157 836 62 q 1021 439 1021 260 q 956 718 1021 588 q 792 911 897 838 q 572 984 688 984 q 324 878 424 984 q 223 603 223 768 z "},"R":{"ha":1044,"x_min":52,"x_max":1038,"o":"m 469 50 q 492 31 492 50 q 479 10 492 20 q 439 0 467 0 q 375 3 400 0 q 338 7 349 6 q 316 9 328 8 q 272 10 292 10 q 197 7 219 10 q 65 10 89 -9 q 52 31 52 20 q 75 50 52 50 l 118 45 q 171 69 157 45 q 194 148 192 106 q 197 218 197 189 l 197 810 q 187 920 197 894 q 170 962 178 947 q 108 991 154 991 l 75 987 q 52 1006 52 987 q 65 1026 52 1017 q 107 1036 77 1036 q 154 1035 137 1036 l 186 1032 q 269 1027 233 1027 q 322 1027 304 1027 q 357 1029 341 1028 q 387 1032 372 1030 q 415 1035 401 1034 q 444 1038 429 1036 q 476 1042 458 1040 q 587 1045 514 1045 q 732 1022 659 1045 q 854 962 806 1000 q 950 768 950 884 q 840 536 950 621 q 589 458 739 458 l 566 458 q 669 382 631 424 q 774 232 726 316 q 849 116 823 149 q 899 65 876 83 q 981 34 940 34 q 1004 38 992 34 q 1019 43 1015 43 q 1038 24 1038 43 q 1017 1 1038 10 q 955 -8 996 -8 q 873 -2 913 -8 q 799 18 833 3 q 734 58 765 33 q 671 122 703 83 q 528 343 616 191 q 403 461 479 429 q 347 480 378 472 l 347 218 q 357 107 347 134 q 373 69 366 81 q 426 45 387 45 l 469 50 m 347 560 q 563 514 437 514 q 716 567 655 514 q 785 728 785 627 q 707 905 785 832 q 501 980 626 980 q 354 929 374 980 q 347 889 347 912 l 347 560 z "},"S":{"ha":1044,"x_min":138,"x_max":951,"o":"m 849 966 q 851 955 849 966 q 859 919 853 945 q 873 855 864 894 q 883 791 883 817 q 866 765 883 765 q 838 801 854 765 q 533 994 745 994 q 351 948 420 994 q 281 836 281 904 q 338 713 281 764 q 536 623 404 654 q 745 559 669 592 q 867 486 821 526 q 951 286 951 411 q 841 66 951 149 q 549 -16 731 -16 q 216 49 361 -16 l 138 85 l 138 319 q 162 397 138 397 q 184 359 178 397 q 302 137 199 224 q 553 51 406 51 q 804 155 747 51 q 823 228 823 189 q 808 298 823 267 q 756 358 792 330 q 515 454 680 418 q 243 583 335 494 q 159 772 159 663 q 255 968 159 888 q 541 1059 362 1059 q 718 1034 640 1059 l 736 1027 q 758 1022 751 1022 q 789 1042 775 1022 q 823 1074 813 1074 q 841 1049 840 1074 q 844 1006 842 1024 q 849 966 846 987 z "},"T":{"ha":1044,"x_min":36,"x_max":1013,"o":"m 669 45 l 733 52 q 750 45 744 52 q 755 30 755 39 q 740 10 755 20 q 701 0 724 0 q 666 0 679 0 q 642 1 654 1 q 607 4 622 3 q 582 7 593 6 q 559 9 571 8 q 515 10 536 10 q 443 7 463 10 q 413 3 424 4 q 389 1 402 2 q 294 9 312 -3 q 275 30 275 20 q 298 52 275 52 l 361 45 q 414 69 400 45 q 438 148 435 106 q 440 218 440 189 l 440 960 l 391 960 q 307 951 348 960 l 254 940 q 103 838 178 923 l 73 802 q 47 786 59 786 q 36 802 36 786 q 42 839 36 817 q 58 891 49 861 q 91 1013 83 969 q 104 1062 98 1056 q 117 1069 111 1069 q 139 1053 127 1069 q 157 1035 152 1038 q 170 1029 161 1031 q 224 1026 183 1026 l 887 1026 q 950 1041 928 1026 q 980 1062 972 1055 q 996 1069 988 1069 q 1013 1048 1013 1069 q 1008 1028 1013 1040 l 996 1000 q 951 878 961 918 q 937 817 942 838 q 918 784 930 784 q 900 802 903 784 q 872 877 891 845 q 824 924 853 909 q 771 944 795 939 q 718 953 747 949 q 591 960 675 958 l 591 218 q 600 107 591 134 q 617 69 610 81 q 669 45 631 45 z "},"U":{"ha":1271,"x_min":45,"x_max":1199,"o":"m 949 0 q 904 79 906 0 q 612 -16 770 -16 q 298 87 408 -16 q 190 370 190 187 l 190 819 q 180 929 190 903 q 164 967 171 955 q 111 991 150 991 l 68 987 q 45 1005 45 987 q 58 1026 45 1016 q 98 1036 71 1036 q 162 1033 137 1036 q 199 1029 188 1030 q 221 1027 210 1028 q 265 1026 245 1026 q 340 1029 318 1026 q 422 1036 385 1036 q 472 1026 460 1036 q 485 1005 485 1016 q 463 987 485 987 l 419 991 q 366 967 380 991 q 343 888 345 930 q 340 819 340 847 l 340 342 q 422 127 340 206 q 643 51 501 51 q 904 152 785 51 l 904 819 q 895 929 904 903 q 878 967 885 955 q 825 991 864 991 l 782 987 q 760 1005 760 987 q 772 1026 760 1016 q 812 1036 785 1036 q 877 1033 851 1036 q 913 1029 902 1030 q 936 1027 924 1028 q 979 1026 959 1026 q 1055 1029 1032 1026 q 1137 1036 1099 1036 q 1186 1026 1174 1036 q 1199 1005 1199 1016 q 1177 987 1199 987 l 1133 991 q 1080 967 1095 991 q 1057 888 1059 930 q 1055 819 1055 847 l 1057 234 q 1068 79 1057 106 q 1095 47 1079 52 q 1130 43 1112 43 l 1168 47 q 1190 31 1190 47 q 1126 -2 1190 -2 l 1023 4 q 1006 3 1014 4 l 989 2 q 949 0 970 0 z "},"V":{"ha":1158,"x_min":-18,"x_max":1177,"o":"m 1154 987 l 1116 992 q 1061 966 1082 992 q 970 793 1028 922 q 666 120 677 151 q 650 75 654 89 q 644 31 644 51 q 670 -17 644 -6 q 692 -42 692 -26 q 671 -57 692 -57 q 625 -44 649 -57 q 572 1 601 -31 q 439 225 507 75 l 151 854 q 63 987 97 974 q 41 992 52 992 l 4 987 q -18 1004 -18 987 q -4 1026 -18 1017 q 41 1036 11 1036 l 175 1027 l 355 1036 q 420 1004 420 1036 q 399 987 420 987 l 347 994 q 301 959 301 994 q 329 871 301 933 l 587 277 q 627 212 615 212 q 652 253 636 212 l 907 844 q 941 966 941 920 q 901 994 941 994 l 843 987 q 821 1004 821 987 q 836 1027 821 1017 q 879 1036 851 1036 q 924 1035 906 1036 l 956 1031 q 1015 1027 994 1027 q 1066 1029 1046 1027 l 1097 1035 q 1127 1036 1109 1036 q 1161 1028 1145 1036 q 1177 1003 1177 1019 q 1154 987 1177 987 z "},"W":{"ha":1620,"x_min":-35,"x_max":1653,"o":"m 439 -57 q 418 -40 418 -57 q 425 -25 418 -30 q 444 -16 432 -21 q 467 18 467 -4 q 423 163 467 56 l 133 851 q 77 960 96 937 q 46 987 57 983 q 24 992 35 992 l -13 987 q -35 1004 -35 987 q -21 1026 -35 1017 q 24 1036 -6 1036 l 158 1027 l 338 1036 q 404 1004 404 1036 q 382 987 404 987 l 330 994 q 284 959 284 994 q 311 871 284 937 l 549 277 q 589 212 574 212 q 614 253 600 212 l 788 760 l 755 854 q 707 963 725 941 q 675 988 688 984 q 648 992 663 992 l 610 987 q 588 1004 588 987 q 603 1026 588 1017 q 648 1036 617 1036 l 776 1027 l 956 1036 q 1021 1004 1021 1036 q 1000 987 1021 987 l 948 994 q 905 960 905 994 q 928 871 905 945 l 1119 277 q 1155 212 1139 212 q 1169 226 1163 212 q 1180 253 1175 240 l 1384 844 q 1417 967 1417 939 q 1371 994 1417 994 l 1320 987 q 1298 1004 1298 987 q 1313 1027 1298 1017 q 1355 1036 1328 1036 q 1400 1035 1383 1036 l 1433 1031 q 1491 1027 1471 1027 q 1542 1029 1522 1027 l 1574 1035 q 1604 1036 1586 1036 q 1638 1028 1622 1036 q 1653 1003 1653 1019 q 1631 987 1653 987 l 1593 992 q 1531 966 1553 992 q 1447 793 1491 917 l 1272 300 q 1181 45 1183 61 q 1179 19 1179 30 q 1206 -18 1179 -7 q 1228 -40 1228 -26 q 1204 -57 1228 -57 q 1151 -40 1180 -57 q 1092 8 1122 -24 q 988 190 1024 79 l 827 649 l 683 233 q 555 9 633 92 q 439 -57 492 -57 z "},"X":{"ha":1044,"x_min":-21,"x_max":1067,"o":"m 313 49 q 334 32 334 49 q 319 9 334 19 q 277 0 304 0 q 232 1 250 0 l 199 5 q 141 9 161 9 q 90 7 110 9 l 58 1 q 28 0 47 0 q -5 8 10 0 q -21 33 -21 17 q 1 50 -21 50 l 39 44 q 99 81 64 44 q 130 117 113 96 l 447 502 l 113 954 q 73 990 90 986 q 58 992 67 992 l 21 987 q -1 1004 -1 987 q 13 1026 -1 1017 q 58 1036 28 1036 q 192 1027 58 1036 l 372 1036 q 437 1004 437 1036 q 416 987 437 987 l 364 994 q 318 965 318 994 q 357 888 318 940 l 561 613 l 710 797 q 817 966 817 929 q 770 994 817 994 l 719 987 q 697 1004 697 987 q 712 1027 697 1017 q 754 1036 727 1036 q 800 1035 782 1036 l 832 1031 q 890 1027 870 1027 q 941 1029 922 1027 l 973 1035 q 1003 1036 985 1036 q 1037 1028 1021 1036 q 1053 1003 1053 1019 q 1030 987 1053 987 l 992 992 q 932 955 967 992 q 901 919 919 941 l 603 556 l 954 82 q 993 46 976 50 q 1008 44 999 44 l 1045 50 q 1067 32 1067 50 q 1053 10 1067 20 q 1008 0 1038 0 l 874 9 l 694 0 q 629 32 629 0 q 650 49 629 49 l 702 43 q 748 71 748 43 q 708 149 748 93 l 488 445 l 321 239 q 215 71 215 107 q 261 42 215 42 l 313 49 z "},"Y":{"ha":1044,"x_min":-35,"x_max":1083,"o":"m 672 45 l 736 52 q 752 45 747 52 q 758 30 758 39 q 742 10 758 20 q 704 0 726 0 q 669 0 682 0 q 644 1 656 1 q 610 4 625 3 q 585 7 595 6 q 562 9 574 8 q 518 10 538 10 q 446 7 465 10 q 416 3 427 4 q 392 1 405 2 q 296 9 315 -3 q 278 30 278 20 q 300 52 278 52 l 364 45 q 417 69 403 45 q 440 148 438 106 q 443 218 443 189 l 443 453 l 85 967 q 62 987 75 981 q 24 992 50 992 l -13 987 q -35 1004 -35 987 q -21 1026 -35 1017 q 24 1036 -6 1036 l 158 1027 l 338 1036 q 404 1004 404 1036 q 382 987 404 987 l 330 994 q 284 966 284 994 q 315 896 284 942 l 565 517 l 795 856 q 847 965 847 937 q 801 994 847 994 l 749 987 q 728 1004 728 987 q 743 1027 728 1017 q 785 1036 758 1036 q 830 1035 812 1036 l 863 1031 q 921 1027 901 1027 q 972 1029 952 1027 l 1004 1035 q 1034 1036 1015 1036 q 1067 1028 1052 1036 q 1083 1003 1083 1019 q 1061 987 1083 987 l 1016 992 q 960 967 979 992 l 593 450 l 593 218 q 603 107 593 134 q 620 69 612 81 q 672 45 633 45 z "},"Z":{"ha":1044,"x_min":67,"x_max":977,"o":"m 116 0 q 67 26 67 0 q 88 68 67 39 l 747 960 l 470 960 q 328 944 369 960 q 260 910 288 928 q 209 874 233 893 q 146 813 168 840 q 112 786 124 786 q 100 802 100 786 q 107 840 100 817 q 156 1020 151 984 q 168 1062 162 1056 q 180 1069 174 1069 q 203 1053 191 1069 q 220 1035 216 1038 q 233 1029 225 1031 q 288 1026 247 1026 l 923 1026 q 964 1007 964 1026 q 945 966 964 994 l 287 66 l 605 66 q 707 77 673 66 q 818 140 764 97 l 845 161 q 871 183 858 171 q 926 237 908 218 q 962 265 951 265 q 977 250 977 265 q 961 202 977 234 q 937 150 945 171 q 920 107 928 129 q 891 0 908 71 l 116 0 z "},"[":{"ha":559,"x_min":183,"x_max":526,"o":"m 412 -149 l 503 -142 q 520 -148 514 -142 q 526 -163 526 -154 q 510 -183 526 -173 q 459 -193 494 -193 l 212 -193 q 190 -185 196 -193 q 183 -155 183 -177 l 183 1117 q 217 1155 183 1155 l 459 1155 q 510 1145 494 1155 q 526 1125 526 1135 q 503 1103 526 1103 l 412 1110 q 336 1095 343 1110 q 334 1082 334 1090 l 334 -121 q 345 -141 334 -136 q 412 -149 363 -149 z "},"\\":{"ha":684,"x_min":68,"x_max":616,"o":"m 180 1063 q 123 1152 150 1140 q 100 1155 114 1155 q 77 1144 87 1155 q 68 1122 68 1134 q 83 1057 68 1095 l 521 -147 q 567 -193 538 -193 q 606 -179 595 -193 q 616 -155 616 -165 q 615 -140 616 -145 q 612 -127 614 -136 l 605 -104 q 592 -69 600 -91 l 180 1063 z "},"]":{"ha":559,"x_min":34,"x_max":376,"o":"m 147 -149 l 56 -142 q 40 -148 45 -142 q 34 -163 34 -154 q 50 -183 34 -173 q 100 -193 66 -193 l 348 -193 q 370 -185 364 -193 q 376 -155 376 -177 l 376 1117 q 342 1155 376 1155 l 100 1155 q 50 1145 66 1155 q 34 1125 34 1135 q 56 1103 34 1103 l 147 1110 q 223 1095 216 1110 q 226 1082 226 1090 l 226 -121 q 215 -141 226 -136 q 147 -149 197 -149 z "},"^":{"ha":774,"x_min":102,"x_max":672,"o":"m 365 1059 l 406 1059 l 672 660 l 557 660 l 383 917 l 212 660 l 102 660 l 365 1059 z "},"_":{"ha":553,"x_min":-7,"x_max":560,"o":"m 560 -124 l 560 -217 l -7 -217 l -7 -124 l 560 -124 z "},"`":{"ha":437,"x_min":68,"x_max":369,"o":"m 160 900 q 71 979 83 939 q 68 1010 68 991 q 85 1043 68 1028 q 121 1059 102 1059 q 153 1056 140 1059 q 180 1046 166 1054 q 249 981 210 1029 l 357 846 q 369 826 369 833 q 351 807 369 807 q 321 817 340 807 l 160 900 z "},"a":{"ha":926,"x_min":117,"x_max":907,"o":"m 664 0 q 620 69 625 0 q 463 -11 560 7 q 380 -16 431 -16 q 276 -1 329 -16 q 188 42 223 14 q 117 199 117 98 q 205 365 117 309 q 402 414 281 414 q 619 363 523 414 l 619 444 q 563 591 619 540 q 419 639 511 639 q 224 519 311 639 q 176 477 192 477 q 159 492 159 477 q 168 533 159 507 q 185 675 185 583 q 207 705 185 705 q 268 678 234 705 q 284 671 277 671 q 307 676 294 671 q 338 685 321 681 q 375 692 355 688 q 447 700 422 700 q 755 534 712 700 q 768 428 768 484 l 768 234 q 773 113 768 136 q 784 74 778 90 q 810 50 791 58 q 847 42 829 42 l 885 47 q 907 30 907 47 q 844 -2 907 -2 l 740 4 q 722 3 731 4 l 704 2 q 664 0 686 0 m 318 309 q 307 299 318 309 q 286 265 296 290 q 275 210 275 241 q 287 150 275 178 q 319 100 298 121 q 448 58 364 58 q 585 104 524 58 q 619 139 604 119 l 619 300 q 494 346 567 333 q 437 350 470 350 q 371 339 404 350 q 318 309 339 328 z "},"b":{"ha":926,"x_min":-17,"x_max":859,"o":"m 78 -2 q 95 24 78 10 q 118 47 112 37 q 127 75 124 57 q 134 198 134 106 l 134 902 q 103 1078 134 1040 q 18 1110 79 1105 q -17 1133 -17 1114 q -7 1147 -17 1141 q 19 1154 2 1154 q 50 1152 37 1154 l 79 1149 q 144 1145 117 1145 q 211 1150 183 1145 q 249 1155 238 1155 q 268 1153 260 1155 q 280 1142 276 1150 q 287 1072 287 1128 l 287 631 q 497 700 364 700 q 760 605 659 700 q 859 353 859 511 q 754 92 859 199 q 486 -16 646 -16 q 312 13 390 -16 q 263 22 285 22 q 195 7 237 22 q 96 -20 115 -20 q 78 -2 78 -20 m 287 134 q 451 43 332 43 q 633 123 566 43 q 699 314 699 199 q 627 552 699 463 q 450 635 557 635 q 317 582 374 635 q 287 540 298 564 l 287 134 z "},"c":{"ha":811,"x_min":83,"x_max":750,"o":"m 750 493 q 734 476 750 476 q 679 525 719 476 q 581 606 640 574 q 468 637 522 637 q 375 619 414 637 q 307 567 336 600 q 243 382 243 494 q 323 151 243 244 q 507 62 400 62 q 655 114 590 62 q 691 150 677 131 q 710 175 704 169 q 725 181 717 181 q 740 176 734 181 q 745 164 745 171 q 720 105 745 138 q 458 -16 624 -16 q 191 84 297 -16 q 83 342 83 185 q 180 589 83 486 q 454 700 287 700 q 591 678 518 700 q 621 671 613 671 q 662 685 634 671 q 705 700 690 700 q 725 675 725 700 q 725 629 725 650 q 728 591 726 608 q 741 529 732 555 q 750 493 750 503 z "},"d":{"ha":925,"x_min":68,"x_max":908,"o":"m 628 39 q 451 -14 545 -14 q 287 12 357 -14 q 169 84 218 37 q 68 344 68 180 q 174 595 68 492 q 437 700 281 700 q 623 661 545 700 l 623 903 q 591 1078 623 1038 q 507 1110 568 1105 q 471 1133 471 1114 q 481 1147 471 1141 q 508 1154 490 1154 q 538 1152 525 1154 l 567 1149 q 633 1145 606 1145 q 699 1150 671 1145 q 738 1155 726 1155 q 756 1153 749 1155 q 768 1142 764 1150 q 775 1072 775 1128 l 775 234 q 786 79 775 106 q 814 47 798 52 q 848 43 830 43 l 886 47 q 908 31 908 47 q 845 -2 908 -2 l 741 4 q 724 3 732 4 l 707 2 q 667 0 689 0 q 628 39 637 0 m 475 43 q 623 100 559 42 l 623 557 q 495 632 578 615 q 432 637 471 637 q 353 616 394 637 q 283 559 311 595 q 224 378 224 486 q 296 140 224 237 q 475 43 367 43 z "},"e":{"ha":810,"x_min":63,"x_max":758,"o":"m 175 79 q 149 102 175 79 q 93 192 123 125 q 63 335 63 258 q 91 476 63 412 q 168 591 118 541 q 441 700 278 700 q 647 635 562 700 q 741 521 698 595 q 758 471 758 490 q 727 431 758 441 q 345 316 547 365 l 234 290 q 332 122 258 184 q 494 62 404 62 q 657 117 581 62 q 693 152 681 134 q 712 175 705 169 q 727 181 718 181 q 746 163 746 181 q 722 107 746 140 q 668 52 699 75 q 603 14 638 29 q 450 -16 533 -16 q 297 8 367 -16 q 175 79 227 33 m 226 347 q 580 448 456 404 q 596 467 596 453 q 591 497 596 480 q 575 534 585 515 q 550 571 565 553 q 515 605 535 590 q 427 637 472 637 q 347 622 382 637 q 283 573 311 606 q 225 374 225 503 l 225 360 q 226 347 225 353 z "},"f":{"ha":580,"x_min":62,"x_max":630,"o":"m 128 0 q 64 31 64 0 q 86 50 64 50 l 119 45 q 173 80 159 45 q 193 236 193 135 l 193 631 q 159 631 176 631 l 128 631 q 62 663 62 631 q 123 691 62 691 q 193 688 157 691 l 193 762 q 373 1151 193 1078 q 490 1173 428 1173 q 630 1156 552 1173 l 630 964 q 614 943 630 943 q 602 947 607 943 q 588 981 597 952 q 564 1037 578 1009 q 533 1081 549 1064 q 474 1114 502 1115 q 423 1098 446 1113 q 382 1053 399 1083 q 346 873 346 989 l 346 687 l 438 689 q 502 691 477 690 q 541 682 527 691 q 555 663 555 673 q 475 631 555 631 l 346 633 l 346 236 q 353 116 346 141 q 367 76 359 92 q 430 45 382 45 l 476 50 q 498 31 498 50 q 477 9 498 19 q 434 0 457 0 q 400 1 411 0 q 382 2 390 1 q 362 4 375 3 l 338 7 q 315 8 327 7 q 290 9 302 9 q 268 10 278 10 q 244 9 258 10 l 218 8 q 181 5 195 7 q 128 0 149 0 z "},"g":{"ha":925,"x_min":102,"x_max":881,"o":"m 264 -40 q 170 68 170 1 q 235 161 170 121 q 286 182 257 174 q 129 350 161 234 q 150 536 102 447 q 338 680 205 640 q 483 700 404 700 q 628 675 562 700 q 765 705 717 677 q 791 720 779 712 q 845 741 822 741 q 881 708 881 741 q 836 653 881 675 q 709 630 791 631 q 797 446 800 557 q 699 236 793 318 q 455 152 604 152 q 296 126 337 152 q 284 110 284 119 q 508 43 284 58 q 837 -74 781 24 q 855 -149 855 -106 q 828 -232 855 -192 q 750 -300 801 -271 q 463 -359 644 -359 q 186 -307 280 -359 q 105 -190 105 -262 q 194 -69 105 -119 q 264 -40 224 -52 m 329 281 q 343 264 329 281 q 398 230 357 248 q 479 212 438 212 q 548 221 519 212 q 597 250 576 231 q 643 363 641 290 q 628 487 646 436 q 580 571 610 537 q 434 637 520 637 q 319 591 366 637 q 271 477 273 544 q 284 362 269 411 q 329 281 300 314 m 518 -274 q 772 -193 772 -274 q 602 -96 772 -131 q 475 -79 537 -83 q 360 -67 395 -74 q 254 -137 279 -90 q 246 -171 246 -152 q 261 -210 246 -190 q 309 -243 277 -229 q 518 -274 379 -274 z "},"h":{"ha":1039,"x_min":62,"x_max":988,"o":"m 149 0 q 84 31 84 0 q 106 50 84 50 l 140 45 q 193 80 180 45 q 214 236 214 135 l 214 904 q 182 1078 214 1038 q 98 1110 159 1105 q 62 1133 62 1114 q 72 1147 62 1141 q 99 1154 81 1154 q 130 1152 116 1154 l 158 1149 q 224 1145 197 1145 q 290 1150 262 1145 q 329 1155 317 1155 q 348 1153 340 1155 q 359 1142 355 1150 q 366 1072 366 1128 l 366 576 q 630 700 479 700 q 819 618 762 700 q 863 457 863 557 l 863 236 q 870 119 863 146 q 883 77 877 92 q 903 53 888 62 q 932 45 918 45 l 967 50 q 988 31 988 50 q 926 0 988 0 q 882 4 909 0 q 772 11 810 14 l 724 7 q 700 4 713 5 q 651 0 671 0 q 583 31 583 0 q 606 50 583 50 l 641 45 q 708 140 702 45 q 711 236 711 177 l 711 431 q 640 602 711 556 q 575 620 612 620 q 509 610 538 620 q 454 585 480 601 q 366 505 405 555 l 366 236 q 373 116 366 141 q 387 76 380 92 q 445 45 402 45 l 478 50 q 500 31 500 50 q 433 0 500 0 q 401 2 413 0 q 379 4 389 3 l 358 7 q 335 8 347 7 q 311 9 323 9 q 288 10 298 10 q 264 9 278 10 l 239 8 q 201 5 216 7 q 149 0 169 0 z "},"i":{"ha":580,"x_min":88,"x_max":513,"o":"m 359 859 q 353 852 359 859 q 328 837 347 845 q 286 828 310 828 q 242 837 261 828 q 212 860 224 846 q 189 918 189 887 q 196 968 189 949 q 217 1000 203 987 q 279 1029 245 1029 q 332 1021 314 1029 q 363 997 351 1012 q 387 939 387 969 q 379 890 387 908 q 359 859 372 873 m 161 0 q 97 31 97 0 q 119 50 97 50 l 153 45 q 206 80 193 45 q 227 236 227 135 l 227 433 q 197 605 227 566 q 164 628 183 623 q 126 636 144 634 q 98 643 109 639 q 88 658 88 648 q 129 684 88 684 l 227 676 q 252 677 240 676 l 302 683 q 328 684 315 684 q 349 682 340 684 q 365 671 359 680 q 379 602 379 654 l 379 236 q 386 116 379 141 q 400 76 393 92 q 458 45 415 45 l 491 50 q 513 31 513 50 q 446 0 513 0 q 414 2 426 0 q 392 4 402 3 l 371 7 q 348 8 360 7 q 323 9 336 9 q 301 10 311 10 q 278 9 291 10 l 252 8 q 214 5 229 7 q 161 0 182 0 z "},"j":{"ha":580,"x_min":-60,"x_max":387,"o":"m 359 859 q 353 852 359 859 q 328 837 347 845 q 286 828 310 828 q 242 837 261 828 q 212 860 224 846 q 189 918 189 887 q 196 968 189 949 q 217 1000 203 987 q 279 1029 245 1029 q 332 1021 314 1029 q 363 997 351 1012 q 387 939 387 969 q 379 890 387 908 q 359 859 372 873 m -60 -168 q -46 -151 -60 -151 q -14 -180 -26 -151 q 44 -272 16 -243 q 101 -301 72 -301 q 151 -286 130 -301 q 189 -232 173 -271 q 224 53 224 -149 l 224 433 q 194 605 224 566 q 161 628 180 623 q 124 636 142 634 q 96 643 106 639 q 85 658 85 648 q 126 684 85 684 l 224 676 l 338 684 q 368 674 362 684 q 376 602 376 656 l 376 53 q 290 -264 376 -161 q 73 -359 212 -359 q -60 -342 15 -359 l -60 -168 z "},"k":{"ha":1040,"x_min":75,"x_max":1021,"o":"m 165 0 q 97 31 97 0 q 119 50 97 50 l 155 45 q 206 80 190 45 q 227 236 227 125 l 227 902 q 195 1078 227 1040 q 111 1110 172 1105 q 75 1133 75 1114 q 85 1147 75 1141 q 112 1154 94 1154 q 142 1152 129 1154 l 171 1149 q 237 1145 210 1145 q 303 1150 275 1145 q 341 1155 330 1155 q 360 1153 353 1155 q 372 1142 368 1150 q 379 1072 379 1128 l 379 399 q 663 552 534 448 q 714 615 714 593 q 661 646 714 646 l 621 641 q 600 659 600 641 q 658 691 600 691 q 699 689 678 691 q 738 685 719 687 q 812 680 782 680 l 924 691 q 981 659 981 691 q 959 641 981 641 l 921 646 q 833 594 890 646 q 540 397 699 474 l 821 137 q 969 45 920 45 l 999 50 q 1015 45 1008 50 q 1021 33 1021 40 q 966 0 1021 0 l 869 6 l 786 0 q 692 52 751 0 q 623 115 665 75 l 522 214 l 379 360 l 379 236 q 386 119 379 146 q 398 77 393 92 q 419 53 404 62 q 448 45 433 45 l 483 50 q 504 31 504 50 q 442 0 504 0 q 398 4 425 0 q 326 10 353 10 q 287 10 298 10 q 263 8 275 9 l 240 7 q 216 4 229 5 q 165 0 186 0 z "},"l":{"ha":580,"x_min":75,"x_max":504,"o":"m 167 0 q 99 31 99 0 q 121 50 99 50 l 157 45 q 224 140 218 45 q 227 236 227 177 l 227 902 q 195 1078 227 1040 q 111 1110 172 1105 q 75 1133 75 1114 q 85 1147 75 1141 q 112 1154 94 1154 q 142 1152 129 1154 l 171 1149 q 237 1145 210 1145 q 303 1150 275 1145 q 341 1155 330 1155 q 360 1153 353 1155 q 372 1142 368 1150 q 379 1072 379 1128 l 379 236 q 386 119 379 146 q 398 77 393 92 q 419 53 404 62 q 448 45 433 45 l 483 50 q 504 31 504 50 q 442 0 504 0 q 398 4 425 0 q 326 10 353 10 q 287 10 298 10 q 263 8 275 9 l 240 7 q 216 4 229 5 q 167 0 186 0 z "},"m":{"ha":1503,"x_min":62,"x_max":1482,"o":"m 135 0 q 71 31 71 0 q 93 50 71 50 l 126 45 q 180 80 166 45 q 200 236 200 135 l 200 433 q 170 605 200 566 q 137 628 157 623 q 100 636 118 634 q 72 643 82 639 q 62 658 62 648 q 102 684 62 684 l 201 676 q 226 677 214 676 l 276 683 q 301 684 289 684 q 322 682 313 684 q 338 672 332 680 q 353 603 353 654 q 606 700 469 700 q 744 668 686 700 q 830 580 802 636 q 1029 690 913 663 q 1117 700 1068 700 q 1212 683 1166 700 q 1290 636 1257 667 q 1357 470 1357 574 l 1357 236 q 1364 119 1357 146 q 1376 77 1371 92 q 1397 53 1382 62 q 1426 45 1411 45 l 1461 50 q 1482 31 1482 50 q 1420 0 1482 0 q 1376 4 1402 0 q 1266 11 1304 14 l 1218 7 q 1194 4 1206 5 q 1145 0 1164 0 q 1077 31 1077 0 q 1099 50 1077 50 l 1135 45 q 1202 140 1196 45 q 1204 236 1204 177 l 1204 471 q 1168 584 1204 543 q 1071 625 1131 625 q 850 523 962 625 q 855 470 855 496 l 855 236 q 862 119 855 146 q 874 77 869 92 q 895 53 880 62 q 924 45 909 45 l 959 50 q 980 31 980 50 q 918 0 980 0 q 874 4 901 0 q 764 11 802 14 l 716 7 q 692 4 705 5 q 643 0 663 0 q 575 31 575 0 q 597 50 575 50 l 633 45 q 700 140 694 45 q 703 236 703 177 l 703 471 q 666 584 703 543 q 564 625 629 625 q 353 528 460 625 l 353 236 q 359 116 353 141 q 374 76 366 92 q 431 45 389 45 l 465 50 q 486 31 486 50 q 419 0 486 0 q 388 2 399 0 q 366 4 376 3 l 345 7 q 321 8 334 7 q 297 9 309 9 q 275 10 285 10 q 251 9 264 10 l 225 8 q 188 5 202 7 q 135 0 155 0 z "},"n":{"ha":1039,"x_min":75,"x_max":988,"o":"m 149 0 q 84 31 84 0 q 106 50 84 50 l 140 45 q 193 80 180 45 q 214 236 214 135 l 214 433 q 184 605 214 566 q 151 628 170 623 q 114 636 132 634 q 85 643 96 639 q 75 658 75 648 q 116 684 75 684 l 214 676 q 239 677 227 676 l 290 683 q 315 684 302 684 q 336 682 327 684 q 353 671 346 680 q 366 602 366 654 l 366 576 q 630 700 479 700 q 819 618 762 700 q 863 457 863 557 l 863 236 q 870 119 863 146 q 883 77 877 92 q 903 53 888 62 q 932 45 918 45 l 967 50 q 988 31 988 50 q 926 0 988 0 q 882 4 909 0 q 772 11 810 14 l 724 7 q 700 4 713 5 q 651 0 671 0 q 583 31 583 0 q 606 50 583 50 l 641 45 q 708 140 702 45 q 711 236 711 177 l 711 431 q 640 602 711 556 q 575 620 612 620 q 509 610 538 620 q 454 585 480 601 q 366 505 405 555 l 366 236 q 373 116 366 141 q 387 76 380 92 q 445 45 402 45 l 478 50 q 500 31 500 50 q 433 0 500 0 q 401 2 413 0 q 379 4 389 3 l 358 7 q 335 8 347 7 q 311 9 323 9 q 288 10 298 10 q 264 9 278 10 l 239 8 q 201 5 216 7 q 149 0 169 0 z "},"o":{"ha":926,"x_min":83,"x_max":842,"o":"m 83 357 q 113 480 83 414 q 194 594 142 545 q 464 700 304 700 q 751 590 646 700 q 842 354 842 494 q 746 91 842 193 q 467 -16 644 -16 q 119 176 212 -16 q 83 357 83 252 m 297 570 q 284 554 297 570 q 258 494 272 538 q 243 385 243 449 q 265 257 243 321 q 321 145 286 193 q 498 43 398 43 q 625 109 574 43 q 680 270 680 176 q 657 430 680 363 q 599 543 635 496 q 517 614 563 589 q 430 638 472 638 q 355 620 388 638 q 297 570 321 602 z "},"p":{"ha":925,"x_min":3,"x_max":860,"o":"m 34 -310 l 67 -315 q 121 -279 107 -315 q 141 -123 141 -224 l 141 433 q 111 605 141 566 q 78 628 98 623 q 41 636 59 634 q 13 643 23 639 q 3 658 3 648 q 43 684 3 684 l 142 676 q 167 677 155 676 l 217 683 q 241 684 230 684 q 260 683 252 684 q 273 677 267 682 q 291 641 286 668 q 474 700 376 700 q 641 675 572 700 q 760 605 711 651 q 860 342 860 509 q 754 90 860 194 q 491 -16 647 -16 q 294 34 372 -16 l 294 -123 q 300 -243 294 -218 q 315 -283 307 -268 q 372 -315 330 -315 l 406 -310 q 427 -329 427 -310 q 360 -359 427 -359 l 216 -349 q 193 -350 205 -349 l 167 -351 q 129 -355 143 -353 q 76 -359 96 -359 q 12 -329 12 -359 q 34 -310 12 -310 m 454 638 q 294 570 368 638 l 294 160 q 425 53 331 77 q 494 46 453 46 q 576 68 534 46 q 646 125 617 90 q 704 309 704 199 q 633 549 704 457 q 454 638 563 638 z "},"q":{"ha":926,"x_min":79,"x_max":945,"o":"m 659 53 q 469 -14 570 -14 q 298 12 368 -14 q 180 84 229 37 q 79 344 79 180 q 185 595 79 492 q 440 700 292 700 q 678 632 589 700 q 848 700 803 700 q 868 683 868 700 q 851 660 868 671 q 829 638 835 649 q 819 608 823 627 q 811 482 811 572 l 811 -123 q 818 -243 811 -218 q 832 -283 825 -268 q 890 -315 847 -315 l 923 -310 q 945 -329 945 -310 q 878 -359 945 -359 l 733 -349 q 709 -350 723 -349 l 684 -351 q 646 -355 661 -353 q 593 -359 614 -359 q 529 -329 529 -359 q 551 -310 529 -310 l 585 -315 q 638 -279 625 -315 q 659 -123 659 -224 l 659 53 m 659 125 l 659 519 q 572 606 633 572 q 461 637 517 637 q 363 616 405 637 q 294 559 322 595 q 235 378 235 486 q 310 140 235 237 q 485 43 384 43 q 659 125 587 43 z "},"r":{"ha":811,"x_min":96,"x_max":746,"o":"m 169 0 q 104 31 104 0 q 127 50 104 50 l 160 45 q 214 80 200 45 q 234 236 234 135 l 234 433 q 204 605 234 566 q 171 628 191 623 q 134 636 152 634 q 106 643 116 639 q 96 658 96 648 q 136 684 96 684 l 235 676 q 260 677 248 676 l 310 683 q 335 684 323 684 q 357 682 347 684 q 373 671 366 680 q 387 602 387 654 l 387 542 q 552 688 450 650 q 622 700 587 700 q 681 693 658 700 q 719 673 705 686 q 746 609 746 649 l 745 458 q 740 444 745 450 q 729 439 735 439 q 707 469 715 439 q 684 523 699 498 q 650 564 669 548 q 572 593 612 593 q 504 581 532 593 q 453 548 476 568 q 387 460 407 509 l 387 236 q 393 116 387 141 q 408 76 400 92 q 471 45 422 45 l 517 50 q 538 31 538 50 q 518 9 538 19 q 475 0 498 0 q 441 1 452 0 q 423 2 431 1 q 403 4 416 3 l 378 7 q 355 8 368 7 q 331 9 343 9 q 309 10 319 10 q 285 9 298 10 l 259 8 q 222 5 236 7 q 169 0 189 0 z "},"s":{"ha":811,"x_min":98,"x_max":749,"o":"m 701 496 q 701 488 701 496 q 686 481 701 481 q 655 513 671 481 q 609 571 639 545 q 545 612 579 597 q 427 641 482 641 q 343 632 372 641 q 294 610 314 624 q 254 554 254 584 q 263 507 254 525 q 295 475 272 490 q 437 422 338 446 q 592 377 536 399 q 682 330 648 356 q 749 193 749 278 q 587 4 749 57 q 456 -16 524 -16 q 339 -10 387 -16 q 244 7 291 -3 q 98 62 141 32 l 98 228 q 103 239 98 235 q 115 244 108 244 q 141 212 132 244 q 179 148 150 180 q 250 92 208 115 q 450 43 336 43 q 605 102 567 43 q 618 146 618 122 q 609 184 618 170 q 576 214 600 199 q 421 269 526 243 q 262 320 316 295 q 175 376 208 346 q 117 506 117 429 q 190 636 117 581 q 414 700 274 700 q 570 676 479 700 q 579 673 573 675 q 591 669 585 671 q 615 665 607 665 q 640 682 625 665 q 664 700 654 700 q 683 675 683 700 q 691 545 683 574 q 701 496 701 511 z "},"t":{"ha":695,"x_min":40,"x_max":637,"o":"m 616 167 q 637 147 637 167 q 603 78 637 124 q 515 8 570 33 q 406 -16 461 -16 q 309 -5 350 -16 q 239 30 267 5 q 178 191 178 81 l 178 631 l 107 631 q 43 646 51 631 q 40 659 40 651 q 45 671 40 666 q 59 680 50 676 q 79 686 67 683 l 102 691 q 248 836 210 717 q 269 926 262 878 q 285 988 276 975 q 307 1002 294 1002 q 325 987 320 1002 q 330 935 330 971 l 330 686 q 541 690 515 690 q 583 689 566 690 q 608 684 599 687 q 625 663 625 677 q 546 631 625 631 l 330 631 l 330 210 q 395 74 330 106 q 439 62 417 62 q 478 66 462 62 q 511 79 494 70 q 580 138 551 98 q 616 167 600 167 z "},"u":{"ha":1039,"x_min":51,"x_max":952,"o":"m 667 77 q 449 -16 573 -16 q 259 50 334 -16 q 184 218 184 116 l 184 451 q 173 605 184 578 q 145 637 161 632 q 111 642 129 642 l 73 637 q 51 654 51 637 q 114 686 51 686 l 218 680 q 235 681 227 680 l 252 682 q 287 684 270 684 q 313 681 304 684 q 327 666 321 677 q 336 586 336 646 l 336 218 q 425 68 336 98 q 486 58 452 58 q 667 151 576 58 l 667 450 q 655 605 667 578 q 628 637 644 632 q 593 642 612 642 l 555 637 q 534 654 534 637 q 597 686 534 686 l 701 680 q 718 681 709 680 l 734 682 q 770 684 753 684 q 796 681 787 684 q 810 666 804 677 q 819 585 819 645 l 819 234 q 830 79 819 106 q 858 47 842 52 q 892 43 874 43 l 930 47 q 952 31 952 47 q 889 -2 952 -2 l 785 4 q 768 3 777 4 l 751 2 q 718 0 733 0 q 695 3 703 0 q 681 16 687 7 q 667 77 669 34 z "},"v":{"ha":926,"x_min":-6,"x_max":935,"o":"m 913 635 l 875 640 q 827 618 846 640 q 754 504 792 583 l 523 19 q 492 -22 505 -18 q 481 -23 488 -23 q 443 14 463 -23 q 135 564 154 532 q 102 612 115 596 q 54 640 80 640 l 16 635 q -6 650 -6 635 q 56 684 -6 684 l 197 673 q 281 680 227 673 q 356 684 324 684 q 400 681 389 684 q 419 673 412 678 q 433 652 433 665 q 411 635 433 635 l 359 641 q 302 604 302 641 q 329 526 302 576 l 495 227 q 525 197 513 197 q 547 224 534 197 l 659 473 q 697 573 694 551 q 701 604 701 594 q 650 641 701 641 l 588 635 q 566 650 566 635 q 629 684 566 684 l 764 673 q 825 680 794 673 q 878 684 848 684 q 921 675 907 684 q 935 650 935 665 q 913 635 935 635 z "},"w":{"ha":1388,"x_min":-3,"x_max":1401,"o":"m 1379 635 l 1341 640 q 1290 609 1313 640 q 1182 423 1251 558 l 974 13 q 937 -23 956 -23 q 917 -16 926 -23 q 898 14 909 -8 l 697 412 l 509 13 q 472 -23 492 -23 q 433 14 452 -23 q 135 561 155 526 q 102 612 115 595 q 56 640 79 640 l 18 635 q -3 650 -3 635 q 59 684 -3 684 q 134 679 96 684 q 191 673 172 673 l 330 684 q 389 663 378 684 q 393 652 393 657 q 371 635 393 635 q 319 641 371 635 q 297 635 302 641 q 292 617 292 629 q 323 531 292 586 l 489 230 q 503 207 498 213 q 513 200 507 200 q 539 231 524 200 l 658 491 q 593 605 612 582 q 563 634 574 629 q 541 640 552 640 l 503 635 q 481 650 481 635 q 544 684 481 684 q 613 679 574 684 q 666 673 652 673 q 689 674 681 673 q 706 675 698 674 q 724 677 715 676 q 752 680 734 678 q 821 684 789 684 q 866 681 854 684 q 886 673 878 678 q 899 652 899 665 q 878 635 899 635 l 825 641 q 781 604 781 641 q 806 531 781 581 l 953 230 q 978 200 968 200 q 1004 231 989 200 l 1118 457 q 1167 604 1167 555 q 1116 641 1167 641 l 1055 635 q 1033 650 1033 635 q 1095 684 1033 684 l 1240 673 q 1284 678 1263 673 q 1342 684 1316 684 q 1385 675 1369 684 q 1401 651 1401 667 q 1379 635 1401 635 z "},"x":{"ha":925,"x_min":3,"x_max":922,"o":"m 168 11 l 58 0 q 17 9 31 0 q 3 34 3 19 q 25 50 3 50 l 62 45 q 106 58 85 45 q 197 140 144 84 l 377 326 l 169 565 q 86 636 117 627 q 64 640 75 640 l 26 635 q 3 650 3 635 q 66 684 3 684 q 143 679 104 684 q 202 673 182 673 q 280 678 240 673 q 394 684 338 684 q 449 652 449 684 q 427 635 449 635 l 376 641 q 338 619 338 641 q 376 555 338 600 l 503 409 l 590 497 q 667 595 660 569 q 670 614 670 604 q 663 632 670 624 q 644 641 656 641 q 624 640 631 641 l 608 637 q 584 635 596 635 q 566 641 571 635 q 561 652 561 646 q 632 684 561 684 l 757 673 l 867 684 q 908 675 895 684 q 922 650 922 665 q 900 635 922 635 l 863 640 q 819 626 840 640 q 728 544 781 600 l 548 358 l 757 119 q 840 47 809 57 q 862 44 850 44 l 900 49 q 922 34 922 49 q 860 -1 922 -1 q 783 5 821 -1 q 723 10 744 10 q 646 5 686 10 q 532 -1 587 -1 q 477 32 477 -1 q 498 49 477 49 l 550 43 q 587 64 587 43 q 549 128 587 84 l 421 275 l 335 187 q 258 90 265 115 q 255 70 255 80 q 262 52 255 60 q 281 43 269 43 q 301 45 294 43 l 317 47 q 341 50 329 50 q 359 44 354 50 q 364 33 364 38 q 293 0 364 0 l 168 11 z "},"y":{"ha":926,"x_min":-5,"x_max":914,"o":"m 892 635 l 854 640 q 783 602 814 640 q 709 459 751 563 l 484 -93 q 291 -331 385 -297 q 233 -341 264 -341 q 174 -332 203 -341 q 124 -307 144 -323 q 83 -228 83 -275 q 95 -192 83 -206 q 126 -178 108 -178 q 156 -188 144 -178 q 179 -218 168 -199 q 197 -246 190 -237 q 212 -260 204 -255 q 250 -271 227 -271 q 288 -264 272 -271 q 324 -233 304 -258 q 433 -40 366 -183 l 433 -37 l 179 489 q 79 633 117 615 q 55 640 66 640 l 17 635 q -5 650 -5 635 q 58 684 -5 684 l 191 673 l 371 684 q 431 663 420 684 q 434 652 434 657 q 412 635 434 635 l 361 641 q 312 604 312 641 q 326 557 312 587 l 505 141 l 659 529 q 680 610 680 585 q 637 641 680 641 l 582 635 q 560 650 560 635 q 622 684 560 684 q 656 682 640 684 l 691 678 q 754 673 729 673 q 803 679 779 673 q 857 684 828 684 q 900 675 885 684 q 914 650 914 665 q 892 635 914 635 z "},"z":{"ha":810,"x_min":38,"x_max":774,"o":"m 82 0 q 38 26 38 0 q 50 52 38 37 l 532 623 l 345 623 q 255 608 286 623 q 160 523 203 580 q 92 456 110 456 q 75 472 75 456 q 87 515 75 479 q 113 682 113 590 q 134 712 113 712 q 159 703 141 712 q 203 684 194 684 l 698 684 q 735 680 726 684 q 745 666 745 675 q 724 625 745 651 l 254 62 l 474 62 q 614 100 560 62 q 668 148 642 119 l 727 216 q 759 241 749 241 q 774 223 774 241 q 760 175 774 206 q 736 124 745 143 q 722 87 728 106 q 700 0 709 53 l 82 0 z "},"{":{"ha":548,"x_min":102,"x_max":500,"o":"m 442 -144 l 481 -139 q 500 -153 500 -139 q 460 -183 500 -175 q 425 -185 448 -185 q 368 -167 401 -185 q 309 -111 336 -149 q 235 125 251 -31 q 193 401 214 341 q 157 453 179 441 q 130 463 146 458 q 102 485 102 471 q 124 505 102 499 q 157 517 146 511 q 177 535 168 522 q 193 569 186 547 q 208 627 201 591 q 232 811 220 696 q 262 984 243 926 q 309 1081 281 1043 q 435 1155 361 1155 q 495 1136 478 1155 q 500 1123 500 1130 q 481 1109 500 1109 l 442 1114 q 401 1086 412 1114 q 389 949 389 1055 q 380 757 389 844 q 354 613 371 670 q 260 485 323 509 q 354 355 324 459 q 389 1 389 239 q 398 -109 389 -85 q 418 -138 408 -132 q 442 -144 428 -144 z "},"|":{"ha":602,"x_min":254,"x_max":347,"o":"m 301 1155 q 347 1105 347 1155 l 347 -142 q 335 -179 347 -165 q 301 -193 322 -193 q 267 -178 279 -193 q 254 -140 254 -163 l 254 1107 q 267 1142 254 1128 q 301 1155 279 1155 z "},"}":{"ha":548,"x_min":47,"x_max":446,"o":"m 106 -144 l 66 -139 q 48 -153 48 -139 q 88 -183 48 -175 q 123 -185 100 -185 q 180 -167 147 -185 q 239 -111 212 -149 q 313 125 297 -31 q 355 401 334 341 q 391 453 369 441 q 418 463 401 458 q 446 485 446 471 q 424 505 446 499 q 391 517 401 511 q 371 535 380 522 q 355 569 362 547 q 340 627 347 591 q 316 811 328 696 q 286 984 305 926 q 239 1081 267 1043 q 113 1155 187 1155 q 53 1136 70 1155 q 48 1123 48 1130 q 66 1109 48 1109 l 106 1114 q 147 1086 136 1114 q 159 949 159 1055 q 168 757 159 844 q 194 613 177 670 q 288 485 224 509 q 194 355 224 459 q 159 1 159 239 q 150 -109 159 -85 q 130 -138 140 -132 q 106 -144 120 -144 z "},"~":{"ha":975,"x_min":78,"x_max":905,"o":"m 304 475 q 159 321 226 475 l 78 361 q 171 506 109 447 q 308 568 237 568 q 519 477 395 568 q 658 396 618 405 q 691 392 674 392 q 725 400 708 392 q 760 427 743 408 q 824 545 797 466 l 905 505 q 681 299 831 299 q 599 316 634 299 q 492 378 544 341 l 416 433 q 348 470 371 465 q 304 475 326 475 z "},"":{"ha":373,"x_min":0,"x_max":0,"o":""},"":{"ha":454,"x_min":115,"x_max":339,"o":"m 315 -359 q 339 -336 339 -359 q 333 -289 339 -321 q 321 -221 327 -256 q 298 -42 305 -104 q 263 254 271 170 q 249 360 255 338 q 227 383 243 383 q 205 360 212 383 q 195 294 199 338 q 184 195 191 249 q 159 -21 166 36 l 146 -125 q 126 -260 133 -227 q 115 -336 115 -319 q 140 -359 115 -359 l 228 -354 l 315 -359 m 155 685 q 149 678 155 685 q 138 655 143 671 q 132 622 132 639 q 139 588 132 605 q 159 557 146 570 q 221 528 188 528 q 271 536 254 528 q 300 559 289 545 q 323 617 323 588 q 316 662 323 646 q 294 691 308 679 q 235 715 267 715 q 185 707 203 715 q 155 685 167 698 z "},"":{"ha":825,"x_min":83,"x_max":764,"o":"m 492 -144 q 461 -193 492 -193 q 427 -142 427 -193 l 427 -14 q 183 90 277 -1 q 83 342 83 187 q 176 576 83 474 q 427 698 275 684 l 427 810 q 458 861 427 861 q 492 810 492 861 l 492 699 q 579 686 543 697 l 621 673 q 636 671 628 671 q 676 685 648 671 q 719 700 704 700 q 739 675 739 700 q 739 629 739 650 q 741 591 739 608 q 754 529 745 555 q 764 493 764 503 q 748 476 764 476 q 703 513 732 476 q 647 573 673 549 q 595 610 621 597 q 492 637 551 634 l 492 64 q 507 62 500 62 l 521 62 q 707 155 645 62 q 724 175 718 169 q 739 181 730 181 q 753 176 747 181 q 759 164 759 171 q 725 95 759 138 q 630 20 691 52 q 492 -16 569 -12 l 492 -144 m 427 633 q 294 549 342 618 q 243 361 243 477 q 355 115 243 197 q 427 78 389 91 l 427 633 z "},"":{"ha":927,"x_min":46,"x_max":882,"o":"m 65 -14 q 46 7 46 -14 q 163 119 46 56 q 242 172 227 153 q 273 300 273 216 q 234 489 273 384 l 142 489 q 80 524 80 489 q 144 555 80 555 l 207 555 q 155 758 155 684 q 179 884 155 831 q 244 977 203 938 q 457 1059 332 1059 q 563 1046 523 1059 q 625 1024 602 1034 q 671 1009 663 1009 q 711 1034 688 1009 q 755 1069 744 1069 q 772 1033 772 1069 q 784 913 772 956 q 806 804 806 829 q 790 779 806 779 q 770 794 780 779 q 627 937 714 882 q 464 992 542 992 q 349 947 394 992 q 302 827 302 902 q 335 657 302 747 q 369 575 348 623 l 377 555 l 660 555 q 724 519 724 555 q 661 489 724 489 l 401 489 q 424 367 424 416 q 417 294 424 318 q 399 248 410 270 q 336 174 375 205 q 468 149 416 168 q 555 115 520 130 q 617 90 590 100 q 666 73 645 79 q 734 62 703 62 q 829 101 792 62 q 864 120 847 120 q 882 100 882 120 q 805 21 880 58 q 661 -16 730 -16 q 416 22 537 -16 q 282 57 315 54 q 220 60 248 60 q 96 7 148 60 q 65 -14 77 -14 z "},"":{"ha":984,"x_min":102,"x_max":882,"o":"m 669 212 q 488 155 593 155 q 311 208 383 155 l 170 60 l 102 128 l 249 270 q 203 426 203 337 q 250 583 203 515 l 102 727 l 170 795 l 313 646 q 493 700 389 700 q 670 645 597 700 l 814 795 l 882 727 l 730 580 q 772 429 772 514 q 729 276 772 343 l 882 128 l 814 60 l 669 212 m 298 427 q 312 349 298 385 q 351 288 326 313 q 489 232 405 232 q 625 283 574 232 q 678 428 678 338 q 624 567 678 512 q 486 623 570 623 q 350 567 402 623 q 298 427 298 513 z "},"":{"ha":1044,"x_min":-35,"x_max":1083,"o":"m 672 45 l 736 52 q 752 45 747 52 q 758 30 758 39 q 742 10 758 20 q 704 0 726 0 q 669 0 682 0 q 644 1 656 1 q 610 4 625 3 q 585 7 595 6 q 562 9 574 8 q 518 10 538 10 q 446 7 465 10 q 416 3 427 4 q 392 1 405 2 q 296 9 315 -3 q 278 30 278 20 q 300 52 278 52 l 364 45 q 417 69 403 45 q 440 148 438 106 q 443 218 443 189 l 443 286 l 170 286 q 134 292 148 286 q 121 320 121 298 q 135 347 121 342 q 172 351 149 351 l 443 351 l 443 481 l 170 481 q 134 487 148 481 q 121 515 121 493 q 135 542 121 538 q 172 547 149 547 l 395 547 l 85 967 q 62 987 75 981 q 24 992 50 992 l -13 987 q -35 1004 -35 987 q -21 1026 -35 1017 q 24 1036 -6 1036 l 158 1027 q 338 1036 158 1027 q 404 1004 404 1036 q 382 987 404 987 l 330 994 q 284 966 284 994 q 315 896 284 939 l 555 547 l 558 547 l 768 817 l 795 856 q 847 965 847 937 q 801 994 847 994 l 749 987 q 728 1004 728 987 q 743 1027 728 1017 q 785 1036 758 1036 q 830 1035 812 1036 l 863 1031 q 921 1027 901 1027 q 972 1029 952 1027 l 1004 1035 q 1034 1036 1015 1036 q 1067 1028 1052 1036 q 1083 1003 1083 1019 q 1061 987 1083 987 l 1016 992 q 960 967 980 992 l 632 547 l 884 547 q 930 530 922 547 q 935 507 935 524 q 884 481 935 481 l 593 481 l 593 351 l 884 351 q 930 335 922 351 q 935 312 935 328 q 884 286 935 286 l 593 286 l 593 218 q 603 107 593 134 q 620 69 612 81 q 672 45 633 45 z "},"":{"ha":602,"x_min":254,"x_max":347,"o":"m 347 633 q 335 601 347 615 q 302 587 323 587 q 267 599 280 587 q 254 631 254 612 l 254 1110 q 267 1143 254 1132 q 301 1155 279 1155 q 335 1141 323 1155 q 347 1109 347 1126 l 347 633 m 254 337 q 267 369 254 357 q 302 382 280 382 q 335 368 323 382 q 347 336 347 353 l 347 -147 q 335 -179 347 -165 q 301 -193 323 -193 q 254 -149 254 -193 l 254 337 z "},"":{"ha":759,"x_min":95,"x_max":671,"o":"m 321 -193 q 132 -142 232 -193 l 132 22 q 147 50 133 50 q 172 24 165 50 q 234 -92 186 -50 q 357 -134 282 -134 q 469 -102 424 -134 q 517 -12 517 -68 q 349 157 517 77 q 156 283 215 221 q 95 429 95 347 q 178 585 95 513 q 227 620 202 605 q 140 713 165 663 q 115 816 115 764 q 136 910 115 869 q 195 984 156 951 q 425 1059 283 1059 q 614 1021 531 1059 l 614 857 q 598 829 612 829 q 575 855 581 829 q 519 962 562 924 q 410 1000 477 1000 q 299 964 347 1000 q 250 878 250 927 q 338 753 250 814 q 433 701 370 730 q 546 638 496 671 q 623 574 595 606 q 671 429 671 518 q 587 279 671 350 q 539 245 564 260 q 650 53 650 168 q 569 -117 650 -48 q 321 -193 480 -193 m 277 589 q 205 494 205 551 q 332 354 205 425 q 415 311 376 328 q 488 276 469 287 q 561 371 561 315 q 434 511 561 440 q 351 554 389 537 q 300 577 312 571 q 277 589 289 583 z "},"":{"ha":659,"x_min":68,"x_max":591,"o":"m 564 858 q 557 851 564 858 q 532 836 551 844 q 490 827 514 827 q 447 836 465 827 q 416 859 428 845 q 393 918 393 886 q 400 967 393 949 q 420 1000 408 986 q 484 1029 449 1029 q 536 1020 518 1029 q 567 997 555 1011 q 591 938 591 968 q 584 890 591 907 q 564 858 576 872 m 238 858 q 232 851 238 858 q 207 836 225 844 q 164 827 189 827 q 121 836 140 827 q 91 859 102 845 q 68 918 68 886 q 75 967 68 949 q 95 1000 82 986 q 158 1029 123 1029 q 211 1020 193 1029 q 241 997 229 1011 q 265 938 265 968 q 258 890 265 907 q 238 858 251 872 z "},"":{"ha":1293,"x_min":88,"x_max":1205,"o":"m 88 519 q 106 658 88 591 q 158 785 124 725 q 242 895 193 844 q 354 981 291 945 q 651 1059 486 1059 q 926 990 798 1059 q 1184 672 1122 886 q 1205 522 1205 601 q 1184 373 1205 444 q 1126 243 1163 303 q 1037 136 1088 184 q 923 54 985 87 q 650 -16 794 -16 q 365 58 496 -16 q 164 251 239 129 q 88 519 88 376 m 311 849 q 280 818 311 849 q 212 702 248 787 q 176 536 176 617 q 193 396 176 455 q 241 286 210 337 q 317 193 273 235 q 415 121 361 151 q 661 58 527 58 q 887 117 781 58 q 1101 391 1050 207 q 1118 522 1118 452 q 1099 652 1118 591 q 1048 765 1081 713 q 971 857 1016 817 q 874 926 926 898 q 656 984 766 984 q 460 948 546 984 q 311 849 374 912 m 918 640 q 904 625 918 625 q 866 655 890 625 q 823 704 843 684 q 779 736 802 724 q 680 764 732 764 q 596 747 628 764 q 540 703 564 730 q 486 575 486 643 q 506 454 486 507 q 559 363 526 402 q 727 281 629 281 q 846 327 789 281 q 879 360 867 343 q 896 381 890 378 q 909 385 902 385 q 922 379 916 385 q 927 366 927 373 q 906 317 927 344 q 858 271 884 290 q 800 237 831 251 q 661 208 734 208 q 528 232 588 208 q 423 298 467 256 q 332 511 332 385 q 422 730 332 640 q 647 822 513 822 q 749 812 712 822 l 795 800 q 812 797 805 797 q 842 809 823 797 q 878 825 867 825 q 895 802 895 825 q 896 760 895 779 q 898 726 896 742 q 909 670 901 692 q 918 640 918 648 z "},"":{"ha":766,"x_min":102,"x_max":729,"o":"m 589 516 l 516 513 q 484 555 489 513 q 509 582 497 566 l 501 637 q 481 612 490 621 l 481 749 q 524 715 513 730 l 546 760 q 481 803 522 783 l 481 859 q 446 966 481 929 q 353 1004 410 1004 q 260 984 296 1004 q 190 918 224 965 q 152 884 164 884 q 141 888 145 884 q 136 901 136 892 q 143 928 136 909 q 157 1039 157 968 q 174 1062 157 1062 q 201 1055 187 1062 q 234 1041 227 1041 q 244 1043 239 1041 q 262 1048 248 1044 q 370 1059 302 1059 q 488 1042 438 1059 q 567 996 538 1025 q 618 846 618 945 l 618 703 q 627 589 618 612 q 674 553 640 553 l 709 559 q 723 553 716 559 q 729 539 729 547 q 718 521 729 530 q 677 511 706 511 l 589 516 m 484 555 q 324 500 418 500 q 115 598 160 500 q 102 671 102 629 q 120 745 102 713 q 171 798 139 777 q 321 836 231 836 q 481 803 411 836 l 481 749 q 361 781 421 781 q 278 750 311 781 q 248 689 248 722 q 255 634 248 655 q 277 597 262 613 q 370 563 309 563 q 481 612 432 563 l 481 590 q 484 555 481 569 z "},"":{"ha":774,"x_min":54,"x_max":707,"o":"m 96 324 q 80 333 96 324 q 59 345 64 341 q 54 355 54 349 q 75 374 54 363 q 131 410 96 385 q 205 467 166 434 q 353 614 298 543 l 367 633 q 389 652 381 652 q 401 633 401 652 q 389 583 401 614 q 355 513 377 551 q 237 355 306 425 q 355 197 306 285 q 401 86 401 115 q 389 57 401 57 q 372 71 381 57 l 353 96 q 205 243 298 166 q 96 324 128 307 m 401 324 q 385 333 401 324 q 364 345 369 341 q 359 355 359 349 q 380 374 359 363 q 436 410 401 385 q 511 467 471 434 q 658 614 604 543 l 672 633 q 694 652 686 652 q 707 633 707 652 q 694 583 707 614 q 661 513 682 551 q 543 355 611 425 q 661 197 611 285 q 707 86 707 115 q 694 57 707 57 q 677 71 686 57 l 658 96 q 511 243 604 166 q 401 324 433 307 z "},"":{"ha":871,"x_min":102,"x_max":770,"o":"m 102 483 l 770 483 l 770 170 l 674 170 l 674 390 l 102 390 l 102 483 z "},"":{"ha":833,"x_min":0,"x_max":0,"o":""},"":{"ha":931,"x_min":88,"x_max":843,"o":"m 465 429 q 320 457 389 429 q 199 536 250 486 q 88 792 88 642 q 193 1044 88 939 q 469 1155 302 1155 q 728 1055 619 1155 q 843 791 843 950 q 728 532 843 638 q 465 429 618 429 m 467 492 q 582 514 529 492 q 675 574 635 535 q 764 789 764 659 q 671 1004 764 919 q 461 1086 582 1086 q 247 1000 334 1086 q 160 789 160 915 q 250 579 160 666 q 467 492 339 492 m 375 623 l 304 618 q 279 634 279 618 q 290 645 279 645 l 310 642 q 332 712 332 642 l 332 873 q 310 942 332 942 l 292 939 q 279 950 279 939 q 304 966 279 966 q 319 966 314 966 l 334 965 q 391 962 359 962 l 490 968 q 618 910 588 968 q 628 871 628 893 q 617 829 628 849 q 587 797 606 810 q 500 771 552 771 q 589 684 553 747 l 603 662 q 628 642 616 642 l 647 645 q 656 636 656 645 q 645 621 656 627 q 607 614 634 614 q 546 638 579 614 q 479 718 512 662 q 418 771 452 761 l 418 712 q 440 642 418 642 l 459 645 q 471 634 471 645 q 447 618 471 618 l 375 623 m 418 812 q 469 800 444 800 q 505 804 494 800 q 525 814 516 807 q 543 855 543 831 q 535 891 543 879 q 515 910 528 903 q 463 926 492 926 q 418 895 418 926 l 418 812 z "},"":{"ha":594,"x_min":68,"x_max":526,"o":"m 68 970 l 526 970 l 526 884 l 68 884 l 68 970 z "},"":{"ha":552,"x_min":88,"x_max":464,"o":"m 275 686 q 199 699 234 686 q 140 737 165 713 q 88 872 88 788 q 138 1003 88 951 q 281 1059 191 1059 q 414 1008 364 1059 q 464 872 464 957 q 411 737 464 789 q 275 686 359 686 m 278 757 q 302 757 278 757 q 354 787 327 757 q 382 872 382 817 q 320 978 382 950 q 276 987 300 987 q 231 978 251 987 q 198 954 212 969 q 172 885 172 923 q 179 826 172 847 q 199 789 186 805 q 278 757 229 757 z "},"":{"ha":871,"x_min":102,"x_max":770,"o":"m 388 591 l 102 591 l 102 684 l 388 684 l 388 979 l 484 979 l 484 684 l 770 684 l 770 591 l 484 591 l 484 311 l 388 311 l 388 591 m 102 210 l 770 210 l 770 117 l 102 117 l 102 210 z "},"":{"ha":614,"x_min":95,"x_max":540,"o":"m 502 581 q 510 589 502 581 q 529 597 518 597 q 540 586 540 597 q 531 557 540 577 q 517 524 522 537 q 507 496 511 510 q 498 465 503 481 l 490 429 l 115 429 q 95 451 95 429 q 101 499 95 473 q 127 557 108 526 q 273 720 168 627 q 366 812 344 783 q 400 890 400 861 q 393 938 400 920 q 373 970 387 957 q 295 999 345 999 q 178 936 224 999 q 153 882 162 913 q 130 851 144 851 q 113 878 113 851 l 113 989 q 263 1054 171 1037 q 330 1059 291 1059 q 410 1047 370 1059 q 477 1015 450 1036 q 532 909 532 975 q 436 757 532 840 q 350 688 405 730 q 203 532 241 606 l 329 532 q 469 555 429 532 q 502 581 486 565 z "},"":{"ha":604,"x_min":102,"x_max":530,"o":"m 102 474 l 102 585 q 119 612 102 612 q 140 586 132 612 q 162 541 147 560 q 197 509 176 522 q 277 481 238 481 q 338 491 317 481 q 374 515 359 500 q 403 583 403 545 q 394 649 403 621 q 368 699 385 677 q 274 745 332 745 l 223 736 q 205 752 205 736 q 245 784 205 768 q 305 815 286 801 q 339 845 325 829 q 368 916 368 880 q 344 975 368 953 q 277 997 320 997 q 199 969 233 997 q 154 903 165 941 q 129 865 142 865 q 112 892 112 865 l 112 1004 q 302 1059 193 1059 q 484 983 437 1059 q 499 932 499 959 q 489 886 499 906 q 461 846 479 865 q 370 786 424 808 q 481 732 437 774 q 530 630 530 686 q 507 538 530 575 q 448 475 484 501 q 278 419 372 419 q 102 474 184 419 z "},"":{"ha":437,"x_min":68,"x_max":369,"o":"m 115 817 q 86 807 96 807 q 72 813 77 807 q 68 826 68 819 q 79 846 68 833 l 188 981 q 248 1042 227 1029 q 307 1059 279 1059 q 352 1043 334 1059 q 369 1010 369 1028 q 366 980 369 991 q 353 955 362 968 q 277 900 330 926 l 115 817 z "},"":{"ha":1039,"x_min":51,"x_max":952,"o":"m 308 39 q 281 -92 281 -46 q 287 -153 281 -137 q 302 -182 293 -170 q 323 -205 311 -195 l 348 -226 q 389 -300 389 -261 q 374 -338 389 -326 q 321 -359 348 -359 q 270 -346 294 -359 q 227 -297 245 -333 q 184 -29 184 -217 l 184 451 q 173 605 184 578 q 145 637 161 632 q 111 642 129 642 l 73 637 q 51 654 51 637 q 114 686 51 686 l 218 680 q 235 681 227 680 l 252 682 q 287 684 270 684 q 313 681 304 684 q 327 666 321 677 q 336 586 336 646 l 336 250 q 391 113 336 169 q 523 58 445 58 q 667 108 602 58 l 667 450 q 655 605 667 578 q 628 637 644 632 q 593 642 612 642 l 555 637 q 534 654 534 637 q 597 686 534 686 l 701 680 q 718 681 709 680 l 734 682 q 770 684 753 684 q 796 681 787 684 q 810 666 804 677 q 819 585 819 645 l 819 234 q 830 79 819 106 q 858 47 842 52 q 892 43 874 43 l 930 47 q 952 31 952 47 q 889 -2 952 -2 l 785 4 q 768 3 777 4 l 751 2 q 711 0 733 0 q 671 41 681 0 q 489 -16 591 -16 q 308 39 387 -16 z "},"":{"ha":1042,"x_min":111,"x_max":965,"o":"m 429 -2 q 366 30 366 -2 q 387 47 366 47 l 439 42 q 503 78 488 42 q 517 233 517 113 l 517 529 q 418 519 473 519 q 304 537 363 519 q 203 590 246 555 q 111 794 111 665 q 187 970 111 899 q 431 1052 273 1052 q 536 1047 514 1052 q 597 1038 572 1038 l 597 0 q 562 1 574 0 q 527 4 538 4 l 429 -2 m 943 999 l 899 1004 q 846 979 861 1004 q 823 901 825 942 q 821 832 821 861 l 821 0 l 741 0 l 741 1038 q 821 1042 798 1038 q 903 1048 865 1048 q 952 1038 940 1048 q 965 1017 965 1028 q 943 999 965 999 z "},"":{"ha":347,"x_min":62,"x_max":284,"o":"m 89 351 q 82 359 89 351 q 69 386 75 367 q 62 424 62 404 q 71 464 62 444 q 94 500 79 484 q 176 534 126 534 q 258 496 227 534 q 284 419 284 463 q 254 350 284 381 q 182 315 220 315 q 123 326 144 315 q 89 351 102 336 z "},"":{"ha":454,"x_min":68,"x_max":387,"o":"m 245 7 l 214 -134 q 221 -133 218 -133 l 229 -133 q 338 -161 293 -133 q 387 -237 387 -191 q 331 -324 387 -288 q 207 -359 276 -359 q 83 -321 125 -359 q 68 -292 68 -308 q 77 -265 68 -276 q 102 -254 86 -254 q 153 -277 127 -254 q 229 -314 194 -314 q 280 -298 264 -314 q 296 -252 296 -283 q 272 -200 296 -221 q 218 -180 249 -180 q 141 -191 170 -180 l 182 16 l 245 7 z "},"":{"ha":467,"x_min":75,"x_max":413,"o":"m 357 466 l 393 471 q 408 465 403 471 q 413 452 413 460 q 403 436 413 444 q 374 429 393 429 q 310 431 341 429 l 278 434 q 247 435 262 435 q 216 434 231 435 l 185 431 q 128 429 154 429 q 82 454 82 429 q 87 465 82 460 q 102 471 92 471 l 138 466 q 166 479 158 466 q 182 570 182 509 l 182 817 q 174 893 182 868 q 143 918 165 918 l 91 907 q 79 912 84 907 q 75 924 75 917 q 119 960 75 943 q 271 1040 209 992 q 304 1061 298 1061 q 318 1048 318 1061 q 317 1029 318 1039 q 315 1005 316 1019 q 313 930 313 985 l 313 570 q 357 466 313 466 z "},"":{"ha":768,"x_min":88,"x_max":680,"o":"m 381 500 q 247 526 304 500 q 155 591 189 551 q 88 779 88 668 q 174 976 88 894 q 385 1059 262 1059 q 609 972 528 1059 q 680 789 680 898 q 605 583 680 663 q 381 500 525 500 m 291 633 q 303 615 291 633 q 348 577 316 597 q 410 557 380 557 q 459 568 439 557 q 495 599 480 578 q 528 722 528 644 q 514 851 528 800 q 476 936 500 903 q 358 1001 429 1001 q 267 951 299 1001 q 236 835 236 904 q 251 718 236 766 q 291 633 266 669 z "},"":{"ha":774,"x_min":68,"x_max":720,"o":"m 373 324 q 389 333 373 324 q 410 345 406 341 q 415 355 415 349 q 394 374 415 363 q 338 410 374 385 q 264 467 303 434 q 117 614 171 543 l 102 633 q 80 652 88 652 q 68 633 68 652 q 80 583 68 614 q 114 513 92 551 q 232 355 163 425 q 114 197 163 285 q 68 86 68 115 q 80 57 68 57 q 98 71 88 57 l 117 96 q 264 243 171 166 q 373 324 341 307 m 679 324 q 695 333 679 324 q 715 345 711 341 q 720 355 720 349 q 700 374 720 363 q 644 410 679 385 q 569 467 608 434 q 422 614 476 543 l 408 633 q 385 652 393 652 q 373 633 373 652 q 385 583 373 614 q 419 513 397 551 q 537 355 469 425 q 419 197 469 285 q 373 86 373 115 q 385 57 373 57 q 403 71 393 57 l 422 96 q 569 243 476 166 q 679 324 646 307 z "},"":{"ha":1377,"x_min":75,"x_max":1290,"o":"m 283 -16 q 277 -16 283 -16 q 261 -6 271 -16 q 251 15 251 3 q 253 33 251 26 q 260 49 255 40 q 275 71 266 58 l 998 999 q 1057 1057 1038 1050 q 1074 1059 1063 1059 q 1097 1049 1086 1059 q 1108 1027 1108 1040 q 1075 961 1108 1004 l 351 30 q 308 -13 319 -9 q 283 -16 296 -16 m 757 174 q 722 189 722 174 q 743 225 722 202 l 1090 615 q 1128 643 1116 643 q 1140 611 1140 643 l 1140 247 l 1181 247 q 1261 270 1229 247 q 1279 279 1272 279 q 1290 269 1290 279 q 1284 256 1290 264 q 1275 242 1279 249 q 1265 225 1270 235 q 1249 191 1252 202 q 1221 174 1242 174 l 1140 174 l 1140 142 q 1184 37 1140 37 l 1221 42 q 1235 37 1230 42 q 1240 23 1240 31 q 1230 8 1240 16 q 1202 0 1220 0 q 1137 3 1168 0 l 1105 5 q 1074 7 1090 7 q 1043 5 1059 7 l 1013 3 q 922 6 935 -4 q 909 23 909 16 q 929 42 909 42 l 966 37 q 994 51 985 37 q 1013 142 1013 86 l 1013 174 l 757 174 m 1013 247 l 1013 458 l 829 247 l 1013 247 m 357 466 l 393 471 q 408 465 403 471 q 413 452 413 460 q 403 436 413 444 q 374 429 393 429 q 310 431 341 429 l 278 434 q 247 435 262 435 q 216 434 231 435 l 185 431 q 128 429 154 429 q 82 454 82 429 q 87 465 82 460 q 102 471 92 471 l 138 466 q 166 479 158 466 q 182 570 182 509 l 182 817 q 174 893 182 868 q 143 918 165 918 l 91 907 q 79 912 84 907 q 75 924 75 917 q 119 960 75 943 q 271 1040 209 992 q 304 1061 298 1061 q 318 1048 318 1061 q 317 1029 318 1039 q 315 1005 316 1019 q 313 930 313 985 l 313 570 q 357 466 313 466 z "},"":{"ha":1412,"x_min":75,"x_max":1337,"o":"m 283 -16 q 277 -16 283 -16 q 261 -6 271 -16 q 251 15 251 3 q 253 33 251 26 q 260 49 255 40 q 275 71 266 58 l 998 999 q 1057 1057 1038 1050 q 1074 1059 1063 1059 q 1097 1049 1086 1059 q 1108 1027 1108 1040 q 1075 961 1108 1004 l 351 30 q 308 -13 319 -9 q 283 -16 296 -16 m 357 466 l 393 471 q 408 465 403 471 q 413 452 413 460 q 403 436 413 444 q 374 429 393 429 q 310 431 341 429 l 278 434 q 247 435 262 435 q 216 434 231 435 l 185 431 q 128 429 154 429 q 82 454 82 429 q 87 465 82 460 q 102 471 92 471 l 138 466 q 166 479 158 466 q 182 570 182 509 l 182 817 q 174 893 182 868 q 143 918 165 918 l 91 907 q 79 912 84 907 q 75 924 75 917 q 119 960 75 943 q 271 1040 209 992 q 304 1061 298 1061 q 318 1048 318 1061 q 317 1029 318 1039 q 315 1005 316 1019 q 313 930 313 985 l 313 570 q 357 466 313 466 m 1300 153 q 1308 161 1300 153 q 1326 169 1316 169 q 1337 157 1337 169 q 1329 129 1337 149 q 1314 95 1320 109 q 1304 67 1309 81 q 1296 37 1300 53 l 1287 0 l 912 0 q 892 22 892 0 q 899 71 892 44 q 925 129 905 97 q 1070 291 966 198 q 1163 384 1141 354 q 1198 461 1198 432 q 1191 510 1198 491 q 1171 542 1184 528 q 1093 570 1142 570 q 976 507 1021 570 q 950 453 960 484 q 928 422 941 422 q 911 450 911 422 l 911 561 q 1061 625 968 608 q 1128 630 1088 630 q 1207 618 1167 630 q 1275 587 1247 607 q 1330 480 1330 546 q 1234 328 1330 412 q 1147 259 1202 301 q 1001 103 1038 177 l 1126 103 q 1267 126 1227 103 q 1300 153 1284 136 z "},"":{"ha":1399,"x_min":102,"x_max":1324,"o":"m 319 -16 q 312 -16 319 -16 q 296 -6 306 -16 q 286 15 286 3 q 288 33 286 26 q 296 49 290 40 q 311 71 301 58 l 1034 999 q 1092 1057 1073 1050 q 1109 1059 1098 1059 q 1132 1049 1121 1059 q 1143 1027 1143 1040 q 1110 961 1143 1004 l 386 30 q 343 -13 355 -9 q 319 -16 332 -16 m 791 174 q 756 189 756 174 q 777 225 756 202 l 1125 615 q 1162 643 1150 643 q 1175 611 1175 643 l 1175 247 l 1215 247 q 1295 270 1263 247 q 1314 279 1308 279 q 1324 269 1324 279 q 1319 256 1324 264 q 1309 242 1314 249 q 1299 225 1305 235 q 1283 191 1286 202 q 1256 174 1277 174 l 1175 174 l 1175 142 q 1219 37 1175 37 l 1255 42 q 1270 37 1265 42 q 1275 23 1275 31 q 1265 8 1275 16 q 1236 0 1255 0 q 1172 3 1203 0 l 1141 5 q 1109 7 1124 7 q 1078 5 1093 7 l 1047 3 q 957 6 970 -4 q 944 23 944 16 q 964 42 944 42 l 1000 37 q 1028 51 1020 37 q 1048 142 1048 86 l 1048 174 l 791 174 m 1048 247 l 1048 458 l 863 247 l 1048 247 m 102 474 l 102 585 q 119 612 102 612 q 140 586 132 612 q 162 541 147 560 q 197 509 176 522 q 277 481 238 481 q 338 491 317 481 q 374 515 359 500 q 403 583 403 545 q 394 649 403 621 q 368 699 385 677 q 274 745 332 745 l 223 736 q 205 752 205 736 q 245 784 205 768 q 305 815 286 801 q 339 845 325 829 q 368 916 368 880 q 344 975 368 953 q 277 997 320 997 q 199 969 233 997 q 154 903 165 941 q 129 865 142 865 q 112 892 112 865 l 112 1004 q 302 1059 193 1059 q 484 983 437 1059 q 499 932 499 959 q 489 886 499 906 q 461 846 479 865 q 370 786 424 808 q 481 732 437 774 q 530 630 530 686 q 507 538 530 575 q 448 475 484 501 q 278 419 372 419 q 102 474 184 419 z "},"":{"ha":701,"x_min":68,"x_max":613,"o":"m 315 367 q 359 399 315 399 q 412 380 392 399 q 448 298 448 345 q 321 53 448 200 q 227 -155 227 -58 q 374 -286 227 -286 q 490 -243 439 -286 q 562 -113 540 -200 q 573 -88 565 -100 q 591 -75 581 -75 q 613 -104 613 -75 l 613 -292 q 356 -359 491 -359 q 136 -302 213 -359 q 68 -162 68 -250 q 176 57 68 -49 q 269 138 214 94 q 388 300 388 236 q 377 324 388 314 q 350 336 366 333 q 325 345 335 338 q 315 367 315 351 m 443 685 q 448 678 443 685 q 460 655 454 671 q 465 622 465 639 q 458 588 465 605 q 438 557 451 570 q 377 528 410 528 q 326 536 344 528 q 297 559 309 545 q 274 617 274 588 q 282 662 274 646 q 302 691 290 679 q 363 715 330 715 q 413 707 395 715 q 443 685 431 698 z "},"":{"ha":1158,"x_min":-18,"x_max":1177,"o":"m 129 10 l 34 0 q -6 9 7 0 q -18 31 -18 18 q 4 50 -18 50 l 37 45 q 88 71 68 45 q 181 241 125 118 q 539 1015 528 992 q 557 1048 550 1037 q 581 1065 569 1065 q 605 1048 593 1065 q 654 952 623 1021 l 1008 180 q 1096 51 1058 70 q 1121 45 1108 45 l 1154 50 q 1177 31 1177 50 q 1122 0 1177 0 l 991 10 l 825 0 q 775 10 790 0 q 761 31 761 20 q 783 50 761 50 l 831 43 q 859 48 850 43 q 868 66 868 54 q 867 87 868 79 q 863 107 865 96 q 840 163 857 127 l 788 272 q 766 300 778 294 q 712 312 747 312 l 361 312 q 295 288 311 312 q 285 268 290 279 l 252 189 q 214 79 214 100 q 267 45 214 45 l 300 50 q 321 31 321 50 q 257 0 321 0 q 196 3 219 0 q 129 10 150 10 m 342 392 q 418 371 342 371 l 651 371 q 726 382 716 371 q 729 392 729 387 q 724 410 729 397 l 574 774 q 534 839 547 839 q 506 798 523 839 l 351 422 q 342 392 342 403 m 713 1122 q 682 1133 701 1122 l 521 1215 q 433 1293 446 1253 q 429 1324 429 1305 q 446 1359 429 1343 q 482 1374 463 1374 q 515 1371 501 1374 q 544 1359 529 1367 q 610 1297 572 1342 l 718 1162 q 730 1141 730 1148 q 713 1122 730 1122 z "},"":{"ha":1158,"x_min":-18,"x_max":1177,"o":"m 129 10 l 34 0 q -6 9 7 0 q -18 31 -18 18 q 4 50 -18 50 l 37 45 q 88 71 68 45 q 181 241 125 118 q 539 1015 528 992 q 557 1048 550 1037 q 581 1065 569 1065 q 605 1048 593 1065 q 654 952 623 1021 l 1008 180 q 1096 51 1058 70 q 1121 45 1108 45 l 1154 50 q 1177 31 1177 50 q 1122 0 1177 0 l 991 10 l 825 0 q 775 10 790 0 q 761 31 761 20 q 783 50 761 50 l 831 43 q 859 48 850 43 q 868 66 868 54 q 867 87 868 79 q 863 107 865 96 q 840 163 857 127 l 788 272 q 766 300 778 294 q 712 312 747 312 l 361 312 q 295 288 311 312 q 285 268 290 279 l 252 189 q 214 79 214 100 q 267 45 214 45 l 300 50 q 321 31 321 50 q 257 0 321 0 q 196 3 219 0 q 129 10 150 10 m 342 392 q 418 371 342 371 l 651 371 q 726 382 716 371 q 729 392 729 387 q 724 410 729 397 l 574 774 q 534 839 547 839 q 506 798 523 839 l 351 422 q 342 392 342 403 m 476 1133 q 447 1122 457 1122 q 433 1128 437 1122 q 429 1141 429 1134 q 440 1162 429 1148 l 549 1297 q 643 1371 601 1362 q 676 1374 656 1374 q 712 1359 695 1374 q 730 1316 730 1343 q 709 1265 730 1289 q 637 1215 688 1241 l 476 1133 z "},"":{"ha":1158,"x_min":-18,"x_max":1177,"o":"m 129 10 l 34 0 q -6 9 7 0 q -18 31 -18 18 q 4 50 -18 50 l 37 45 q 88 71 68 45 q 181 241 125 118 q 539 1015 528 992 q 557 1048 550 1037 q 581 1065 569 1065 q 605 1048 593 1065 q 654 952 623 1021 l 1008 180 q 1096 51 1058 70 q 1121 45 1108 45 l 1154 50 q 1177 31 1177 50 q 1122 0 1177 0 l 991 10 l 825 0 q 775 10 790 0 q 761 31 761 20 q 783 50 761 50 l 831 43 q 859 48 850 43 q 868 66 868 54 q 867 87 868 79 q 863 107 865 96 q 840 163 857 127 l 788 272 q 766 300 778 294 q 712 312 747 312 l 361 312 q 295 288 311 312 q 285 268 290 279 l 252 189 q 214 79 214 100 q 267 45 214 45 l 300 50 q 321 31 321 50 q 257 0 321 0 q 196 3 219 0 q 129 10 150 10 m 342 392 q 418 371 342 371 l 651 371 q 726 382 716 371 q 729 392 729 387 q 724 410 729 397 l 574 774 q 534 839 547 839 q 506 798 523 839 l 351 422 q 342 392 342 403 m 401 1126 q 368 1112 380 1112 q 352 1118 356 1112 q 347 1129 347 1124 q 359 1156 347 1143 l 507 1324 q 559 1373 547 1369 q 581 1377 570 1377 q 651 1324 605 1377 l 800 1156 q 811 1129 811 1143 q 807 1118 811 1124 q 795 1112 803 1112 q 757 1126 779 1112 l 578 1241 l 401 1126 z "},"":{"ha":1158,"x_min":-18,"x_max":1177,"o":"m 129 10 l 34 0 q -6 9 7 0 q -18 31 -18 18 q 4 50 -18 50 l 37 45 q 88 71 68 45 q 181 241 125 118 q 539 1015 528 992 q 557 1048 550 1037 q 581 1065 569 1065 q 605 1048 593 1065 q 654 952 623 1021 l 1008 180 q 1096 51 1058 70 q 1121 45 1108 45 l 1154 50 q 1177 31 1177 50 q 1122 0 1177 0 l 991 10 l 825 0 q 775 10 790 0 q 761 31 761 20 q 783 50 761 50 l 831 43 q 859 48 850 43 q 868 66 868 54 q 867 87 868 79 q 863 107 865 96 q 840 163 857 127 l 788 272 q 766 300 778 294 q 712 312 747 312 l 361 312 q 295 288 311 312 q 285 268 290 279 l 252 189 q 214 79 214 100 q 267 45 214 45 l 300 50 q 321 31 321 50 q 257 0 321 0 q 196 3 219 0 q 129 10 150 10 m 342 392 q 418 371 342 371 l 651 371 q 726 382 716 371 q 729 392 729 387 q 724 410 729 397 l 574 774 q 534 839 547 839 q 506 798 523 839 l 351 422 q 342 392 342 403 m 821 1320 q 836 1305 836 1320 q 832 1276 836 1289 q 820 1248 827 1262 q 728 1153 782 1179 q 681 1143 709 1143 q 549 1182 637 1143 q 442 1215 468 1215 q 401 1204 416 1215 q 372 1175 385 1193 q 338 1144 351 1144 q 322 1164 322 1144 q 379 1272 322 1212 q 488 1322 426 1322 q 616 1286 545 1322 q 701 1252 680 1255 q 732 1249 722 1249 q 788 1293 758 1249 q 821 1320 807 1320 z "},"":{"ha":1158,"x_min":-18,"x_max":1177,"o":"m 129 10 l 34 0 q -6 9 7 0 q -18 31 -18 18 q 4 50 -18 50 l 37 45 q 88 71 68 45 q 181 241 125 118 q 539 1015 528 992 q 557 1048 550 1037 q 581 1065 569 1065 q 605 1048 593 1065 q 654 952 623 1021 l 1008 180 q 1096 51 1058 70 q 1121 45 1108 45 l 1154 50 q 1177 31 1177 50 q 1122 0 1177 0 l 991 10 l 825 0 q 775 10 790 0 q 761 31 761 20 q 783 50 761 50 l 831 43 q 859 48 850 43 q 868 66 868 54 q 867 87 868 79 q 863 107 865 96 q 840 163 857 127 l 788 272 q 766 300 778 294 q 712 312 747 312 l 361 312 q 295 288 311 312 q 285 268 290 279 l 252 189 q 214 79 214 100 q 267 45 214 45 l 300 50 q 321 31 321 50 q 257 0 321 0 q 196 3 219 0 q 129 10 150 10 m 342 392 q 418 371 342 371 l 651 371 q 726 382 716 371 q 729 392 729 387 q 724 410 729 397 l 574 774 q 534 839 547 839 q 506 798 523 839 l 351 422 q 342 392 342 403 m 848 1174 q 841 1167 848 1174 q 817 1151 835 1160 q 774 1143 798 1143 q 731 1152 749 1143 q 701 1175 712 1160 q 677 1233 677 1202 q 685 1283 677 1264 q 705 1315 692 1301 q 768 1344 733 1344 q 821 1335 802 1344 q 851 1312 839 1326 q 875 1253 875 1284 q 868 1205 875 1223 q 848 1174 861 1187 m 454 1174 q 448 1167 454 1174 q 423 1151 441 1160 q 380 1143 405 1143 q 337 1152 356 1143 q 307 1175 319 1160 q 284 1233 284 1202 q 291 1283 284 1264 q 311 1315 298 1301 q 374 1344 340 1344 q 427 1335 409 1344 q 458 1312 446 1326 q 481 1253 481 1284 q 474 1205 481 1223 q 454 1174 467 1187 z "},"":{"ha":1158,"x_min":-18,"x_max":1177,"o":"m 129 10 l 34 0 q -6 9 7 0 q -18 31 -18 18 q 4 50 -18 50 l 37 45 q 88 71 68 45 q 181 241 125 118 q 539 1015 528 992 q 557 1048 550 1037 q 581 1065 569 1065 q 605 1048 593 1065 q 654 952 623 1021 l 1008 180 q 1096 51 1058 70 q 1121 45 1108 45 l 1154 50 q 1177 31 1177 50 q 1122 0 1177 0 l 991 10 l 825 0 q 775 10 790 0 q 761 31 761 20 q 783 50 761 50 l 831 43 q 859 48 850 43 q 868 66 868 54 q 867 87 868 79 q 863 107 865 96 q 840 163 857 127 l 788 272 q 766 300 778 294 q 712 312 747 312 l 361 312 q 295 288 311 312 q 285 268 290 279 l 252 189 q 214 79 214 100 q 267 45 214 45 l 300 50 q 321 31 321 50 q 257 0 321 0 q 196 3 219 0 q 129 10 150 10 m 342 392 q 418 371 342 371 l 651 371 q 726 382 716 371 q 729 392 729 387 q 724 410 729 397 l 574 774 q 534 839 547 839 q 506 798 523 839 l 351 422 q 342 392 342 403 m 580 1036 q 511 1048 543 1036 q 455 1082 479 1060 q 404 1202 404 1129 q 455 1322 404 1274 q 580 1370 507 1370 q 704 1322 652 1370 q 755 1202 755 1274 q 703 1082 755 1130 q 580 1036 654 1036 m 578 1099 q 671 1158 646 1099 q 680 1200 680 1177 q 672 1242 680 1223 q 651 1275 665 1261 q 589 1305 623 1305 q 536 1297 555 1305 q 504 1274 517 1289 q 477 1202 477 1245 q 507 1129 477 1160 q 578 1099 536 1099 z "},"":{"ha":1510,"x_min":-20,"x_max":1512,"o":"m 354 35 q 283 0 354 0 q 224 3 247 0 q 158 10 178 10 q 129 10 138 10 q 108 9 119 9 q 88 7 98 8 l 73 5 q -4 5 12 -7 q -20 27 -20 16 q 6 50 -20 50 l 38 45 q 104 72 71 45 q 250 241 166 123 l 696 871 q 743 967 743 937 q 708 991 743 990 q 687 991 698 991 l 654 987 q 631 1006 631 987 q 644 1026 631 1017 q 686 1036 656 1036 q 733 1035 716 1036 l 766 1032 q 810 1029 782 1029 l 856 1027 q 889 1026 873 1026 l 1393 1026 q 1416 920 1398 978 q 1447 804 1447 820 q 1436 787 1447 787 q 1417 800 1427 787 q 1318 906 1336 891 q 1284 930 1299 921 q 1252 946 1270 939 q 1160 960 1215 960 l 979 960 q 927 944 941 960 q 913 897 913 928 l 913 610 q 975 571 913 571 l 1141 571 q 1230 618 1190 571 q 1250 650 1244 635 q 1260 671 1257 665 q 1270 676 1264 676 q 1288 642 1288 676 l 1282 534 l 1288 428 q 1270 394 1288 394 q 1252 414 1261 394 q 1230 452 1244 435 q 1200 481 1216 470 q 1141 505 1169 505 l 975 505 q 929 492 945 505 q 913 460 913 479 l 913 160 q 979 66 913 66 l 1120 66 q 1390 157 1284 66 q 1426 191 1409 174 l 1459 225 q 1497 250 1483 250 q 1512 240 1512 250 q 1492 189 1512 222 q 1461 135 1473 157 q 1440 93 1450 114 q 1423 49 1431 71 l 1406 0 l 850 0 q 763 -3 785 0 q 681 -10 718 -10 q 631 0 644 -10 q 618 21 618 10 q 641 39 618 39 l 684 35 q 737 59 723 35 q 763 252 763 105 l 763 312 l 456 312 q 387 287 408 312 q 372 268 380 279 l 318 189 q 254 73 254 96 q 301 45 254 45 l 336 50 q 354 35 354 50 m 451 389 q 486 371 451 371 l 763 371 l 763 853 l 465 422 q 451 389 451 401 z "},"":{"ha":1158,"x_min":101,"x_max":1061,"o":"m 649 -16 q 592 -13 621 -16 l 565 -134 q 572 -133 569 -133 l 580 -133 q 690 -161 644 -133 q 738 -237 738 -191 q 682 -324 738 -288 q 558 -359 627 -359 q 434 -321 476 -359 q 419 -292 419 -308 q 428 -265 419 -276 q 453 -254 437 -254 q 504 -277 478 -254 q 581 -314 545 -314 q 631 -298 616 -314 q 647 -252 647 -283 q 624 -200 647 -221 q 569 -180 600 -180 q 492 -191 522 -180 l 528 -5 q 215 168 331 30 q 101 494 101 304 q 259 903 101 743 q 496 1040 358 1003 q 621 1059 564 1059 q 711 1054 677 1059 q 772 1041 745 1048 q 844 1017 814 1029 q 899 999 888 999 q 942 1021 920 999 l 971 1050 q 999 1069 990 1069 q 1016 1041 1016 1069 q 1017 992 1016 1013 q 1021 954 1018 972 q 1038 869 1027 909 l 1054 806 q 1061 767 1061 783 q 1044 739 1061 739 q 1023 754 1031 739 q 857 928 967 863 q 633 992 749 992 q 359 882 470 992 q 247 595 247 769 q 284 384 247 481 q 384 215 321 286 q 532 103 448 143 q 712 62 616 62 q 963 202 872 62 q 1015 329 996 254 q 1025 358 1020 347 q 1043 369 1030 369 q 1056 329 1056 369 l 1056 137 q 649 -16 895 -16 z "},"":{"ha":927,"x_min":35,"x_max":928,"o":"m 330 160 q 396 66 330 66 l 536 66 q 806 157 701 66 q 842 191 825 174 l 876 225 q 914 250 900 250 q 928 240 928 250 q 909 189 928 222 q 878 135 890 157 q 857 93 867 114 q 840 49 848 71 l 823 0 l 267 0 q 180 -3 202 0 q 98 -10 135 -10 q 48 0 60 -10 q 35 21 35 10 q 58 39 35 39 l 101 35 q 154 58 140 35 q 180 218 180 104 l 180 810 q 170 920 180 894 q 153 962 161 947 q 91 991 137 991 l 58 987 q 35 1006 35 987 q 48 1026 35 1017 q 90 1036 60 1036 q 137 1035 120 1036 l 170 1032 q 259 1026 222 1026 l 810 1026 q 833 920 815 978 q 864 804 864 820 q 853 787 864 787 q 833 800 844 787 q 734 906 753 891 q 701 930 716 921 q 669 946 686 939 q 577 960 632 960 l 396 960 q 344 944 358 960 q 330 897 330 928 l 330 610 q 392 571 330 571 l 558 571 q 647 618 607 571 q 667 650 661 635 q 677 671 673 665 q 687 676 681 676 q 705 642 705 676 l 699 534 l 705 428 q 687 394 705 394 q 669 414 677 394 q 647 452 661 435 q 617 481 633 470 q 558 505 586 505 l 391 505 q 346 492 362 505 q 330 460 330 479 l 330 160 m 616 1122 q 585 1133 604 1122 l 423 1215 q 335 1293 349 1253 q 331 1324 331 1305 q 348 1359 331 1343 q 385 1374 366 1374 q 417 1371 404 1374 q 446 1359 431 1367 q 512 1297 475 1342 l 621 1162 q 632 1141 632 1148 q 616 1122 632 1122 z "},"":{"ha":927,"x_min":35,"x_max":928,"o":"m 330 160 q 396 66 330 66 l 536 66 q 806 157 701 66 q 842 191 825 174 l 876 225 q 914 250 900 250 q 928 240 928 250 q 909 189 928 222 q 878 135 890 157 q 857 93 867 114 q 840 49 848 71 l 823 0 l 267 0 q 180 -3 202 0 q 98 -10 135 -10 q 48 0 60 -10 q 35 21 35 10 q 58 39 35 39 l 101 35 q 154 58 140 35 q 180 218 180 104 l 180 810 q 170 920 180 894 q 153 962 161 947 q 91 991 137 991 l 58 987 q 35 1006 35 987 q 48 1026 35 1017 q 90 1036 60 1036 q 137 1035 120 1036 l 170 1032 q 259 1026 222 1026 l 810 1026 q 833 920 815 978 q 864 804 864 820 q 853 787 864 787 q 833 800 844 787 q 734 906 753 891 q 701 930 716 921 q 669 946 686 939 q 577 960 632 960 l 396 960 q 344 944 358 960 q 330 897 330 928 l 330 610 q 392 571 330 571 l 558 571 q 647 618 607 571 q 667 650 661 635 q 677 671 673 665 q 687 676 681 676 q 705 642 705 676 l 699 534 l 705 428 q 687 394 705 394 q 669 414 677 394 q 647 452 661 435 q 617 481 633 470 q 558 505 586 505 l 391 505 q 346 492 362 505 q 330 460 330 479 l 330 160 m 378 1133 q 350 1122 359 1122 q 335 1128 340 1122 q 331 1141 331 1134 q 342 1162 331 1148 l 451 1297 q 545 1371 503 1362 q 578 1374 559 1374 q 615 1359 597 1374 q 632 1316 632 1343 q 611 1265 632 1289 q 540 1215 590 1241 l 378 1133 z "},"":{"ha":927,"x_min":35,"x_max":928,"o":"m 330 160 q 396 66 330 66 l 536 66 q 806 157 701 66 q 842 191 825 174 l 876 225 q 914 250 900 250 q 928 240 928 250 q 909 189 928 222 q 878 135 890 157 q 857 93 867 114 q 840 49 848 71 l 823 0 l 267 0 q 180 -3 202 0 q 98 -10 135 -10 q 48 0 60 -10 q 35 21 35 10 q 58 39 35 39 l 101 35 q 154 58 140 35 q 180 218 180 104 l 180 810 q 170 920 180 894 q 153 962 161 947 q 91 991 137 991 l 58 987 q 35 1006 35 987 q 48 1026 35 1017 q 90 1036 60 1036 q 137 1035 120 1036 l 170 1032 q 259 1026 222 1026 l 810 1026 q 833 920 815 978 q 864 804 864 820 q 853 787 864 787 q 833 800 844 787 q 734 906 753 891 q 701 930 716 921 q 669 946 686 939 q 577 960 632 960 l 396 960 q 344 944 358 960 q 330 897 330 928 l 330 610 q 392 571 330 571 l 558 571 q 647 618 607 571 q 667 650 661 635 q 677 671 673 665 q 687 676 681 676 q 705 642 705 676 l 699 534 l 705 428 q 687 394 705 394 q 669 414 677 394 q 647 452 661 435 q 617 481 633 470 q 558 505 586 505 l 391 505 q 346 492 362 505 q 330 460 330 479 l 330 160 m 304 1126 q 270 1112 282 1112 q 254 1118 258 1112 q 250 1129 250 1124 q 261 1156 250 1143 l 410 1324 q 461 1373 450 1369 q 483 1377 473 1377 q 553 1324 507 1377 l 702 1156 q 713 1129 713 1143 q 709 1118 713 1124 q 698 1112 705 1112 q 659 1126 681 1112 l 481 1241 l 304 1126 z "},"":{"ha":927,"x_min":35,"x_max":928,"o":"m 330 160 q 396 66 330 66 l 536 66 q 806 157 701 66 q 842 191 825 174 l 876 225 q 914 250 900 250 q 928 240 928 250 q 909 189 928 222 q 878 135 890 157 q 857 93 867 114 q 840 49 848 71 l 823 0 l 267 0 q 180 -3 202 0 q 98 -10 135 -10 q 48 0 60 -10 q 35 21 35 10 q 58 39 35 39 l 101 35 q 154 58 140 35 q 180 218 180 104 l 180 810 q 170 920 180 894 q 153 962 161 947 q 91 991 137 991 l 58 987 q 35 1006 35 987 q 48 1026 35 1017 q 90 1036 60 1036 q 137 1035 120 1036 l 170 1032 q 259 1026 222 1026 l 810 1026 q 833 920 815 978 q 864 804 864 820 q 853 787 864 787 q 833 800 844 787 q 734 906 753 891 q 701 930 716 921 q 669 946 686 939 q 577 960 632 960 l 396 960 q 344 944 358 960 q 330 897 330 928 l 330 610 q 392 571 330 571 l 558 571 q 647 618 607 571 q 667 650 661 635 q 677 671 673 665 q 687 676 681 676 q 705 642 705 676 l 699 534 l 705 428 q 687 394 705 394 q 669 414 677 394 q 647 452 661 435 q 617 481 633 470 q 558 505 586 505 l 391 505 q 346 492 362 505 q 330 460 330 479 l 330 160 m 750 1174 q 744 1167 750 1174 q 719 1151 737 1160 q 676 1143 701 1143 q 633 1152 652 1143 q 603 1175 614 1160 q 580 1233 580 1202 q 587 1283 580 1264 q 607 1315 594 1301 q 670 1344 635 1344 q 723 1335 705 1344 q 753 1312 741 1326 q 777 1253 777 1284 q 770 1205 777 1223 q 750 1174 763 1187 m 357 1174 q 350 1167 357 1174 q 326 1151 344 1160 q 283 1143 307 1143 q 240 1152 258 1143 q 210 1175 221 1160 q 186 1233 186 1202 q 194 1283 186 1264 q 214 1315 201 1301 q 277 1344 242 1344 q 330 1335 311 1344 q 360 1312 348 1326 q 384 1253 384 1284 q 377 1205 384 1223 q 357 1174 370 1187 z "},"":{"ha":579,"x_min":70,"x_max":509,"o":"m 487 50 q 509 31 509 50 q 497 10 509 20 q 457 0 484 0 q 392 3 418 0 q 356 7 367 6 q 334 9 345 8 q 290 10 309 10 q 214 7 237 10 q 83 10 106 -9 q 70 31 70 20 q 92 50 70 50 l 136 45 q 189 69 174 45 q 212 148 210 106 q 214 218 214 189 l 214 819 q 205 929 214 903 q 189 967 195 955 q 136 991 174 991 l 92 987 q 70 1005 70 987 q 82 1026 70 1016 q 122 1036 95 1036 q 187 1033 161 1036 q 223 1029 212 1030 q 245 1027 234 1028 q 290 1026 270 1026 q 365 1029 342 1026 q 447 1036 410 1036 q 497 1026 484 1036 q 509 1005 509 1016 q 487 987 509 987 l 444 991 q 391 967 405 991 q 367 888 370 930 q 365 819 365 847 l 365 218 q 374 107 365 134 q 391 69 384 81 q 444 45 405 45 l 487 50 m 424 1122 q 393 1133 412 1122 l 231 1215 q 143 1293 157 1253 q 139 1324 139 1305 q 156 1359 139 1343 q 193 1374 174 1374 q 225 1371 212 1374 q 254 1359 239 1367 q 320 1297 283 1342 l 429 1162 q 440 1141 440 1148 q 424 1122 440 1122 z "},"":{"ha":579,"x_min":70,"x_max":509,"o":"m 487 50 q 509 31 509 50 q 497 10 509 20 q 457 0 484 0 q 392 3 418 0 q 356 7 367 6 q 334 9 345 8 q 290 10 309 10 q 214 7 237 10 q 83 10 106 -9 q 70 31 70 20 q 92 50 70 50 l 136 45 q 189 69 174 45 q 212 148 210 106 q 214 218 214 189 l 214 819 q 205 929 214 903 q 189 967 195 955 q 136 991 174 991 l 92 987 q 70 1005 70 987 q 82 1026 70 1016 q 122 1036 95 1036 q 187 1033 161 1036 q 223 1029 212 1030 q 245 1027 234 1028 q 290 1026 270 1026 q 365 1029 342 1026 q 447 1036 410 1036 q 497 1026 484 1036 q 509 1005 509 1016 q 487 987 509 987 l 444 991 q 391 967 405 991 q 367 888 370 930 q 365 819 365 847 l 365 218 q 374 107 365 134 q 391 69 384 81 q 444 45 405 45 l 487 50 m 186 1133 q 158 1122 168 1122 q 143 1128 148 1122 q 139 1141 139 1134 q 151 1162 139 1148 l 259 1297 q 353 1371 311 1362 q 386 1374 367 1374 q 423 1359 406 1374 q 440 1316 440 1343 q 419 1265 440 1289 q 348 1215 398 1241 l 186 1133 z "},"":{"ha":579,"x_min":58,"x_max":522,"o":"m 487 50 q 509 31 509 50 q 497 10 509 20 q 457 0 484 0 q 392 3 418 0 q 356 7 367 6 q 334 9 345 8 q 290 10 309 10 q 214 7 237 10 q 83 10 106 -9 q 70 31 70 20 q 92 50 70 50 l 136 45 q 189 69 174 45 q 212 148 210 106 q 214 218 214 189 l 214 819 q 205 929 214 903 q 189 967 195 955 q 136 991 174 991 l 92 987 q 70 1005 70 987 q 82 1026 70 1016 q 122 1036 95 1036 q 187 1033 161 1036 q 223 1029 212 1030 q 245 1027 234 1028 q 290 1026 270 1026 q 365 1029 342 1026 q 447 1036 410 1036 q 497 1026 484 1036 q 509 1005 509 1016 q 487 987 509 987 l 444 991 q 391 967 405 991 q 367 888 370 930 q 365 819 365 847 l 365 218 q 374 107 365 134 q 391 69 384 81 q 444 45 405 45 l 487 50 m 113 1126 q 79 1112 91 1112 q 63 1118 67 1112 q 58 1129 58 1124 q 70 1156 58 1143 l 218 1324 q 270 1373 258 1369 q 292 1377 281 1377 q 362 1324 316 1377 l 511 1156 q 522 1129 522 1143 q 518 1118 522 1124 q 507 1112 514 1112 q 468 1126 490 1112 l 290 1241 l 113 1126 z "},"":{"ha":579,"x_min":-5,"x_max":586,"o":"m 487 50 q 509 31 509 50 q 497 10 509 20 q 457 0 484 0 q 392 3 418 0 q 356 7 367 6 q 334 9 345 8 q 290 10 309 10 q 214 7 237 10 q 83 10 106 -9 q 70 31 70 20 q 92 50 70 50 l 136 45 q 189 69 174 45 q 212 148 210 106 q 214 218 214 189 l 214 819 q 205 929 214 903 q 189 967 195 955 q 136 991 174 991 l 92 987 q 70 1005 70 987 q 82 1026 70 1016 q 122 1036 95 1036 q 187 1033 161 1036 q 223 1029 212 1030 q 245 1027 234 1028 q 290 1026 270 1026 q 365 1029 342 1026 q 447 1036 410 1036 q 497 1026 484 1036 q 509 1005 509 1016 q 487 987 509 987 l 444 991 q 391 967 405 991 q 367 888 370 930 q 365 819 365 847 l 365 218 q 374 107 365 134 q 391 69 384 81 q 444 45 405 45 l 487 50 m 559 1174 q 552 1167 559 1174 q 528 1151 546 1160 q 485 1143 509 1143 q 442 1152 460 1143 q 412 1175 423 1160 q 389 1233 389 1202 q 396 1283 389 1264 q 416 1315 403 1301 q 479 1344 444 1344 q 532 1335 513 1344 q 562 1312 550 1326 q 586 1253 586 1284 q 579 1205 586 1223 q 559 1174 572 1187 m 165 1174 q 159 1167 165 1174 q 134 1151 153 1160 q 92 1143 116 1143 q 48 1152 67 1143 q 18 1175 30 1160 q -5 1233 -5 1202 q 2 1283 -5 1264 q 22 1315 9 1301 q 85 1344 51 1344 q 138 1335 120 1344 q 169 1312 157 1326 q 193 1253 193 1284 q 185 1205 193 1223 q 165 1174 178 1187 z "},"":{"ha":1275,"x_min":68,"x_max":1197,"o":"m 123 991 l 90 987 q 68 1006 68 987 q 80 1026 68 1017 q 123 1036 93 1036 q 170 1035 153 1036 l 202 1032 q 294 1027 249 1027 q 429 1034 362 1027 q 614 1046 549 1046 q 1038 903 878 1046 q 1197 522 1197 761 q 1021 136 1197 290 q 591 -16 847 -16 q 495 -11 535 -16 l 422 -1 q 316 10 348 10 q 271 10 283 10 q 247 9 259 9 q 203 5 217 7 q 80 10 104 -9 q 68 31 68 20 q 90 50 68 50 l 134 45 q 186 69 172 45 q 210 148 208 106 q 212 218 212 189 l 212 489 l 129 489 q 94 495 107 489 q 80 524 80 501 q 94 550 80 546 q 131 555 108 555 l 212 555 l 212 810 q 203 920 212 894 q 186 962 193 947 q 123 991 170 991 m 366 889 l 366 555 l 606 555 q 652 538 644 555 q 656 515 656 532 q 606 489 656 489 l 366 489 l 366 162 q 410 77 366 101 q 574 52 458 52 q 772 77 690 52 q 912 156 855 102 q 1029 507 1029 269 q 905 862 1029 740 q 575 980 784 980 q 366 889 366 980 z "},"":{"ha":1272,"x_min":56,"x_max":1227,"o":"m 409 0 l 281 10 q 236 7 263 10 q 99 31 99 -12 q 121 50 99 50 l 165 45 q 218 69 203 45 q 241 148 239 106 q 243 218 243 189 l 244 782 q 227 851 244 815 q 199 902 210 887 q 176 931 189 917 q 148 958 163 945 q 92 994 114 986 q 56 1022 56 1007 q 92 1036 56 1036 l 301 1029 l 1006 283 l 1006 814 q 997 924 1006 898 q 981 963 987 950 q 928 987 966 987 l 878 982 q 856 1000 856 982 q 869 1021 856 1011 q 917 1031 882 1031 l 1044 1021 q 1090 1025 1063 1021 q 1169 1031 1137 1031 q 1214 1021 1202 1031 q 1227 1000 1227 1011 q 1204 982 1227 982 l 1161 987 q 1108 962 1122 987 q 1085 884 1087 925 q 1082 814 1082 842 l 1082 123 q 1097 14 1082 41 q 1112 -4 1103 4 q 1126 -28 1126 -16 q 1106 -44 1126 -44 q 1034 5 1080 -44 l 319 769 l 319 218 q 329 107 319 134 q 346 69 338 81 q 398 45 359 45 l 448 50 q 470 31 470 50 q 457 10 470 20 q 409 0 444 0 m 882 1320 q 898 1305 898 1320 q 893 1276 898 1289 q 882 1248 889 1262 q 790 1153 844 1179 q 743 1143 770 1143 q 610 1182 699 1143 q 504 1215 530 1215 q 463 1204 478 1215 q 434 1175 447 1193 q 399 1144 413 1144 q 384 1164 384 1144 q 441 1272 384 1212 q 549 1322 488 1322 q 678 1286 606 1322 q 763 1252 742 1255 q 794 1249 784 1249 q 850 1293 820 1249 q 882 1320 869 1320 z "},"":{"ha":1275,"x_min":90,"x_max":1185,"o":"m 90 498 q 129 719 90 616 q 241 898 168 823 q 655 1059 398 1059 q 928 985 804 1059 q 1116 795 1047 915 q 1185 533 1185 674 q 1019 127 1185 278 q 630 -16 862 -16 q 237 125 385 -16 q 90 498 90 266 m 231 603 q 302 312 231 441 q 480 127 369 194 q 707 62 588 62 q 932 157 844 62 q 1028 439 1028 260 q 964 718 1028 588 q 800 911 904 838 q 580 984 696 984 q 332 878 431 984 q 231 603 231 768 m 772 1122 q 741 1133 760 1122 l 579 1215 q 491 1293 505 1253 q 487 1324 487 1305 q 504 1359 487 1343 q 541 1374 522 1374 q 573 1371 559 1374 q 602 1359 587 1367 q 668 1297 631 1342 l 777 1162 q 788 1141 788 1148 q 772 1122 788 1122 z "},"":{"ha":1275,"x_min":90,"x_max":1185,"o":"m 90 498 q 129 719 90 616 q 241 898 168 823 q 655 1059 398 1059 q 928 985 804 1059 q 1116 795 1047 915 q 1185 533 1185 674 q 1019 127 1185 278 q 630 -16 862 -16 q 237 125 385 -16 q 90 498 90 266 m 231 603 q 302 312 231 441 q 480 127 369 194 q 707 62 588 62 q 932 157 844 62 q 1028 439 1028 260 q 964 718 1028 588 q 800 911 904 838 q 580 984 696 984 q 332 878 431 984 q 231 603 231 768 m 534 1133 q 506 1122 515 1122 q 491 1128 496 1122 q 487 1141 487 1134 q 498 1162 487 1148 l 607 1297 q 701 1371 659 1362 q 734 1374 715 1374 q 771 1359 753 1374 q 788 1316 788 1343 q 767 1265 788 1289 q 696 1215 746 1241 l 534 1133 z "},"":{"ha":1275,"x_min":90,"x_max":1185,"o":"m 90 498 q 129 719 90 616 q 241 898 168 823 q 655 1059 398 1059 q 928 985 804 1059 q 1116 795 1047 915 q 1185 533 1185 674 q 1019 127 1185 278 q 630 -16 862 -16 q 237 125 385 -16 q 90 498 90 266 m 231 603 q 302 312 231 441 q 480 127 369 194 q 707 62 588 62 q 932 157 844 62 q 1028 439 1028 260 q 964 718 1028 588 q 800 911 904 838 q 580 984 696 984 q 332 878 431 984 q 231 603 231 768 m 460 1126 q 426 1112 438 1112 q 410 1118 414 1112 q 406 1129 406 1124 q 417 1156 406 1143 l 566 1324 q 617 1373 606 1369 q 639 1377 629 1377 q 709 1324 663 1377 l 858 1156 q 869 1129 869 1143 q 865 1118 869 1124 q 854 1112 861 1112 q 815 1126 837 1112 l 637 1241 l 460 1126 z "},"":{"ha":1275,"x_min":90,"x_max":1185,"o":"m 90 498 q 129 719 90 616 q 241 898 168 823 q 655 1059 398 1059 q 928 985 804 1059 q 1116 795 1047 915 q 1185 533 1185 674 q 1019 127 1185 278 q 630 -16 862 -16 q 237 125 385 -16 q 90 498 90 266 m 231 603 q 302 312 231 441 q 480 127 369 194 q 707 62 588 62 q 932 157 844 62 q 1028 439 1028 260 q 964 718 1028 588 q 800 911 904 838 q 580 984 696 984 q 332 878 431 984 q 231 603 231 768 m 879 1320 q 895 1305 895 1320 q 890 1276 895 1289 q 878 1248 886 1262 q 787 1153 840 1179 q 739 1143 767 1143 q 607 1182 696 1143 q 500 1215 526 1215 q 459 1204 475 1215 q 431 1175 444 1193 q 396 1144 410 1144 q 380 1164 380 1144 q 437 1272 380 1212 q 546 1322 484 1322 q 675 1286 603 1322 q 760 1252 739 1255 q 791 1249 781 1249 q 846 1293 817 1249 q 879 1320 865 1320 z "},"":{"ha":1275,"x_min":90,"x_max":1185,"o":"m 90 498 q 129 719 90 616 q 241 898 168 823 q 655 1059 398 1059 q 928 985 804 1059 q 1116 795 1047 915 q 1185 533 1185 674 q 1019 127 1185 278 q 630 -16 862 -16 q 237 125 385 -16 q 90 498 90 266 m 231 603 q 302 312 231 441 q 480 127 369 194 q 707 62 588 62 q 932 157 844 62 q 1028 439 1028 260 q 964 718 1028 588 q 800 911 904 838 q 580 984 696 984 q 332 878 431 984 q 231 603 231 768 m 906 1174 q 900 1167 906 1174 q 875 1151 893 1160 q 832 1143 857 1143 q 789 1152 808 1143 q 759 1175 770 1160 q 736 1233 736 1202 q 743 1283 736 1264 q 763 1315 750 1301 q 826 1344 791 1344 q 879 1335 861 1344 q 909 1312 897 1326 q 933 1253 933 1284 q 926 1205 933 1223 q 906 1174 919 1187 m 513 1174 q 506 1167 513 1174 q 481 1151 500 1160 q 439 1143 463 1143 q 396 1152 414 1143 q 366 1175 377 1160 q 342 1233 342 1202 q 350 1283 342 1264 q 370 1315 357 1301 q 433 1344 398 1344 q 486 1335 467 1344 q 516 1312 504 1326 q 540 1253 540 1284 q 533 1205 540 1223 q 513 1174 526 1187 z "},"":{"ha":797,"x_min":102,"x_max":695,"o":"m 107 211 l 332 435 l 102 666 l 170 734 l 399 503 l 624 728 l 690 662 l 465 437 l 695 207 l 627 139 l 397 370 l 173 145 l 107 211 z "},"":{"ha":1275,"x_min":90,"x_max":1185,"o":"m 630 -16 q 367 38 486 -16 l 271 -105 q 228 -138 248 -138 q 188 -104 188 -138 q 210 -54 188 -87 l 298 77 q 144 250 198 143 q 90 486 90 357 q 129 719 90 616 q 241 898 168 823 q 655 1059 398 1059 q 918 991 799 1059 l 1013 1132 q 1038 1159 1028 1153 q 1061 1166 1048 1166 q 1084 1158 1074 1166 q 1095 1136 1095 1150 q 1070 1078 1095 1116 l 983 948 q 1172 654 1129 833 q 1185 520 1185 595 q 1165 371 1185 446 q 1108 235 1145 296 q 1019 127 1071 174 q 906 49 968 81 q 630 -16 781 -16 m 841 878 q 580 984 722 984 q 332 878 431 984 q 231 603 231 768 q 384 203 231 359 l 841 878 m 444 151 q 707 62 565 62 q 932 157 844 62 q 1028 439 1028 260 q 897 821 1028 660 l 444 151 z "},"":{"ha":1271,"x_min":45,"x_max":1199,"o":"m 949 0 q 904 79 906 0 q 612 -16 770 -16 q 298 87 408 -16 q 190 370 190 187 l 190 819 q 180 929 190 903 q 164 967 171 955 q 111 991 150 991 l 68 987 q 45 1005 45 987 q 58 1026 45 1016 q 98 1036 71 1036 q 162 1033 137 1036 q 199 1029 188 1030 q 221 1027 210 1028 q 265 1026 245 1026 q 340 1029 318 1026 q 422 1036 385 1036 q 472 1026 460 1036 q 485 1005 485 1016 q 463 987 485 987 l 419 991 q 366 967 380 991 q 343 888 345 930 q 340 819 340 847 l 340 342 q 422 127 340 206 q 643 51 501 51 q 904 152 785 51 l 904 819 q 895 929 904 903 q 878 967 885 955 q 825 991 864 991 l 782 987 q 760 1005 760 987 q 772 1026 760 1016 q 812 1036 785 1036 q 877 1033 851 1036 q 913 1029 902 1030 q 936 1027 924 1028 q 979 1026 959 1026 q 1055 1029 1032 1026 q 1137 1036 1099 1036 q 1186 1026 1174 1036 q 1199 1005 1199 1016 q 1177 987 1199 987 l 1133 991 q 1080 967 1095 991 q 1057 888 1059 930 q 1055 819 1055 847 l 1057 234 q 1068 79 1057 106 q 1095 47 1079 52 q 1130 43 1112 43 l 1168 47 q 1190 31 1190 47 q 1126 -2 1190 -2 l 1023 4 q 1006 3 1014 4 l 989 2 q 949 0 970 0 m 756 1122 q 725 1133 744 1122 l 564 1215 q 475 1293 489 1253 q 471 1324 471 1305 q 489 1359 471 1343 q 525 1374 506 1374 q 558 1371 544 1374 q 587 1359 572 1367 q 652 1297 615 1342 l 761 1162 q 772 1141 772 1148 q 756 1122 772 1122 z "},"":{"ha":1271,"x_min":45,"x_max":1199,"o":"m 949 0 q 904 79 906 0 q 612 -16 770 -16 q 298 87 408 -16 q 190 370 190 187 l 190 819 q 180 929 190 903 q 164 967 171 955 q 111 991 150 991 l 68 987 q 45 1005 45 987 q 58 1026 45 1016 q 98 1036 71 1036 q 162 1033 137 1036 q 199 1029 188 1030 q 221 1027 210 1028 q 265 1026 245 1026 q 340 1029 318 1026 q 422 1036 385 1036 q 472 1026 460 1036 q 485 1005 485 1016 q 463 987 485 987 l 419 991 q 366 967 380 991 q 343 888 345 930 q 340 819 340 847 l 340 342 q 422 127 340 206 q 643 51 501 51 q 904 152 785 51 l 904 819 q 895 929 904 903 q 878 967 885 955 q 825 991 864 991 l 782 987 q 760 1005 760 987 q 772 1026 760 1016 q 812 1036 785 1036 q 877 1033 851 1036 q 913 1029 902 1030 q 936 1027 924 1028 q 979 1026 959 1026 q 1055 1029 1032 1026 q 1137 1036 1099 1036 q 1186 1026 1174 1036 q 1199 1005 1199 1016 q 1177 987 1199 987 l 1133 991 q 1080 967 1095 991 q 1057 888 1059 930 q 1055 819 1055 847 l 1057 234 q 1068 79 1057 106 q 1095 47 1079 52 q 1130 43 1112 43 l 1168 47 q 1190 31 1190 47 q 1126 -2 1190 -2 l 1023 4 q 1006 3 1014 4 l 989 2 q 949 0 970 0 m 519 1133 q 490 1122 500 1122 q 476 1128 480 1122 q 471 1141 471 1134 q 483 1162 471 1148 l 591 1297 q 686 1371 644 1362 q 719 1374 699 1374 q 755 1359 738 1374 q 772 1316 772 1343 q 751 1265 772 1289 q 680 1215 730 1241 l 519 1133 z "},"":{"ha":1271,"x_min":45,"x_max":1199,"o":"m 949 0 q 904 79 906 0 q 612 -16 770 -16 q 298 87 408 -16 q 190 370 190 187 l 190 819 q 180 929 190 903 q 164 967 171 955 q 111 991 150 991 l 68 987 q 45 1005 45 987 q 58 1026 45 1016 q 98 1036 71 1036 q 162 1033 137 1036 q 199 1029 188 1030 q 221 1027 210 1028 q 265 1026 245 1026 q 340 1029 318 1026 q 422 1036 385 1036 q 472 1026 460 1036 q 485 1005 485 1016 q 463 987 485 987 l 419 991 q 366 967 380 991 q 343 888 345 930 q 340 819 340 847 l 340 342 q 422 127 340 206 q 643 51 501 51 q 904 152 785 51 l 904 819 q 895 929 904 903 q 878 967 885 955 q 825 991 864 991 l 782 987 q 760 1005 760 987 q 772 1026 760 1016 q 812 1036 785 1036 q 877 1033 851 1036 q 913 1029 902 1030 q 936 1027 924 1028 q 979 1026 959 1026 q 1055 1029 1032 1026 q 1137 1036 1099 1036 q 1186 1026 1174 1036 q 1199 1005 1199 1016 q 1177 987 1199 987 l 1133 991 q 1080 967 1095 991 q 1057 888 1059 930 q 1055 819 1055 847 l 1057 234 q 1068 79 1057 106 q 1095 47 1079 52 q 1130 43 1112 43 l 1168 47 q 1190 31 1190 47 q 1126 -2 1190 -2 l 1023 4 q 1006 3 1014 4 l 989 2 q 949 0 970 0 m 444 1126 q 411 1112 422 1112 q 394 1118 399 1112 q 390 1129 390 1124 q 401 1156 390 1143 l 550 1324 q 602 1373 590 1369 q 623 1377 613 1377 q 694 1324 648 1377 l 842 1156 q 854 1129 854 1143 q 850 1118 854 1124 q 838 1112 846 1112 q 800 1126 821 1112 l 621 1241 l 444 1126 z "},"":{"ha":1271,"x_min":45,"x_max":1199,"o":"m 949 0 q 904 79 906 0 q 612 -16 770 -16 q 298 87 408 -16 q 190 370 190 187 l 190 819 q 180 929 190 903 q 164 967 171 955 q 111 991 150 991 l 68 987 q 45 1005 45 987 q 58 1026 45 1016 q 98 1036 71 1036 q 162 1033 137 1036 q 199 1029 188 1030 q 221 1027 210 1028 q 265 1026 245 1026 q 340 1029 318 1026 q 422 1036 385 1036 q 472 1026 460 1036 q 485 1005 485 1016 q 463 987 485 987 l 419 991 q 366 967 380 991 q 343 888 345 930 q 340 819 340 847 l 340 342 q 422 127 340 206 q 643 51 501 51 q 904 152 785 51 l 904 819 q 895 929 904 903 q 878 967 885 955 q 825 991 864 991 l 782 987 q 760 1005 760 987 q 772 1026 760 1016 q 812 1036 785 1036 q 877 1033 851 1036 q 913 1029 902 1030 q 936 1027 924 1028 q 979 1026 959 1026 q 1055 1029 1032 1026 q 1137 1036 1099 1036 q 1186 1026 1174 1036 q 1199 1005 1199 1016 q 1177 987 1199 987 l 1133 991 q 1080 967 1095 991 q 1057 888 1059 930 q 1055 819 1055 847 l 1057 234 q 1068 79 1057 106 q 1095 47 1079 52 q 1130 43 1112 43 l 1168 47 q 1190 31 1190 47 q 1126 -2 1190 -2 l 1023 4 q 1006 3 1014 4 l 989 2 q 949 0 970 0 m 890 1174 q 884 1167 890 1174 q 859 1151 878 1160 q 817 1143 841 1143 q 773 1152 792 1143 q 743 1175 755 1160 q 720 1233 720 1202 q 727 1283 720 1264 q 747 1315 734 1301 q 810 1344 776 1344 q 863 1335 845 1344 q 894 1312 882 1326 q 918 1253 918 1284 q 910 1205 918 1223 q 890 1174 903 1187 m 497 1174 q 491 1167 497 1174 q 466 1151 484 1160 q 423 1143 448 1143 q 380 1152 399 1143 q 350 1175 361 1160 q 327 1233 327 1202 q 334 1283 327 1264 q 354 1315 341 1301 q 417 1344 382 1344 q 470 1335 452 1344 q 500 1312 488 1326 q 524 1253 524 1284 q 517 1205 524 1223 q 497 1174 510 1187 z "},"":{"ha":1044,"x_min":-35,"x_max":1083,"o":"m 672 45 l 736 52 q 752 45 747 52 q 758 30 758 39 q 742 10 758 20 q 704 0 726 0 q 669 0 682 0 q 644 1 656 1 q 610 4 625 3 q 585 7 595 6 q 562 9 574 8 q 518 10 538 10 q 446 7 465 10 q 416 3 427 4 q 392 1 405 2 q 296 9 315 -3 q 278 30 278 20 q 300 52 278 52 l 364 45 q 417 69 403 45 q 440 148 438 106 q 443 218 443 189 l 443 453 l 85 967 q 62 987 75 981 q 24 992 50 992 l -13 987 q -35 1004 -35 987 q -21 1026 -35 1017 q 24 1036 -6 1036 l 158 1027 l 338 1036 q 404 1004 404 1036 q 382 987 404 987 l 330 994 q 284 966 284 994 q 315 896 284 942 l 565 517 l 795 856 q 847 965 847 937 q 801 994 847 994 l 749 987 q 728 1004 728 987 q 743 1027 728 1017 q 785 1036 758 1036 q 830 1035 812 1036 l 863 1031 q 921 1027 901 1027 q 972 1029 952 1027 l 1004 1035 q 1034 1036 1015 1036 q 1067 1028 1052 1036 q 1083 1003 1083 1019 q 1061 987 1083 987 l 1016 992 q 960 967 979 992 l 593 450 l 593 218 q 603 107 593 134 q 620 69 612 81 q 672 45 633 45 m 420 1133 q 392 1122 401 1122 q 377 1128 382 1122 q 373 1141 373 1134 q 385 1162 373 1148 l 493 1297 q 587 1371 545 1362 q 620 1374 601 1374 q 657 1359 640 1374 q 674 1316 674 1343 q 653 1265 674 1289 q 582 1215 632 1241 l 420 1133 z "},"":{"ha":1044,"x_min":75,"x_max":967,"o":"m 449 45 l 513 52 q 529 45 524 52 q 535 30 535 39 q 519 10 535 20 q 481 0 503 0 q 446 0 458 0 q 420 1 433 1 q 387 4 401 3 q 361 7 372 6 q 339 9 351 8 q 295 10 315 10 q 220 7 242 10 q 88 10 112 -9 q 75 31 75 20 q 98 50 75 50 l 141 45 q 194 69 180 45 q 217 148 215 106 q 220 218 220 189 l 220 819 q 210 929 220 903 q 194 967 201 955 q 141 991 180 991 l 98 987 q 75 1005 75 987 q 88 1026 75 1016 q 127 1036 100 1036 q 192 1033 167 1036 q 229 1029 218 1030 q 251 1027 239 1028 q 295 1026 275 1026 q 367 1029 348 1026 q 397 1033 387 1032 q 420 1035 408 1034 q 475 1036 446 1036 q 519 1026 503 1036 q 535 1006 535 1016 q 513 985 535 985 l 449 991 q 396 967 410 991 q 373 888 375 930 q 370 819 370 847 l 370 812 q 560 836 465 836 q 731 815 654 836 q 860 757 807 795 q 967 545 967 679 q 903 359 967 437 q 648 229 819 256 q 525 220 597 220 q 370 241 452 220 q 417 50 370 71 q 449 45 431 45 m 370 328 q 560 288 446 288 q 735 342 670 288 q 802 495 802 399 q 718 696 802 619 q 507 770 636 770 q 421 751 450 770 q 370 672 370 717 l 370 328 z "},"":{"ha":943,"x_min":27,"x_max":896,"o":"m 92 0 q 27 31 27 0 q 50 50 27 50 l 83 45 q 136 80 123 45 q 157 236 155 132 l 157 741 q 336 1131 157 1057 q 461 1155 393 1155 q 583 1135 530 1155 q 673 1080 636 1115 q 750 890 750 1006 q 694 738 750 810 q 564 638 644 672 q 800 521 707 618 q 896 298 896 423 q 818 68 896 154 q 619 -16 741 -16 q 508 26 551 -16 q 467 119 467 65 q 486 142 467 142 q 512 113 500 142 q 553 65 524 84 q 614 45 583 45 q 668 60 645 45 q 705 103 690 75 q 736 247 736 158 q 717 394 736 336 q 665 492 699 452 q 473 587 597 572 q 424 595 441 591 q 407 613 407 600 q 416 631 407 627 q 447 642 425 635 q 497 662 470 648 q 545 703 524 677 q 593 874 593 762 q 555 1043 593 986 q 445 1097 516 1100 q 319 956 348 1093 q 309 838 309 907 l 309 236 q 316 83 309 110 q 332 50 323 56 q 354 45 340 45 l 387 50 q 409 31 409 50 q 342 0 409 0 l 231 10 q 208 9 221 10 l 182 8 q 144 5 159 7 q 92 0 112 0 z "},"":{"ha":926,"x_min":117,"x_max":907,"o":"m 664 0 q 620 69 625 0 q 463 -11 560 7 q 380 -16 431 -16 q 276 -1 329 -16 q 188 42 223 14 q 117 199 117 98 q 205 365 117 309 q 402 414 281 414 q 619 363 523 414 l 619 444 q 563 591 619 540 q 419 639 511 639 q 224 519 311 639 q 176 477 192 477 q 159 492 159 477 q 168 533 159 507 q 185 675 185 583 q 207 705 185 705 q 268 678 234 705 q 284 671 277 671 q 307 676 294 671 q 338 685 321 681 q 375 692 355 688 q 447 700 422 700 q 755 534 712 700 q 768 428 768 484 l 768 234 q 773 113 768 136 q 784 74 778 90 q 810 50 791 58 q 847 42 829 42 l 885 47 q 907 30 907 47 q 844 -2 907 -2 l 740 4 q 722 3 731 4 l 704 2 q 664 0 686 0 m 318 309 q 307 299 318 309 q 286 265 296 290 q 275 210 275 241 q 287 150 275 178 q 319 100 298 121 q 448 58 364 58 q 585 104 524 58 q 619 139 604 119 l 619 300 q 494 346 567 333 q 437 350 470 350 q 371 339 404 350 q 318 309 339 328 m 377 900 q 288 979 300 939 q 285 1010 285 991 q 302 1043 285 1028 q 338 1059 319 1059 q 370 1056 357 1059 q 397 1046 383 1054 q 466 981 427 1029 l 574 846 q 586 826 586 833 q 568 807 586 807 q 538 817 557 807 l 377 900 z "},"":{"ha":926,"x_min":117,"x_max":907,"o":"m 664 0 q 620 69 625 0 q 463 -11 560 7 q 380 -16 431 -16 q 276 -1 329 -16 q 188 42 223 14 q 117 199 117 98 q 205 365 117 309 q 402 414 281 414 q 619 363 523 414 l 619 444 q 563 591 619 540 q 419 639 511 639 q 224 519 311 639 q 176 477 192 477 q 159 492 159 477 q 168 533 159 507 q 185 675 185 583 q 207 705 185 705 q 268 678 234 705 q 284 671 277 671 q 307 676 294 671 q 338 685 321 681 q 375 692 355 688 q 447 700 422 700 q 755 534 712 700 q 768 428 768 484 l 768 234 q 773 113 768 136 q 784 74 778 90 q 810 50 791 58 q 847 42 829 42 l 885 47 q 907 30 907 47 q 844 -2 907 -2 l 740 4 q 722 3 731 4 l 704 2 q 664 0 686 0 m 318 309 q 307 299 318 309 q 286 265 296 290 q 275 210 275 241 q 287 150 275 178 q 319 100 298 121 q 448 58 364 58 q 585 104 524 58 q 619 139 604 119 l 619 300 q 494 346 567 333 q 437 350 470 350 q 371 339 404 350 q 318 309 339 328 m 332 817 q 303 807 313 807 q 289 813 294 807 q 285 826 285 819 q 296 846 285 833 l 405 981 q 465 1042 444 1029 q 524 1059 496 1059 q 569 1043 551 1059 q 586 1010 586 1028 q 583 980 586 991 q 570 955 579 968 q 494 900 547 926 l 332 817 z "},"":{"ha":926,"x_min":117,"x_max":907,"o":"m 664 0 q 620 69 625 0 q 463 -11 560 7 q 380 -16 431 -16 q 276 -1 329 -16 q 188 42 223 14 q 117 199 117 98 q 205 365 117 309 q 402 414 281 414 q 619 363 523 414 l 619 444 q 563 591 619 540 q 419 639 511 639 q 224 519 311 639 q 176 477 192 477 q 159 492 159 477 q 168 533 159 507 q 185 675 185 583 q 207 705 185 705 q 268 678 234 705 q 284 671 277 671 q 307 676 294 671 q 338 685 321 681 q 375 692 355 688 q 447 700 422 700 q 755 534 712 700 q 768 428 768 484 l 768 234 q 773 113 768 136 q 784 74 778 90 q 810 50 791 58 q 847 42 829 42 l 885 47 q 907 30 907 47 q 844 -2 907 -2 l 740 4 q 722 3 731 4 l 704 2 q 664 0 686 0 m 318 309 q 307 299 318 309 q 286 265 296 290 q 275 210 275 241 q 287 150 275 178 q 319 100 298 121 q 448 58 364 58 q 585 104 524 58 q 619 139 604 119 l 619 300 q 494 346 567 333 q 437 350 470 350 q 371 339 404 350 q 318 309 339 328 m 258 825 q 224 810 237 810 q 203 827 203 810 q 215 854 203 841 l 363 1022 q 415 1071 404 1067 q 434 1075 427 1075 q 448 1073 441 1075 q 464 1065 455 1071 q 507 1022 482 1052 l 656 854 q 667 827 667 841 q 663 816 667 822 q 652 810 659 810 q 613 825 634 810 l 435 939 l 258 825 z "},"":{"ha":926,"x_min":117,"x_max":907,"o":"m 664 0 q 620 69 625 0 q 463 -11 560 7 q 380 -16 431 -16 q 276 -1 329 -16 q 188 42 223 14 q 117 199 117 98 q 205 365 117 309 q 402 414 281 414 q 619 363 523 414 l 619 444 q 563 591 619 540 q 419 639 511 639 q 224 519 311 639 q 176 477 192 477 q 159 492 159 477 q 168 533 159 507 q 185 675 185 583 q 207 705 185 705 q 268 678 234 705 q 284 671 277 671 q 307 676 294 671 q 338 685 321 681 q 375 692 355 688 q 447 700 422 700 q 755 534 712 700 q 768 428 768 484 l 768 234 q 773 113 768 136 q 784 74 778 90 q 810 50 791 58 q 847 42 829 42 l 885 47 q 907 30 907 47 q 844 -2 907 -2 l 740 4 q 722 3 731 4 l 704 2 q 664 0 686 0 m 318 309 q 307 299 318 309 q 286 265 296 290 q 275 210 275 241 q 287 150 275 178 q 319 100 298 121 q 448 58 364 58 q 585 104 524 58 q 619 139 604 119 l 619 300 q 494 346 567 333 q 437 350 470 350 q 371 339 404 350 q 318 309 339 328 m 656 1016 q 672 1000 672 1016 q 668 971 672 985 q 656 943 663 958 q 564 848 618 875 q 520 838 545 838 q 396 877 469 838 q 328 908 342 906 q 302 911 314 911 q 247 867 277 911 q 214 840 228 840 q 199 859 199 840 q 256 968 199 907 q 354 1017 302 1017 q 421 1005 395 1017 q 469 982 448 993 q 506 963 490 970 q 534 951 523 955 q 564 945 550 945 q 624 989 594 945 q 656 1016 643 1016 z "},"":{"ha":926,"x_min":117,"x_max":907,"o":"m 664 0 q 620 69 625 0 q 463 -11 560 7 q 380 -16 431 -16 q 276 -1 329 -16 q 188 42 223 14 q 117 199 117 98 q 205 365 117 309 q 402 414 281 414 q 619 363 523 414 l 619 444 q 563 591 619 540 q 419 639 511 639 q 224 519 311 639 q 176 477 192 477 q 159 492 159 477 q 168 533 159 507 q 185 675 185 583 q 207 705 185 705 q 268 678 234 705 q 284 671 277 671 q 307 676 294 671 q 338 685 321 681 q 375 692 355 688 q 447 700 422 700 q 755 534 712 700 q 768 428 768 484 l 768 234 q 773 113 768 136 q 784 74 778 90 q 810 50 791 58 q 847 42 829 42 l 885 47 q 907 30 907 47 q 844 -2 907 -2 l 740 4 q 722 3 731 4 l 704 2 q 664 0 686 0 m 318 309 q 307 299 318 309 q 286 265 296 290 q 275 210 275 241 q 287 150 275 178 q 319 100 298 121 q 448 58 364 58 q 585 104 524 58 q 619 139 604 119 l 619 300 q 494 346 567 333 q 437 350 470 350 q 371 339 404 350 q 318 309 339 328 m 670 858 q 664 851 670 858 q 639 836 657 844 q 596 827 621 827 q 553 836 572 827 q 523 859 534 845 q 500 918 500 886 q 507 967 500 949 q 527 1000 514 986 q 590 1029 555 1029 q 643 1020 625 1029 q 673 997 661 1011 q 697 938 697 968 q 690 890 697 907 q 670 858 683 872 m 345 858 q 338 851 345 858 q 313 836 332 844 q 271 827 295 827 q 228 836 246 827 q 197 859 209 845 q 174 918 174 886 q 181 967 174 949 q 201 1000 189 986 q 264 1029 230 1029 q 317 1020 299 1029 q 348 997 336 1011 q 372 938 372 968 q 365 890 372 907 q 345 858 357 872 z "},"":{"ha":926,"x_min":117,"x_max":907,"o":"m 664 0 q 620 69 625 0 q 463 -11 560 7 q 380 -16 431 -16 q 276 -1 329 -16 q 188 42 223 14 q 117 199 117 98 q 205 365 117 309 q 402 414 281 414 q 619 363 523 414 l 619 444 q 563 591 619 540 q 419 639 511 639 q 224 519 311 639 q 176 477 192 477 q 159 492 159 477 q 168 533 159 507 q 185 675 185 583 q 207 705 185 705 q 268 678 234 705 q 284 671 277 671 q 307 676 294 671 q 338 685 321 681 q 375 692 355 688 q 447 700 422 700 q 755 534 712 700 q 768 428 768 484 l 768 234 q 773 113 768 136 q 784 74 778 90 q 810 50 791 58 q 847 42 829 42 l 885 47 q 907 30 907 47 q 844 -2 907 -2 l 740 4 q 722 3 731 4 l 704 2 q 664 0 686 0 m 318 309 q 307 299 318 309 q 286 265 296 290 q 275 210 275 241 q 287 150 275 178 q 319 100 298 121 q 448 58 364 58 q 585 104 524 58 q 619 139 604 119 l 619 300 q 494 346 567 333 q 437 350 470 350 q 371 339 404 350 q 318 309 339 328 m 435 825 q 375 836 403 825 q 326 865 347 846 q 281 970 281 908 q 326 1076 281 1034 q 435 1118 370 1118 q 545 1076 500 1118 q 590 970 590 1034 q 545 865 590 907 q 435 825 500 825 m 371 919 q 380 910 371 919 q 404 895 389 901 q 435 888 418 888 q 466 893 452 888 q 492 909 481 899 q 516 969 516 932 q 494 1030 516 1006 q 444 1053 471 1053 q 401 1046 416 1053 q 376 1028 386 1040 q 354 970 354 1006 q 371 919 354 937 z "},"":{"ha":1364,"x_min":117,"x_max":1313,"o":"m 701 106 q 496 -8 621 18 q 399 -16 456 -16 q 287 -1 342 -16 q 194 42 232 14 q 117 199 117 99 q 207 354 117 294 q 416 414 297 414 q 618 376 536 414 q 505 625 612 582 q 416 639 468 639 q 224 519 311 639 q 176 477 192 477 q 159 492 159 477 q 168 533 159 507 q 185 675 185 583 q 207 705 185 705 q 240 695 222 705 q 284 677 274 677 q 297 680 291 677 q 321 686 303 682 q 447 700 368 700 q 713 579 635 700 q 917 692 792 665 q 998 700 957 700 q 1297 521 1198 700 q 1313 475 1313 493 q 1283 431 1313 441 q 895 315 1084 359 l 783 288 q 895 118 814 179 q 1043 62 970 62 q 1251 155 1187 62 q 1268 175 1261 169 q 1283 181 1274 181 q 1302 163 1302 181 q 1277 105 1302 140 q 996 -16 1187 -16 q 701 106 804 -16 m 772 345 q 1136 448 993 398 q 1152 467 1152 453 q 1147 497 1152 480 q 1131 534 1141 515 q 1106 571 1121 553 q 1072 605 1091 590 q 983 637 1028 637 q 901 622 939 637 q 833 576 863 606 q 769 401 769 511 q 772 345 769 378 m 621 114 q 667 153 646 132 q 620 315 625 225 q 463 350 548 350 q 326 309 377 350 q 275 203 275 268 q 327 98 275 138 q 458 58 378 58 q 621 114 538 58 z "},"":{"ha":811,"x_min":83,"x_max":750,"o":"m 750 493 q 734 476 750 476 q 679 525 719 476 q 581 606 640 574 q 468 637 522 637 q 375 619 414 637 q 307 567 336 600 q 243 382 243 494 q 323 151 243 244 q 507 62 400 62 q 655 114 590 62 q 691 150 677 131 q 710 175 704 169 q 725 181 717 181 q 740 176 734 181 q 745 164 745 171 q 713 98 745 138 q 628 26 682 57 q 507 -13 574 -4 l 480 -134 q 488 -133 484 -133 l 495 -133 q 605 -161 559 -133 q 653 -237 653 -191 q 597 -324 653 -288 q 473 -359 543 -359 q 349 -321 391 -359 q 334 -292 334 -308 q 343 -265 334 -276 q 368 -254 353 -254 q 419 -277 393 -254 q 496 -314 460 -314 q 547 -298 531 -314 q 562 -252 562 -283 q 539 -200 562 -221 q 484 -180 515 -180 q 408 -191 437 -180 l 441 -16 q 185 90 287 -10 q 83 342 83 189 q 180 589 83 486 q 454 700 287 700 q 591 678 518 700 q 621 671 613 671 q 662 685 634 671 q 705 700 690 700 q 725 675 725 700 q 725 629 725 650 q 728 591 726 608 q 741 529 732 555 q 750 493 750 503 z "},"":{"ha":810,"x_min":63,"x_max":758,"o":"m 175 79 q 149 102 175 79 q 93 192 123 125 q 63 335 63 258 q 91 476 63 412 q 168 591 118 541 q 441 700 278 700 q 647 635 562 700 q 741 521 698 595 q 758 471 758 490 q 727 431 758 441 q 345 316 547 365 l 234 290 q 332 122 258 184 q 494 62 404 62 q 657 117 581 62 q 693 152 681 134 q 712 175 705 169 q 727 181 718 181 q 746 163 746 181 q 722 107 746 140 q 668 52 699 75 q 603 14 638 29 q 450 -16 533 -16 q 297 8 367 -16 q 175 79 227 33 m 226 347 q 580 448 456 404 q 596 467 596 453 q 591 497 596 480 q 575 534 585 515 q 550 571 565 553 q 515 605 535 590 q 427 637 472 637 q 347 622 382 637 q 283 573 311 606 q 225 374 225 503 l 225 360 q 226 347 225 353 m 385 900 q 296 979 307 939 q 292 1010 292 991 q 310 1043 292 1028 q 346 1059 327 1059 q 377 1056 364 1059 q 405 1046 391 1054 q 473 981 435 1029 l 582 846 q 593 826 593 833 q 575 807 593 807 q 546 817 565 807 l 385 900 z "},"":{"ha":810,"x_min":63,"x_max":758,"o":"m 175 79 q 149 102 175 79 q 93 192 123 125 q 63 335 63 258 q 91 476 63 412 q 168 591 118 541 q 441 700 278 700 q 647 635 562 700 q 741 521 698 595 q 758 471 758 490 q 727 431 758 441 q 345 316 547 365 l 234 290 q 332 122 258 184 q 494 62 404 62 q 657 117 581 62 q 693 152 681 134 q 712 175 705 169 q 727 181 718 181 q 746 163 746 181 q 722 107 746 140 q 668 52 699 75 q 603 14 638 29 q 450 -16 533 -16 q 297 8 367 -16 q 175 79 227 33 m 226 347 q 580 448 456 404 q 596 467 596 453 q 591 497 596 480 q 575 534 585 515 q 550 571 565 553 q 515 605 535 590 q 427 637 472 637 q 347 622 382 637 q 283 573 311 606 q 225 374 225 503 l 225 360 q 226 347 225 353 m 340 817 q 311 807 321 807 q 297 813 301 807 q 292 826 292 819 q 304 846 292 833 l 412 981 q 473 1042 451 1029 q 531 1059 504 1059 q 576 1043 559 1059 q 593 1010 593 1028 q 590 980 593 991 q 577 955 587 968 q 501 900 554 926 l 340 817 z "},"":{"ha":810,"x_min":63,"x_max":758,"o":"m 175 79 q 149 102 175 79 q 93 192 123 125 q 63 335 63 258 q 91 476 63 412 q 168 591 118 541 q 441 700 278 700 q 647 635 562 700 q 741 521 698 595 q 758 471 758 490 q 727 431 758 441 q 345 316 547 365 l 234 290 q 332 122 258 184 q 494 62 404 62 q 657 117 581 62 q 693 152 681 134 q 712 175 705 169 q 727 181 718 181 q 746 163 746 181 q 722 107 746 140 q 668 52 699 75 q 603 14 638 29 q 450 -16 533 -16 q 297 8 367 -16 q 175 79 227 33 m 226 347 q 580 448 456 404 q 596 467 596 453 q 591 497 596 480 q 575 534 585 515 q 550 571 565 553 q 515 605 535 590 q 427 637 472 637 q 347 622 382 637 q 283 573 311 606 q 225 374 225 503 l 225 360 q 226 347 225 353 m 265 825 q 232 810 244 810 q 211 827 211 810 q 222 854 211 841 l 371 1022 q 422 1071 411 1067 q 441 1075 434 1075 q 455 1073 448 1075 q 471 1065 463 1071 q 515 1022 490 1052 l 663 854 q 675 827 675 841 q 671 816 675 822 q 659 810 667 810 q 621 825 642 810 l 442 939 l 265 825 z "},"":{"ha":810,"x_min":63,"x_max":758,"o":"m 175 79 q 149 102 175 79 q 93 192 123 125 q 63 335 63 258 q 91 476 63 412 q 168 591 118 541 q 441 700 278 700 q 647 635 562 700 q 741 521 698 595 q 758 471 758 490 q 727 431 758 441 q 345 316 547 365 l 234 290 q 332 122 258 184 q 494 62 404 62 q 657 117 581 62 q 693 152 681 134 q 712 175 705 169 q 727 181 718 181 q 746 163 746 181 q 722 107 746 140 q 668 52 699 75 q 603 14 638 29 q 450 -16 533 -16 q 297 8 367 -16 q 175 79 227 33 m 226 347 q 580 448 456 404 q 596 467 596 453 q 591 497 596 480 q 575 534 585 515 q 550 571 565 553 q 515 605 535 590 q 427 637 472 637 q 347 622 382 637 q 283 573 311 606 q 225 374 225 503 l 225 360 q 226 347 225 353 m 677 858 q 671 851 677 858 q 646 836 665 844 q 604 827 628 827 q 561 836 579 827 q 530 859 542 845 q 507 918 507 886 q 514 967 507 949 q 534 1000 522 986 q 597 1029 563 1029 q 650 1020 632 1029 q 681 997 669 1011 q 705 938 705 968 q 697 890 705 907 q 677 858 690 872 m 352 858 q 346 851 352 858 q 321 836 339 844 q 278 827 302 827 q 235 836 254 827 q 205 859 216 845 q 182 918 182 886 q 189 967 182 949 q 209 1000 196 986 q 272 1029 237 1029 q 325 1020 307 1029 q 355 997 343 1011 q 379 938 379 968 q 372 890 379 907 q 352 858 365 872 z "},"":{"ha":580,"x_min":88,"x_max":513,"o":"m 161 0 q 97 31 97 0 q 119 50 97 50 l 153 45 q 206 80 193 45 q 227 236 227 135 l 227 433 q 197 605 227 566 q 164 628 183 623 q 126 636 144 634 q 98 643 109 639 q 88 658 88 648 q 129 684 88 684 l 227 676 q 252 677 240 676 l 302 683 q 328 684 315 684 q 349 682 340 684 q 365 671 359 680 q 379 602 379 654 l 379 236 q 386 116 379 141 q 400 76 393 92 q 458 45 415 45 l 491 50 q 513 31 513 50 q 446 0 513 0 q 414 2 426 0 q 392 4 402 3 l 371 7 q 348 8 360 7 q 323 9 336 9 q 301 10 311 10 q 278 9 291 10 l 252 8 q 214 5 229 7 q 161 0 182 0 m 227 900 q 138 979 150 939 q 135 1010 135 991 q 152 1043 135 1028 q 188 1059 170 1059 q 220 1056 207 1059 q 248 1046 233 1054 q 316 981 277 1029 l 425 846 q 436 826 436 833 q 418 807 436 807 q 389 817 408 807 l 227 900 z "},"":{"ha":580,"x_min":88,"x_max":513,"o":"m 161 0 q 97 31 97 0 q 119 50 97 50 l 153 45 q 206 80 193 45 q 227 236 227 135 l 227 433 q 197 605 227 566 q 164 628 183 623 q 126 636 144 634 q 98 643 109 639 q 88 658 88 648 q 129 684 88 684 l 227 676 q 252 677 240 676 l 302 683 q 328 684 315 684 q 349 682 340 684 q 365 671 359 680 q 379 602 379 654 l 379 236 q 386 116 379 141 q 400 76 393 92 q 458 45 415 45 l 491 50 q 513 31 513 50 q 446 0 513 0 q 414 2 426 0 q 392 4 402 3 l 371 7 q 348 8 360 7 q 323 9 336 9 q 301 10 311 10 q 278 9 291 10 l 252 8 q 214 5 229 7 q 161 0 182 0 m 182 817 q 154 807 163 807 q 139 813 144 807 q 135 826 135 819 q 146 846 135 833 l 255 981 q 315 1042 294 1029 q 374 1059 347 1059 q 419 1043 401 1059 q 436 1010 436 1028 q 433 980 436 991 q 420 955 429 968 q 344 900 397 926 l 182 817 z "},"":{"ha":580,"x_min":54,"x_max":518,"o":"m 161 0 q 97 31 97 0 q 119 50 97 50 l 153 45 q 206 80 193 45 q 227 236 227 135 l 227 433 q 197 605 227 566 q 164 628 183 623 q 126 636 144 634 q 98 643 109 639 q 88 658 88 648 q 129 684 88 684 l 227 676 q 252 677 240 676 l 302 683 q 328 684 315 684 q 349 682 340 684 q 365 671 359 680 q 379 602 379 654 l 379 236 q 386 116 379 141 q 400 76 393 92 q 458 45 415 45 l 491 50 q 513 31 513 50 q 446 0 513 0 q 414 2 426 0 q 392 4 402 3 l 371 7 q 348 8 360 7 q 323 9 336 9 q 301 10 311 10 q 278 9 291 10 l 252 8 q 214 5 229 7 q 161 0 182 0 m 109 825 q 75 810 87 810 q 54 827 54 810 q 66 854 54 841 l 214 1022 q 266 1071 254 1067 q 284 1075 277 1075 q 299 1073 292 1075 q 315 1065 306 1071 q 358 1022 333 1052 l 507 854 q 518 827 518 841 q 514 816 518 822 q 503 810 510 810 q 464 825 485 810 l 286 939 l 109 825 z "},"":{"ha":580,"x_min":25,"x_max":548,"o":"m 161 0 q 97 31 97 0 q 119 50 97 50 l 153 45 q 206 80 193 45 q 227 236 227 135 l 227 433 q 197 605 227 566 q 164 628 183 623 q 126 636 144 634 q 98 643 109 639 q 88 658 88 648 q 129 684 88 684 l 227 676 q 252 677 240 676 l 302 683 q 328 684 315 684 q 349 682 340 684 q 365 671 359 680 q 379 602 379 654 l 379 236 q 386 116 379 141 q 400 76 393 92 q 458 45 415 45 l 491 50 q 513 31 513 50 q 446 0 513 0 q 414 2 426 0 q 392 4 402 3 l 371 7 q 348 8 360 7 q 323 9 336 9 q 301 10 311 10 q 278 9 291 10 l 252 8 q 214 5 229 7 q 161 0 182 0 m 521 858 q 514 851 521 858 q 490 836 508 844 q 447 827 471 827 q 404 836 422 827 q 374 859 385 845 q 351 918 351 886 q 358 967 351 949 q 378 1000 365 986 q 441 1029 406 1029 q 494 1020 475 1029 q 524 997 512 1011 q 548 938 548 968 q 541 890 548 907 q 521 858 534 872 m 195 858 q 189 851 195 858 q 164 836 182 844 q 121 827 146 827 q 78 836 97 827 q 48 859 60 845 q 25 918 25 886 q 32 967 25 949 q 52 1000 39 986 q 115 1029 81 1029 q 168 1020 150 1029 q 199 997 186 1011 q 222 938 222 968 q 215 890 222 907 q 195 858 208 872 z "},"":{"ha":919,"x_min":82,"x_max":876,"o":"m 665 915 q 843 452 843 718 q 730 110 843 240 q 458 -14 621 -14 q 186 77 289 -14 q 82 323 82 170 q 184 569 82 471 q 444 666 287 666 q 662 604 563 666 q 545 877 630 768 l 360 818 q 304 805 320 805 q 280 814 289 805 q 271 837 271 823 q 311 876 271 862 l 494 934 q 206 1098 387 1038 q 165 1133 165 1111 q 198 1155 165 1155 q 321 1131 242 1155 q 608 970 484 1080 l 777 1024 q 841 1040 823 1040 q 867 1030 859 1040 q 876 1009 876 1021 q 821 964 876 981 l 665 915 m 238 351 q 257 237 238 293 q 309 140 276 181 q 481 50 380 50 q 669 219 626 48 q 684 340 684 275 q 667 452 684 406 q 619 533 650 499 q 454 604 555 604 q 293 532 351 604 q 238 351 238 465 z "},"":{"ha":1039,"x_min":75,"x_max":988,"o":"m 149 0 q 84 31 84 0 q 106 50 84 50 l 140 45 q 193 80 180 45 q 214 236 214 135 l 214 433 q 184 605 214 566 q 151 628 170 623 q 114 636 132 634 q 85 643 96 639 q 75 658 75 648 q 116 684 75 684 l 214 676 q 239 677 227 676 l 290 683 q 315 684 302 684 q 336 682 327 684 q 353 671 346 680 q 366 602 366 654 l 366 576 q 630 700 479 700 q 819 618 762 700 q 863 457 863 557 l 863 236 q 870 119 863 146 q 883 77 877 92 q 903 53 888 62 q 932 45 918 45 l 967 50 q 988 31 988 50 q 926 0 988 0 q 882 4 909 0 q 772 11 810 14 l 724 7 q 700 4 713 5 q 651 0 671 0 q 583 31 583 0 q 606 50 583 50 l 641 45 q 708 140 702 45 q 711 236 711 177 l 711 431 q 640 602 711 556 q 575 620 612 620 q 509 610 538 620 q 454 585 480 601 q 366 505 405 555 l 366 236 q 373 116 366 141 q 387 76 380 92 q 445 45 402 45 l 478 50 q 500 31 500 50 q 433 0 500 0 q 401 2 413 0 q 379 4 389 3 l 358 7 q 335 8 347 7 q 311 9 323 9 q 288 10 298 10 q 264 9 278 10 l 239 8 q 201 5 216 7 q 149 0 169 0 m 761 1016 q 777 1000 777 1016 q 772 971 777 985 q 760 943 768 958 q 669 848 722 875 q 625 838 649 838 q 500 877 573 838 q 432 908 446 906 q 406 911 418 911 q 351 867 382 911 q 319 840 332 840 q 303 859 303 840 q 360 968 303 907 q 458 1017 407 1017 q 526 1005 499 1017 q 573 982 552 993 q 611 963 594 970 q 638 951 627 955 q 668 945 654 945 q 728 989 699 945 q 761 1016 747 1016 z "},"":{"ha":926,"x_min":83,"x_max":842,"o":"m 83 357 q 113 480 83 414 q 194 594 142 545 q 464 700 304 700 q 751 590 646 700 q 842 354 842 494 q 746 91 842 193 q 467 -16 644 -16 q 119 176 212 -16 q 83 357 83 252 m 297 570 q 284 554 297 570 q 258 494 272 538 q 243 385 243 449 q 265 257 243 321 q 321 145 286 193 q 498 43 398 43 q 625 109 574 43 q 680 270 680 176 q 657 430 680 363 q 599 543 635 496 q 517 614 563 589 q 430 638 472 638 q 355 620 388 638 q 297 570 321 602 m 404 900 q 315 979 327 939 q 312 1010 312 991 q 329 1043 312 1028 q 365 1059 347 1059 q 397 1056 384 1059 q 425 1046 410 1054 q 493 981 454 1029 l 602 846 q 613 826 613 833 q 595 807 613 807 q 566 817 585 807 l 404 900 z "},"":{"ha":926,"x_min":83,"x_max":842,"o":"m 83 357 q 113 480 83 414 q 194 594 142 545 q 464 700 304 700 q 751 590 646 700 q 842 354 842 494 q 746 91 842 193 q 467 -16 644 -16 q 119 176 212 -16 q 83 357 83 252 m 297 570 q 284 554 297 570 q 258 494 272 538 q 243 385 243 449 q 265 257 243 321 q 321 145 286 193 q 498 43 398 43 q 625 109 574 43 q 680 270 680 176 q 657 430 680 363 q 599 543 635 496 q 517 614 563 589 q 430 638 472 638 q 355 620 388 638 q 297 570 321 602 m 359 817 q 331 807 340 807 q 316 813 321 807 q 312 826 312 819 q 323 846 312 833 l 432 981 q 492 1042 471 1029 q 551 1059 524 1059 q 596 1043 578 1059 q 613 1010 613 1028 q 610 980 613 991 q 597 955 606 968 q 521 900 574 926 l 359 817 z "},"":{"ha":926,"x_min":83,"x_max":842,"o":"m 83 357 q 113 480 83 414 q 194 594 142 545 q 464 700 304 700 q 751 590 646 700 q 842 354 842 494 q 746 91 842 193 q 467 -16 644 -16 q 119 176 212 -16 q 83 357 83 252 m 297 570 q 284 554 297 570 q 258 494 272 538 q 243 385 243 449 q 265 257 243 321 q 321 145 286 193 q 498 43 398 43 q 625 109 574 43 q 680 270 680 176 q 657 430 680 363 q 599 543 635 496 q 517 614 563 589 q 430 638 472 638 q 355 620 388 638 q 297 570 321 602 m 285 825 q 252 810 264 810 q 231 827 231 810 q 242 854 231 841 l 391 1022 q 442 1071 431 1067 q 461 1075 454 1075 q 475 1073 468 1075 q 491 1065 482 1071 q 534 1022 509 1052 l 683 854 q 694 827 694 841 q 690 816 694 822 q 679 810 686 810 q 640 825 661 810 l 462 939 l 285 825 z "},"":{"ha":926,"x_min":83,"x_max":842,"o":"m 83 357 q 113 480 83 414 q 194 594 142 545 q 464 700 304 700 q 751 590 646 700 q 842 354 842 494 q 746 91 842 193 q 467 -16 644 -16 q 119 176 212 -16 q 83 357 83 252 m 297 570 q 284 554 297 570 q 258 494 272 538 q 243 385 243 449 q 265 257 243 321 q 321 145 286 193 q 498 43 398 43 q 625 109 574 43 q 680 270 680 176 q 657 430 680 363 q 599 543 635 496 q 517 614 563 589 q 430 638 472 638 q 355 620 388 638 q 297 570 321 602 m 684 1016 q 699 1000 699 1016 q 695 971 699 985 q 683 943 690 958 q 591 848 645 875 q 547 838 572 838 q 423 877 496 838 q 355 908 369 906 q 329 911 341 911 q 274 867 304 911 q 241 840 255 840 q 226 859 226 840 q 283 968 226 907 q 381 1017 330 1017 q 448 1005 422 1017 q 496 982 475 993 q 533 963 517 970 q 561 951 550 955 q 591 945 577 945 q 651 989 621 945 q 684 1016 670 1016 z "},"":{"ha":926,"x_min":83,"x_max":842,"o":"m 83 357 q 113 480 83 414 q 194 594 142 545 q 464 700 304 700 q 751 590 646 700 q 842 354 842 494 q 746 91 842 193 q 467 -16 644 -16 q 119 176 212 -16 q 83 357 83 252 m 297 570 q 284 554 297 570 q 258 494 272 538 q 243 385 243 449 q 265 257 243 321 q 321 145 286 193 q 498 43 398 43 q 625 109 574 43 q 680 270 680 176 q 657 430 680 363 q 599 543 635 496 q 517 614 563 589 q 430 638 472 638 q 355 620 388 638 q 297 570 321 602 m 697 858 q 691 851 697 858 q 666 836 684 844 q 623 827 648 827 q 580 836 599 827 q 550 859 562 845 q 527 918 527 886 q 534 967 527 949 q 554 1000 541 986 q 617 1029 583 1029 q 670 1020 652 1029 q 701 997 688 1011 q 724 938 724 968 q 717 890 724 907 q 697 858 710 872 m 372 858 q 365 851 372 858 q 340 836 359 844 q 298 827 322 827 q 255 836 273 827 q 224 859 236 845 q 201 918 201 886 q 209 967 201 949 q 229 1000 216 986 q 292 1029 257 1029 q 345 1020 326 1029 q 375 997 363 1011 q 399 938 399 968 q 392 890 399 907 q 372 858 385 872 z "},"":{"ha":871,"x_min":102,"x_max":770,"o":"m 508 622 q 502 615 508 622 q 477 599 495 608 q 434 591 458 591 q 391 600 410 591 q 361 623 372 608 q 338 681 338 650 q 345 731 338 712 q 365 763 352 749 q 428 792 393 792 q 481 783 463 792 q 511 760 499 774 q 535 701 535 732 q 528 653 535 671 q 508 622 521 635 m 102 483 l 770 483 l 770 390 l 102 390 l 102 483 m 360 113 q 355 120 360 113 q 343 144 349 127 q 338 182 338 162 q 345 221 338 202 q 365 253 352 239 q 428 282 393 282 q 481 273 463 282 q 511 250 499 264 q 535 191 535 222 q 528 143 535 161 q 508 111 521 125 q 445 81 479 81 q 391 90 410 81 q 360 113 372 98 z "},"":{"ha":926,"x_min":83,"x_max":842,"o":"m 746 91 q 722 66 746 91 q 628 13 699 41 q 466 -16 558 -16 q 296 13 374 -16 l 210 -115 q 168 -148 187 -148 q 127 -114 127 -148 q 149 -64 127 -97 l 226 50 q 117 183 155 98 q 83 335 83 256 q 113 480 83 414 q 194 594 142 545 q 464 700 304 700 q 644 665 563 700 l 734 798 q 759 826 749 819 q 782 832 768 832 q 805 824 795 832 q 815 802 815 817 q 791 745 815 780 l 711 626 q 834 429 808 551 q 842 334 842 391 q 818 209 842 276 q 746 91 793 141 m 577 567 q 427 638 507 638 q 297 570 349 638 q 243 396 243 502 q 306 168 243 269 l 577 567 m 358 104 q 498 43 423 43 q 625 109 574 43 q 680 279 680 176 q 626 501 680 404 l 358 104 z "},"":{"ha":1039,"x_min":51,"x_max":952,"o":"m 667 77 q 449 -16 573 -16 q 259 50 334 -16 q 184 218 184 116 l 184 451 q 173 605 184 578 q 145 637 161 632 q 111 642 129 642 l 73 637 q 51 654 51 637 q 114 686 51 686 l 218 680 q 235 681 227 680 l 252 682 q 287 684 270 684 q 313 681 304 684 q 327 666 321 677 q 336 586 336 646 l 336 218 q 425 68 336 98 q 486 58 452 58 q 667 151 576 58 l 667 450 q 655 605 667 578 q 628 637 644 632 q 593 642 612 642 l 555 637 q 534 654 534 637 q 597 686 534 686 l 701 680 q 718 681 709 680 l 734 682 q 770 684 753 684 q 796 681 787 684 q 810 666 804 677 q 819 585 819 645 l 819 234 q 830 79 819 106 q 858 47 842 52 q 892 43 874 43 l 930 47 q 952 31 952 47 q 889 -2 952 -2 l 785 4 q 768 3 777 4 l 751 2 q 718 0 733 0 q 695 3 703 0 q 681 16 687 7 q 667 77 669 34 m 409 900 q 320 979 332 939 q 317 1010 317 991 q 334 1043 317 1028 q 370 1059 351 1059 q 402 1056 389 1059 q 429 1046 415 1054 q 498 981 459 1029 l 606 846 q 618 826 618 833 q 600 807 618 807 q 570 817 589 807 l 409 900 z "},"":{"ha":1039,"x_min":51,"x_max":952,"o":"m 667 77 q 449 -16 573 -16 q 259 50 334 -16 q 184 218 184 116 l 184 451 q 173 605 184 578 q 145 637 161 632 q 111 642 129 642 l 73 637 q 51 654 51 637 q 114 686 51 686 l 218 680 q 235 681 227 680 l 252 682 q 287 684 270 684 q 313 681 304 684 q 327 666 321 677 q 336 586 336 646 l 336 218 q 425 68 336 98 q 486 58 452 58 q 667 151 576 58 l 667 450 q 655 605 667 578 q 628 637 644 632 q 593 642 612 642 l 555 637 q 534 654 534 637 q 597 686 534 686 l 701 680 q 718 681 709 680 l 734 682 q 770 684 753 684 q 796 681 787 684 q 810 666 804 677 q 819 585 819 645 l 819 234 q 830 79 819 106 q 858 47 842 52 q 892 43 874 43 l 930 47 q 952 31 952 47 q 889 -2 952 -2 l 785 4 q 768 3 777 4 l 751 2 q 718 0 733 0 q 695 3 703 0 q 681 16 687 7 q 667 77 669 34 m 364 817 q 335 807 345 807 q 321 813 326 807 q 317 826 317 819 q 328 846 317 833 l 437 981 q 497 1042 475 1029 q 556 1059 528 1059 q 601 1043 583 1059 q 618 1010 618 1028 q 614 980 618 991 q 602 955 611 968 q 526 900 578 926 l 364 817 z "},"":{"ha":1039,"x_min":51,"x_max":952,"o":"m 667 77 q 449 -16 573 -16 q 259 50 334 -16 q 184 218 184 116 l 184 451 q 173 605 184 578 q 145 637 161 632 q 111 642 129 642 l 73 637 q 51 654 51 637 q 114 686 51 686 l 218 680 q 235 681 227 680 l 252 682 q 287 684 270 684 q 313 681 304 684 q 327 666 321 677 q 336 586 336 646 l 336 218 q 425 68 336 98 q 486 58 452 58 q 667 151 576 58 l 667 450 q 655 605 667 578 q 628 637 644 632 q 593 642 612 642 l 555 637 q 534 654 534 637 q 597 686 534 686 l 701 680 q 718 681 709 680 l 734 682 q 770 684 753 684 q 796 681 787 684 q 810 666 804 677 q 819 585 819 645 l 819 234 q 830 79 819 106 q 858 47 842 52 q 892 43 874 43 l 930 47 q 952 31 952 47 q 889 -2 952 -2 l 785 4 q 768 3 777 4 l 751 2 q 718 0 733 0 q 695 3 703 0 q 681 16 687 7 q 667 77 669 34 m 290 825 q 256 810 269 810 q 235 827 235 810 q 247 854 235 841 l 395 1022 q 447 1071 435 1067 q 466 1075 458 1075 q 480 1073 473 1075 q 496 1065 487 1071 q 539 1022 514 1052 l 688 854 q 699 827 699 841 q 695 816 699 822 q 684 810 691 810 q 645 825 666 810 l 467 939 l 290 825 z "},"":{"ha":1039,"x_min":51,"x_max":952,"o":"m 667 77 q 449 -16 573 -16 q 259 50 334 -16 q 184 218 184 116 l 184 451 q 173 605 184 578 q 145 637 161 632 q 111 642 129 642 l 73 637 q 51 654 51 637 q 114 686 51 686 l 218 680 q 235 681 227 680 l 252 682 q 287 684 270 684 q 313 681 304 684 q 327 666 321 677 q 336 586 336 646 l 336 218 q 425 68 336 98 q 486 58 452 58 q 667 151 576 58 l 667 450 q 655 605 667 578 q 628 637 644 632 q 593 642 612 642 l 555 637 q 534 654 534 637 q 597 686 534 686 l 701 680 q 718 681 709 680 l 734 682 q 770 684 753 684 q 796 681 787 684 q 810 666 804 677 q 819 585 819 645 l 819 234 q 830 79 819 106 q 858 47 842 52 q 892 43 874 43 l 930 47 q 952 31 952 47 q 889 -2 952 -2 l 785 4 q 768 3 777 4 l 751 2 q 718 0 733 0 q 695 3 703 0 q 681 16 687 7 q 667 77 669 34 m 702 858 q 695 851 702 858 q 671 836 689 844 q 628 827 652 827 q 585 836 604 827 q 555 859 566 845 q 532 918 532 886 q 539 967 532 949 q 559 1000 546 986 q 622 1029 587 1029 q 675 1020 656 1029 q 705 997 693 1011 q 729 938 729 968 q 722 890 729 907 q 702 858 715 872 m 376 858 q 370 851 376 858 q 345 836 363 844 q 302 827 327 827 q 259 836 278 827 q 229 859 241 845 q 206 918 206 886 q 213 967 206 949 q 233 1000 220 986 q 296 1029 262 1029 q 349 1020 331 1029 q 380 997 368 1011 q 404 938 404 968 q 396 890 404 907 q 376 858 389 872 z "},"":{"ha":926,"x_min":-5,"x_max":914,"o":"m 892 635 l 854 640 q 783 602 814 640 q 709 459 751 563 l 484 -93 q 291 -331 385 -297 q 233 -341 264 -341 q 174 -332 203 -341 q 124 -307 144 -323 q 83 -228 83 -275 q 95 -192 83 -206 q 126 -178 108 -178 q 156 -188 144 -178 q 179 -218 168 -199 q 197 -246 190 -237 q 212 -260 204 -255 q 250 -271 227 -271 q 288 -264 272 -271 q 324 -233 304 -258 q 433 -40 366 -183 l 433 -37 l 179 489 q 79 633 117 615 q 55 640 66 640 l 17 635 q -5 650 -5 635 q 58 684 -5 684 l 191 673 l 371 684 q 431 663 420 684 q 434 652 434 657 q 412 635 434 635 l 361 641 q 312 604 312 641 q 326 557 312 587 l 505 141 l 659 529 q 680 610 680 585 q 637 641 680 641 l 582 635 q 560 650 560 635 q 622 684 560 684 q 656 682 640 684 l 691 678 q 754 673 729 673 q 803 679 779 673 q 857 684 828 684 q 900 675 885 684 q 914 650 914 665 q 892 635 914 635 m 402 817 q 373 807 383 807 q 359 813 363 807 q 355 826 355 819 q 366 846 355 833 l 475 981 q 535 1042 513 1029 q 594 1059 566 1059 q 638 1043 621 1059 q 656 1010 656 1028 q 652 980 656 991 q 640 955 649 968 q 564 900 616 926 l 402 817 z "},"":{"ha":925,"x_min":3,"x_max":860,"o":"m 34 -310 l 67 -315 q 121 -279 107 -315 q 141 -123 141 -224 l 141 785 q 111 957 141 918 q 78 980 98 975 q 41 988 59 986 q 13 995 23 991 q 3 1010 3 1000 q 43 1036 3 1036 l 142 1028 q 167 1029 155 1028 l 217 1035 q 242 1036 230 1036 q 264 1034 254 1036 q 279 1024 273 1032 q 294 954 294 1006 l 294 643 q 474 700 377 700 q 641 675 572 700 q 760 605 711 651 q 860 342 860 509 q 754 90 860 194 q 491 -16 647 -16 q 294 34 372 -16 l 294 -123 q 300 -243 294 -218 q 315 -283 307 -268 q 372 -315 330 -315 l 406 -310 q 427 -329 427 -310 q 360 -359 427 -359 l 216 -349 q 193 -350 205 -349 l 167 -351 q 129 -355 143 -353 q 76 -359 96 -359 q 12 -329 12 -359 q 34 -310 12 -310 m 454 638 q 294 570 368 638 l 294 160 q 425 53 331 77 q 494 46 453 46 q 576 68 534 46 q 646 125 617 90 q 704 309 704 199 q 633 549 704 457 q 454 638 563 638 z "},"":{"ha":926,"x_min":-5,"x_max":914,"o":"m 892 635 l 854 640 q 783 602 814 640 q 709 459 751 563 l 484 -93 q 291 -331 385 -297 q 233 -341 264 -341 q 174 -332 203 -341 q 124 -307 144 -323 q 83 -228 83 -275 q 95 -192 83 -206 q 126 -178 108 -178 q 156 -188 144 -178 q 179 -218 168 -199 q 197 -246 190 -237 q 212 -260 204 -255 q 250 -271 227 -271 q 288 -264 272 -271 q 324 -233 304 -258 q 433 -40 366 -183 l 433 -37 l 179 489 q 79 633 117 615 q 55 640 66 640 l 17 635 q -5 650 -5 635 q 58 684 -5 684 l 191 673 l 371 684 q 431 663 420 684 q 434 652 434 657 q 412 635 434 635 l 361 641 q 312 604 312 641 q 326 557 312 587 l 505 141 l 659 529 q 680 610 680 585 q 637 641 680 641 l 582 635 q 560 650 560 635 q 622 684 560 684 q 656 682 640 684 l 691 678 q 754 673 729 673 q 803 679 779 673 q 857 684 828 684 q 900 675 885 684 q 914 650 914 665 q 892 635 914 635 m 740 858 q 733 851 740 858 q 709 836 727 844 q 666 827 690 827 q 623 836 642 827 q 593 859 604 845 q 570 918 570 886 q 577 967 570 949 q 597 1000 584 986 q 660 1029 625 1029 q 713 1020 694 1029 q 743 997 731 1011 q 767 938 767 968 q 760 890 767 907 q 740 858 753 872 m 414 858 q 408 851 414 858 q 383 836 401 844 q 340 827 365 827 q 297 836 316 827 q 267 859 279 845 q 244 918 244 886 q 251 967 244 949 q 271 1000 258 986 q 334 1029 300 1029 q 387 1020 369 1029 q 418 997 406 1011 q 441 938 441 968 q 434 890 441 907 q 414 858 427 872 z "},"":{"ha":1158,"x_min":-18,"x_max":1177,"o":"m 129 10 l 34 0 q -6 9 7 0 q -18 31 -18 18 q 4 50 -18 50 l 37 45 q 88 71 68 45 q 181 241 125 118 q 539 1015 528 992 q 557 1048 550 1037 q 581 1065 569 1065 q 605 1048 593 1065 q 654 952 623 1021 l 1008 180 q 1096 51 1058 70 q 1121 45 1108 45 l 1154 50 q 1177 31 1177 50 q 1122 0 1177 0 l 991 10 l 825 0 q 775 10 790 0 q 761 31 761 20 q 783 50 761 50 l 831 43 q 859 48 850 43 q 868 66 868 54 q 867 87 868 79 q 863 107 865 96 q 840 163 857 127 l 788 272 q 766 300 778 294 q 712 312 747 312 l 361 312 q 295 288 311 312 q 285 268 290 279 l 252 189 q 214 79 214 100 q 267 45 214 45 l 300 50 q 321 31 321 50 q 257 0 321 0 q 196 3 219 0 q 129 10 150 10 m 342 392 q 418 371 342 371 l 651 371 q 726 382 716 371 q 729 392 729 387 q 724 410 729 397 l 574 774 q 534 839 547 839 q 506 798 523 839 l 351 422 q 342 392 342 403 m 808 1314 q 858 1268 858 1314 q 845 1234 858 1246 q 810 1221 831 1221 l 349 1221 q 314 1234 327 1221 q 300 1268 300 1246 q 350 1314 300 1314 l 808 1314 z "},"":{"ha":926,"x_min":117,"x_max":907,"o":"m 664 0 q 620 69 625 0 q 463 -11 560 7 q 380 -16 431 -16 q 276 -1 329 -16 q 188 42 223 14 q 117 199 117 98 q 205 365 117 309 q 402 414 281 414 q 619 363 523 414 l 619 444 q 563 591 619 540 q 419 639 511 639 q 224 519 311 639 q 176 477 192 477 q 159 492 159 477 q 168 533 159 507 q 185 675 185 583 q 207 705 185 705 q 268 678 234 705 q 284 671 277 671 q 307 676 294 671 q 338 685 321 681 q 375 692 355 688 q 447 700 422 700 q 755 534 712 700 q 768 428 768 484 l 768 234 q 773 113 768 136 q 784 74 778 90 q 810 50 791 58 q 847 42 829 42 l 885 47 q 907 30 907 47 q 844 -2 907 -2 l 740 4 q 722 3 731 4 l 704 2 q 664 0 686 0 m 318 309 q 307 299 318 309 q 286 265 296 290 q 275 210 275 241 q 287 150 275 178 q 319 100 298 121 q 448 58 364 58 q 585 104 524 58 q 619 139 604 119 l 619 300 q 494 346 567 333 q 437 350 470 350 q 371 339 404 350 q 318 309 339 328 m 206 970 l 665 970 l 665 884 l 206 884 l 206 970 z "},"":{"ha":1158,"x_min":-18,"x_max":1177,"o":"m 129 10 l 34 0 q -6 9 7 0 q -18 31 -18 18 q 4 50 -18 50 l 37 45 q 88 71 68 45 q 181 241 125 118 q 539 1015 528 992 q 557 1048 550 1037 q 581 1065 569 1065 q 605 1048 593 1065 q 654 952 623 1021 l 1008 180 q 1096 51 1058 70 q 1121 45 1108 45 l 1154 50 q 1177 31 1177 50 q 1122 0 1177 0 l 991 10 l 825 0 q 775 10 790 0 q 761 31 761 20 q 783 50 761 50 l 831 43 q 859 48 850 43 q 868 66 868 54 q 867 87 868 79 q 863 107 865 96 q 840 163 857 127 l 788 272 q 766 300 778 294 q 712 312 747 312 l 361 312 q 295 288 311 312 q 285 268 290 279 l 252 189 q 214 79 214 100 q 267 45 214 45 l 300 50 q 321 31 321 50 q 257 0 321 0 q 196 3 219 0 q 129 10 150 10 m 342 392 q 418 371 342 371 l 651 371 q 726 382 716 371 q 729 392 729 387 q 724 410 729 397 l 574 774 q 534 839 547 839 q 506 798 523 839 l 351 422 q 342 392 342 403 m 579 1109 q 336 1245 412 1109 q 296 1342 312 1288 q 367 1362 333 1356 q 437 1356 400 1368 q 529 1183 456 1223 q 579 1169 553 1169 q 702 1279 661 1169 q 721 1356 715 1314 q 782 1363 755 1368 q 863 1342 819 1356 q 579 1109 793 1109 z "},"":{"ha":926,"x_min":117,"x_max":907,"o":"m 664 0 q 620 69 625 0 q 463 -11 560 7 q 380 -16 431 -16 q 276 -1 329 -16 q 188 42 223 14 q 117 199 117 98 q 205 365 117 309 q 402 414 281 414 q 619 363 523 414 l 619 444 q 563 591 619 540 q 419 639 511 639 q 224 519 311 639 q 176 477 192 477 q 159 492 159 477 q 168 533 159 507 q 185 675 185 583 q 207 705 185 705 q 268 678 234 705 q 284 671 277 671 q 307 676 294 671 q 338 685 321 681 q 375 692 355 688 q 447 700 422 700 q 755 534 712 700 q 768 428 768 484 l 768 234 q 773 113 768 136 q 784 74 778 90 q 810 50 791 58 q 847 42 829 42 l 885 47 q 907 30 907 47 q 844 -2 907 -2 l 740 4 q 722 3 731 4 l 704 2 q 664 0 686 0 m 318 309 q 307 299 318 309 q 286 265 296 290 q 275 210 275 241 q 287 150 275 178 q 319 100 298 121 q 448 58 364 58 q 585 104 524 58 q 619 139 604 119 l 619 300 q 494 346 567 333 q 437 350 470 350 q 371 339 404 350 q 318 309 339 328 m 435 829 q 193 964 268 829 q 152 1062 168 1008 q 223 1082 189 1076 q 294 1076 256 1088 q 385 902 313 943 q 435 889 409 889 q 558 999 517 889 q 577 1076 571 1034 q 638 1083 612 1088 q 719 1062 675 1076 q 435 829 649 829 z "},"":{"ha":1158,"x_min":-18,"x_max":1177,"o":"m 129 10 l 34 0 q -6 9 7 0 q -18 31 -18 18 q 4 50 -18 50 l 37 45 q 88 71 68 45 q 181 241 125 118 q 539 1015 528 992 q 557 1048 550 1037 q 581 1065 569 1065 q 605 1048 593 1065 q 654 952 623 1021 l 1008 180 q 1096 51 1058 70 q 1121 45 1108 45 l 1154 50 q 1177 31 1177 50 q 1122 0 1177 0 q 1095 1 1109 0 l 1066 4 q 1017 -134 1017 -44 q 1086 -255 1017 -212 q 1137 -277 1112 -271 q 1166 -289 1162 -283 q 1171 -300 1171 -294 q 1166 -311 1171 -307 q 1152 -316 1160 -316 l 1001 -317 q 910 -193 910 -317 q 1001 10 910 -68 l 991 10 l 825 0 q 775 10 790 0 q 761 31 761 20 q 783 50 761 50 l 831 43 q 859 48 850 43 q 868 66 868 54 q 867 87 868 79 q 863 107 865 96 q 840 163 857 127 l 788 272 q 766 300 778 294 q 712 312 747 312 l 361 312 q 295 288 311 312 q 285 268 290 279 l 252 189 q 214 79 214 100 q 267 45 214 45 l 300 50 q 321 31 321 50 q 257 0 321 0 q 196 3 219 0 q 129 10 150 10 m 342 392 q 418 371 342 371 l 651 371 q 726 382 716 371 q 729 392 729 387 q 724 410 729 397 l 574 774 q 534 839 547 839 q 506 798 523 839 l 351 422 q 342 392 342 403 z "},"":{"ha":926,"x_min":117,"x_max":907,"o":"m 664 0 q 620 69 625 0 q 463 -11 560 7 q 380 -16 431 -16 q 276 -1 329 -16 q 188 42 223 14 q 117 199 117 98 q 205 365 117 309 q 402 414 281 414 q 619 363 523 414 l 619 444 q 563 591 619 540 q 419 639 511 639 q 224 519 311 639 q 176 477 192 477 q 159 492 159 477 q 168 533 159 507 q 185 675 185 583 q 207 705 185 705 q 268 678 234 705 q 284 671 277 671 q 307 676 294 671 q 338 685 321 681 q 375 692 355 688 q 447 700 422 700 q 755 534 712 700 q 768 428 768 484 l 768 234 q 773 113 768 136 q 784 74 778 90 q 810 50 791 58 q 847 42 829 42 l 885 47 q 907 30 907 47 q 844 -2 907 -2 q 793 1 825 -2 q 746 -134 746 -47 q 817 -255 746 -212 q 866 -277 841 -271 q 896 -289 891 -283 q 901 -300 901 -294 q 895 -311 901 -307 q 881 -316 890 -316 l 730 -317 q 640 -196 640 -317 q 724 3 640 -75 q 699 1 713 2 q 664 0 686 0 m 318 309 q 307 299 318 309 q 286 265 296 290 q 275 210 275 241 q 287 150 275 178 q 319 100 298 121 q 448 58 364 58 q 585 104 524 58 q 619 139 604 119 l 619 300 q 494 346 567 333 q 437 350 470 350 q 371 339 404 350 q 318 309 339 328 z "},"":{"ha":1158,"x_min":101,"x_max":1061,"o":"m 1056 137 q 649 -16 895 -16 q 249 133 402 -16 q 101 494 101 275 q 259 903 101 743 q 496 1040 358 1003 q 621 1059 564 1059 q 711 1054 677 1059 q 772 1041 745 1048 q 844 1017 814 1029 q 899 999 888 999 q 942 1021 920 999 l 971 1050 q 999 1069 990 1069 q 1016 1041 1016 1069 q 1017 992 1016 1013 q 1021 954 1018 972 q 1038 869 1027 909 l 1054 806 q 1061 767 1061 783 q 1044 739 1061 739 q 1023 754 1031 739 q 857 928 967 863 q 633 992 749 992 q 359 882 470 992 q 247 595 247 769 q 284 384 247 481 q 384 215 321 286 q 532 103 448 143 q 712 62 616 62 q 963 202 872 62 q 1015 329 996 254 q 1025 358 1020 347 q 1043 369 1030 369 q 1056 329 1056 369 l 1056 137 m 533 1133 q 504 1122 514 1122 q 490 1128 494 1122 q 486 1141 486 1134 q 497 1162 486 1148 l 606 1297 q 700 1371 658 1362 q 733 1374 713 1374 q 769 1359 752 1374 q 787 1316 787 1343 q 766 1265 787 1289 q 694 1215 745 1241 l 533 1133 z "},"":{"ha":811,"x_min":83,"x_max":750,"o":"m 750 493 q 734 476 750 476 q 679 525 719 476 q 581 606 640 574 q 468 637 522 637 q 375 619 414 637 q 307 567 336 600 q 243 382 243 494 q 323 151 243 244 q 507 62 400 62 q 655 114 590 62 q 691 150 677 131 q 710 175 704 169 q 725 181 717 181 q 740 176 734 181 q 745 164 745 171 q 720 105 745 138 q 458 -16 624 -16 q 191 84 297 -16 q 83 342 83 185 q 180 589 83 486 q 454 700 287 700 q 591 678 518 700 q 621 671 613 671 q 662 685 634 671 q 705 700 690 700 q 725 675 725 700 q 725 629 725 650 q 728 591 726 608 q 741 529 732 555 q 750 493 750 503 m 359 817 q 331 807 340 807 q 316 813 321 807 q 312 826 312 819 q 323 846 312 833 l 432 981 q 492 1042 471 1029 q 551 1059 524 1059 q 596 1043 578 1059 q 613 1010 613 1028 q 610 980 613 991 q 597 955 606 968 q 521 900 574 926 l 359 817 z "},"":{"ha":1158,"x_min":101,"x_max":1061,"o":"m 1056 137 q 649 -16 895 -16 q 249 133 402 -16 q 101 494 101 275 q 259 903 101 743 q 496 1040 358 1003 q 621 1059 564 1059 q 711 1054 677 1059 q 772 1041 745 1048 q 844 1017 814 1029 q 899 999 888 999 q 942 1021 920 999 l 971 1050 q 999 1069 990 1069 q 1016 1041 1016 1069 q 1017 992 1016 1013 q 1021 954 1018 972 q 1038 869 1027 909 l 1054 806 q 1061 767 1061 783 q 1044 739 1061 739 q 1023 754 1031 739 q 857 928 967 863 q 633 992 749 992 q 359 882 470 992 q 247 595 247 769 q 284 384 247 481 q 384 215 321 286 q 532 103 448 143 q 712 62 616 62 q 963 202 872 62 q 1015 329 996 254 q 1025 358 1020 347 q 1043 369 1030 369 q 1056 329 1056 369 l 1056 137 m 458 1126 q 425 1112 437 1112 q 409 1118 413 1112 q 404 1129 404 1124 q 416 1156 404 1143 l 564 1324 q 616 1373 604 1369 q 637 1377 627 1377 q 708 1324 662 1377 l 857 1156 q 868 1129 868 1143 q 864 1118 868 1124 q 852 1112 860 1112 q 814 1126 836 1112 l 635 1241 l 458 1126 z "},"":{"ha":811,"x_min":83,"x_max":750,"o":"m 750 493 q 734 476 750 476 q 679 525 719 476 q 581 606 640 574 q 468 637 522 637 q 375 619 414 637 q 307 567 336 600 q 243 382 243 494 q 323 151 243 244 q 507 62 400 62 q 655 114 590 62 q 691 150 677 131 q 710 175 704 169 q 725 181 717 181 q 740 176 734 181 q 745 164 745 171 q 720 105 745 138 q 458 -16 624 -16 q 191 84 297 -16 q 83 342 83 185 q 180 589 83 486 q 454 700 287 700 q 591 678 518 700 q 621 671 613 671 q 662 685 634 671 q 705 700 690 700 q 725 675 725 700 q 725 629 725 650 q 728 591 726 608 q 741 529 732 555 q 750 493 750 503 m 285 825 q 252 810 264 810 q 231 827 231 810 q 242 854 231 841 l 391 1022 q 442 1071 431 1067 q 461 1075 454 1075 q 475 1073 468 1075 q 491 1065 482 1071 q 534 1022 509 1052 l 683 854 q 694 827 694 841 q 690 816 694 822 q 679 810 686 810 q 640 825 661 810 l 462 939 l 285 825 z "},"":{"ha":1158,"x_min":101,"x_max":1061,"o":"m 1056 137 q 649 -16 895 -16 q 249 133 402 -16 q 101 494 101 275 q 259 903 101 743 q 496 1040 358 1003 q 621 1059 564 1059 q 711 1054 677 1059 q 772 1041 745 1048 q 844 1017 814 1029 q 899 999 888 999 q 942 1021 920 999 l 971 1050 q 999 1069 990 1069 q 1016 1041 1016 1069 q 1017 992 1016 1013 q 1021 954 1018 972 q 1038 869 1027 909 l 1054 806 q 1061 767 1061 783 q 1044 739 1061 739 q 1023 754 1031 739 q 857 928 967 863 q 633 992 749 992 q 359 882 470 992 q 247 595 247 769 q 284 384 247 481 q 384 215 321 286 q 532 103 448 143 q 712 62 616 62 q 963 202 872 62 q 1015 329 996 254 q 1025 358 1020 347 q 1043 369 1030 369 q 1056 329 1056 369 l 1056 137 m 634 1158 q 586 1168 607 1158 q 552 1194 566 1179 q 526 1256 526 1225 q 534 1307 526 1286 q 557 1343 542 1327 q 639 1377 589 1377 q 721 1339 690 1377 q 747 1262 747 1305 q 717 1193 747 1224 q 634 1158 684 1158 z "},"":{"ha":811,"x_min":83,"x_max":750,"o":"m 750 493 q 734 476 750 476 q 679 525 719 476 q 581 606 640 574 q 468 637 522 637 q 375 619 414 637 q 307 567 336 600 q 243 382 243 494 q 323 151 243 244 q 507 62 400 62 q 655 114 590 62 q 691 150 677 131 q 710 175 704 169 q 725 181 717 181 q 740 176 734 181 q 745 164 745 171 q 720 105 745 138 q 458 -16 624 -16 q 191 84 297 -16 q 83 342 83 185 q 180 589 83 486 q 454 700 287 700 q 591 678 518 700 q 621 671 613 671 q 662 685 634 671 q 705 700 690 700 q 725 675 725 700 q 725 629 725 650 q 728 591 726 608 q 741 529 732 555 q 750 493 750 503 m 378 853 q 372 861 378 853 q 358 887 365 869 q 352 926 352 906 q 360 966 352 945 q 383 1002 368 986 q 465 1036 416 1036 q 547 998 517 1036 q 574 921 574 964 q 543 852 574 883 q 472 817 510 817 q 413 827 433 817 q 378 853 392 838 z "},"":{"ha":1158,"x_min":101,"x_max":1061,"o":"m 1056 137 q 649 -16 895 -16 q 249 133 402 -16 q 101 494 101 275 q 259 903 101 743 q 496 1040 358 1003 q 621 1059 564 1059 q 711 1054 677 1059 q 772 1041 745 1048 q 844 1017 814 1029 q 899 999 888 999 q 942 1021 920 999 l 971 1050 q 999 1069 990 1069 q 1016 1041 1016 1069 q 1017 992 1016 1013 q 1021 954 1018 972 q 1038 869 1027 909 l 1054 806 q 1061 767 1061 783 q 1044 739 1061 739 q 1023 754 1031 739 q 857 928 967 863 q 633 992 749 992 q 359 882 470 992 q 247 595 247 769 q 284 384 247 481 q 384 215 321 286 q 532 103 448 143 q 712 62 616 62 q 963 202 872 62 q 1015 329 996 254 q 1025 358 1020 347 q 1043 369 1030 369 q 1056 329 1056 369 l 1056 137 m 708 1165 q 637 1112 662 1112 q 596 1130 614 1112 q 564 1165 579 1148 l 416 1333 q 404 1360 404 1346 q 409 1371 404 1365 q 420 1377 413 1377 q 458 1362 437 1377 l 635 1248 l 814 1362 q 848 1377 836 1377 q 868 1360 868 1377 q 857 1333 868 1346 l 708 1165 z "},"":{"ha":811,"x_min":83,"x_max":750,"o":"m 750 493 q 734 476 750 476 q 679 525 719 476 q 581 606 640 574 q 468 637 522 637 q 375 619 414 637 q 307 567 336 600 q 243 382 243 494 q 323 151 243 244 q 507 62 400 62 q 655 114 590 62 q 691 150 677 131 q 710 175 704 169 q 725 181 717 181 q 740 176 734 181 q 745 164 745 171 q 720 105 745 138 q 458 -16 624 -16 q 191 84 297 -16 q 83 342 83 185 q 180 589 83 486 q 454 700 287 700 q 591 678 518 700 q 621 671 613 671 q 662 685 634 671 q 705 700 690 700 q 725 675 725 700 q 725 629 725 650 q 728 591 726 608 q 741 529 732 555 q 750 493 750 503 m 534 863 q 464 810 488 810 q 423 828 440 810 q 391 863 406 846 l 242 1031 q 231 1058 231 1044 q 235 1069 231 1063 q 247 1075 239 1075 q 285 1061 263 1075 l 462 946 l 640 1061 q 674 1075 662 1075 q 694 1058 694 1075 q 683 1031 694 1044 l 534 863 z "},"":{"ha":1275,"x_min":68,"x_max":1197,"o":"m 123 991 l 90 987 q 68 1006 68 987 q 80 1026 68 1017 q 123 1036 93 1036 q 170 1035 153 1036 l 202 1032 q 294 1027 249 1027 q 429 1034 362 1027 q 614 1046 549 1046 q 1038 903 878 1046 q 1197 522 1197 761 q 1021 136 1197 290 q 591 -16 847 -16 q 495 -11 535 -16 l 422 -1 q 316 10 348 10 q 271 10 283 10 q 247 9 259 9 q 203 5 217 7 q 80 10 104 -9 q 68 31 68 20 q 90 50 68 50 l 134 45 q 186 69 172 45 q 210 148 208 106 q 212 218 212 189 l 212 810 q 203 920 212 894 q 186 962 193 947 q 123 991 170 991 m 366 889 l 366 162 q 410 77 366 101 q 574 52 458 52 q 772 77 690 52 q 912 156 855 102 q 1029 507 1029 269 q 905 862 1029 740 q 575 980 784 980 q 366 889 366 980 m 704 1165 q 633 1112 658 1112 q 592 1130 610 1112 q 560 1165 575 1148 l 412 1333 q 400 1360 400 1346 q 405 1371 400 1365 q 416 1377 409 1377 q 454 1362 433 1377 l 631 1248 l 810 1362 q 844 1377 831 1377 q 864 1360 864 1377 q 852 1333 864 1346 l 704 1165 z "},"":{"ha":1158,"x_min":68,"x_max":1105,"o":"m 903 675 q 931 706 903 694 q 975 733 960 718 q 998 762 989 747 q 1011 813 1013 788 q 1000 848 1009 838 q 967 865 991 858 q 930 884 943 872 q 911 909 918 895 q 901 975 901 931 q 933 1034 901 1008 q 1006 1059 963 1059 q 1078 1018 1050 1059 q 1105 917 1105 978 q 1091 812 1105 857 q 1053 730 1076 767 q 937 648 999 648 q 903 675 903 648 m 628 39 q 451 -14 545 -14 q 287 12 357 -14 q 169 84 218 37 q 68 344 68 180 q 174 595 68 492 q 437 700 281 700 q 623 661 545 700 l 623 903 q 591 1078 623 1038 q 507 1110 568 1105 q 471 1133 471 1114 q 481 1147 471 1141 q 508 1154 490 1154 q 538 1152 525 1154 l 567 1149 q 633 1145 606 1145 q 699 1150 671 1145 q 738 1155 726 1155 q 756 1153 749 1155 q 768 1142 764 1150 q 775 1072 775 1128 l 775 234 q 786 79 775 106 q 814 47 798 52 q 848 43 830 43 l 886 47 q 908 31 908 47 q 845 -2 908 -2 l 741 4 q 724 3 732 4 l 707 2 q 667 0 689 0 q 628 39 637 0 m 475 43 q 623 100 559 42 l 623 557 q 495 632 578 615 q 432 637 471 637 q 353 616 394 637 q 283 559 311 595 q 224 378 224 486 q 296 140 224 237 q 475 43 367 43 z "},"":{"ha":1275,"x_min":68,"x_max":1197,"o":"m 123 991 l 90 987 q 68 1006 68 987 q 80 1026 68 1017 q 123 1036 93 1036 q 170 1035 153 1036 l 202 1032 q 294 1027 249 1027 q 429 1034 362 1027 q 614 1046 549 1046 q 1038 903 878 1046 q 1197 522 1197 761 q 1021 136 1197 290 q 591 -16 847 -16 q 495 -11 535 -16 l 422 -1 q 316 10 348 10 q 271 10 283 10 q 247 9 259 9 q 203 5 217 7 q 80 10 104 -9 q 68 31 68 20 q 90 50 68 50 l 134 45 q 186 69 172 45 q 210 148 208 106 q 212 218 212 189 l 212 489 l 129 489 q 94 495 107 489 q 80 524 80 501 q 94 550 80 546 q 131 555 108 555 l 212 555 l 212 810 q 203 920 212 894 q 186 962 193 947 q 123 991 170 991 m 366 889 l 366 555 l 606 555 q 652 538 644 555 q 656 515 656 532 q 606 489 656 489 l 366 489 l 366 162 q 410 77 366 101 q 574 52 458 52 q 772 77 690 52 q 912 156 855 102 q 1029 507 1029 269 q 905 862 1029 740 q 575 980 784 980 q 366 889 366 980 z "},"":{"ha":925,"x_min":68,"x_max":908,"o":"m 628 39 q 451 -14 545 -14 q 287 12 357 -14 q 169 84 218 37 q 68 344 68 180 q 174 595 68 492 q 437 700 281 700 q 623 661 545 700 l 623 837 l 374 837 q 314 867 314 837 q 376 894 314 894 l 623 894 l 623 903 q 591 1078 623 1038 q 507 1110 568 1105 q 471 1133 471 1114 q 481 1147 471 1141 q 508 1154 490 1154 q 538 1152 525 1154 l 567 1149 q 633 1145 606 1145 q 699 1150 671 1145 q 738 1155 726 1155 q 756 1153 749 1155 q 768 1142 764 1150 q 775 1072 775 1128 l 775 894 l 828 894 q 890 863 890 894 q 829 837 890 837 l 775 837 l 775 234 q 786 79 775 106 q 814 47 798 52 q 848 43 830 43 l 886 47 q 908 31 908 47 q 845 -2 908 -2 l 741 4 q 724 3 732 4 l 707 2 q 667 0 689 0 q 628 39 637 0 m 475 43 q 623 100 559 42 l 623 557 q 495 632 578 615 q 432 637 471 637 q 353 616 394 637 q 283 559 311 595 q 224 378 224 486 q 296 140 224 237 q 475 43 367 43 z "},"":{"ha":927,"x_min":35,"x_max":928,"o":"m 330 160 q 396 66 330 66 l 536 66 q 806 157 701 66 q 842 191 825 174 l 876 225 q 914 250 900 250 q 928 240 928 250 q 909 189 928 222 q 878 135 890 157 q 857 93 867 114 q 840 49 848 71 l 823 0 l 267 0 q 180 -3 202 0 q 98 -10 135 -10 q 48 0 60 -10 q 35 21 35 10 q 58 39 35 39 l 101 35 q 154 58 140 35 q 180 218 180 104 l 180 810 q 170 920 180 894 q 153 962 161 947 q 91 991 137 991 l 58 987 q 35 1006 35 987 q 48 1026 35 1017 q 90 1036 60 1036 q 137 1035 120 1036 l 170 1032 q 259 1026 222 1026 l 810 1026 q 833 920 815 978 q 864 804 864 820 q 853 787 864 787 q 833 800 844 787 q 734 906 753 891 q 701 930 716 921 q 669 946 686 939 q 577 960 632 960 l 396 960 q 344 944 358 960 q 330 897 330 928 l 330 610 q 392 571 330 571 l 558 571 q 647 618 607 571 q 667 650 661 635 q 677 671 673 665 q 687 676 681 676 q 705 642 705 676 l 699 534 l 705 428 q 687 394 705 394 q 669 414 677 394 q 647 452 661 435 q 617 481 633 470 q 558 505 586 505 l 391 505 q 346 492 362 505 q 330 460 330 479 l 330 160 m 711 1314 q 760 1268 760 1314 q 747 1234 760 1246 q 712 1221 734 1221 l 251 1221 q 216 1234 229 1221 q 203 1268 203 1246 q 252 1314 203 1314 l 711 1314 z "},"":{"ha":810,"x_min":63,"x_max":758,"o":"m 175 79 q 149 102 175 79 q 93 192 123 125 q 63 335 63 258 q 91 476 63 412 q 168 591 118 541 q 441 700 278 700 q 647 635 562 700 q 741 521 698 595 q 758 471 758 490 q 727 431 758 441 q 345 316 547 365 l 234 290 q 332 122 258 184 q 494 62 404 62 q 657 117 581 62 q 693 152 681 134 q 712 175 705 169 q 727 181 718 181 q 746 163 746 181 q 722 107 746 140 q 668 52 699 75 q 603 14 638 29 q 450 -16 533 -16 q 297 8 367 -16 q 175 79 227 33 m 226 347 q 580 448 456 404 q 596 467 596 453 q 591 497 596 480 q 575 534 585 515 q 550 571 565 553 q 515 605 535 590 q 427 637 472 637 q 347 622 382 637 q 283 573 311 606 q 225 374 225 503 l 225 360 q 226 347 225 353 m 214 970 l 672 970 l 672 884 l 214 884 l 214 970 z "},"":{"ha":927,"x_min":35,"x_max":928,"o":"m 330 160 q 396 66 330 66 l 536 66 q 806 157 701 66 q 842 191 825 174 l 876 225 q 914 250 900 250 q 928 240 928 250 q 909 189 928 222 q 878 135 890 157 q 857 93 867 114 q 840 49 848 71 l 823 0 l 267 0 q 180 -3 202 0 q 98 -10 135 -10 q 48 0 60 -10 q 35 21 35 10 q 58 39 35 39 l 101 35 q 154 58 140 35 q 180 218 180 104 l 180 810 q 170 920 180 894 q 153 962 161 947 q 91 991 137 991 l 58 987 q 35 1006 35 987 q 48 1026 35 1017 q 90 1036 60 1036 q 137 1035 120 1036 l 170 1032 q 259 1026 222 1026 l 810 1026 q 833 920 815 978 q 864 804 864 820 q 853 787 864 787 q 833 800 844 787 q 734 906 753 891 q 701 930 716 921 q 669 946 686 939 q 577 960 632 960 l 396 960 q 344 944 358 960 q 330 897 330 928 l 330 610 q 392 571 330 571 l 558 571 q 647 618 607 571 q 667 650 661 635 q 677 671 673 665 q 687 676 681 676 q 705 642 705 676 l 699 534 l 705 428 q 687 394 705 394 q 669 414 677 394 q 647 452 661 435 q 617 481 633 470 q 558 505 586 505 l 391 505 q 346 492 362 505 q 330 460 330 479 l 330 160 m 481 1109 q 239 1245 314 1109 q 198 1342 214 1288 q 269 1362 235 1356 q 340 1356 302 1368 q 431 1183 359 1223 q 481 1169 455 1169 q 604 1279 564 1169 q 623 1356 617 1314 q 684 1363 658 1368 q 765 1342 722 1356 q 481 1109 695 1109 z "},"":{"ha":810,"x_min":63,"x_max":758,"o":"m 175 79 q 149 102 175 79 q 93 192 123 125 q 63 335 63 258 q 91 476 63 412 q 168 591 118 541 q 441 700 278 700 q 647 635 562 700 q 741 521 698 595 q 758 471 758 490 q 727 431 758 441 q 345 316 547 365 l 234 290 q 332 122 258 184 q 494 62 404 62 q 657 117 581 62 q 693 152 681 134 q 712 175 705 169 q 727 181 718 181 q 746 163 746 181 q 722 107 746 140 q 668 52 699 75 q 603 14 638 29 q 450 -16 533 -16 q 297 8 367 -16 q 175 79 227 33 m 226 347 q 580 448 456 404 q 596 467 596 453 q 591 497 596 480 q 575 534 585 515 q 550 571 565 553 q 515 605 535 590 q 427 637 472 637 q 347 622 382 637 q 283 573 311 606 q 225 374 225 503 l 225 360 q 226 347 225 353 m 443 829 q 200 964 275 829 q 159 1062 176 1008 q 230 1082 197 1076 q 301 1076 264 1088 q 393 902 320 943 q 443 889 416 889 q 566 999 525 889 q 585 1076 578 1034 q 646 1083 619 1088 q 726 1062 683 1076 q 443 829 656 829 z "},"":{"ha":927,"x_min":35,"x_max":928,"o":"m 330 160 q 396 66 330 66 l 536 66 q 806 157 701 66 q 842 191 825 174 l 876 225 q 914 250 900 250 q 928 240 928 250 q 909 189 928 222 q 878 135 890 157 q 857 93 867 114 q 840 49 848 71 l 823 0 l 267 0 q 180 -3 202 0 q 98 -10 135 -10 q 48 0 60 -10 q 35 21 35 10 q 58 39 35 39 l 101 35 q 154 58 140 35 q 180 218 180 104 l 180 810 q 170 920 180 894 q 153 962 161 947 q 91 991 137 991 l 58 987 q 35 1006 35 987 q 48 1026 35 1017 q 90 1036 60 1036 q 137 1035 120 1036 l 170 1032 q 259 1026 222 1026 l 810 1026 q 833 920 815 978 q 864 804 864 820 q 853 787 864 787 q 833 800 844 787 q 734 906 753 891 q 701 930 716 921 q 669 946 686 939 q 577 960 632 960 l 396 960 q 344 944 358 960 q 330 897 330 928 l 330 610 q 392 571 330 571 l 558 571 q 647 618 607 571 q 667 650 661 635 q 677 671 673 665 q 687 676 681 676 q 705 642 705 676 l 699 534 l 705 428 q 687 394 705 394 q 669 414 677 394 q 647 452 661 435 q 617 481 633 470 q 558 505 586 505 l 391 505 q 346 492 362 505 q 330 460 330 479 l 330 160 m 479 1158 q 432 1168 452 1158 q 397 1194 411 1179 q 371 1256 371 1225 q 379 1307 371 1286 q 402 1343 387 1327 q 484 1377 435 1377 q 566 1339 536 1377 q 593 1262 593 1305 q 562 1193 593 1224 q 479 1158 529 1158 z "},"":{"ha":810,"x_min":63,"x_max":758,"o":"m 175 79 q 149 102 175 79 q 93 192 123 125 q 63 335 63 258 q 91 476 63 412 q 168 591 118 541 q 441 700 278 700 q 647 635 562 700 q 741 521 698 595 q 758 471 758 490 q 727 431 758 441 q 345 316 547 365 l 234 290 q 332 122 258 184 q 494 62 404 62 q 657 117 581 62 q 693 152 681 134 q 712 175 705 169 q 727 181 718 181 q 746 163 746 181 q 722 107 746 140 q 668 52 699 75 q 603 14 638 29 q 450 -16 533 -16 q 297 8 367 -16 q 175 79 227 33 m 226 347 q 580 448 456 404 q 596 467 596 453 q 591 497 596 480 q 575 534 585 515 q 550 571 565 553 q 515 605 535 590 q 427 637 472 637 q 347 622 382 637 q 283 573 311 606 q 225 374 225 503 l 225 360 q 226 347 225 353 m 359 853 q 352 861 359 853 q 339 887 345 869 q 332 926 332 906 q 340 966 332 945 q 363 1002 349 986 q 446 1036 396 1036 q 528 998 497 1036 q 554 921 554 964 q 524 852 554 883 q 452 817 490 817 q 393 827 414 817 q 359 853 372 838 z "},"":{"ha":927,"x_min":35,"x_max":928,"o":"m 616 -196 q 680 0 616 -85 l 267 0 q 180 -3 202 0 q 98 -10 135 -10 q 48 0 60 -10 q 35 21 35 10 q 58 39 35 39 l 101 35 q 154 58 140 35 q 180 218 180 104 l 180 810 q 170 920 180 894 q 153 962 161 947 q 91 991 137 991 l 58 987 q 35 1006 35 987 q 48 1026 35 1017 q 90 1036 60 1036 q 137 1035 120 1036 l 170 1032 q 259 1026 222 1026 l 810 1026 q 833 920 815 978 q 864 804 864 820 q 853 787 864 787 q 833 800 844 787 q 734 906 753 891 q 701 930 716 921 q 669 946 686 939 q 577 960 632 960 l 396 960 q 344 944 358 960 q 330 897 330 928 l 330 610 q 392 571 330 571 l 558 571 q 647 618 607 571 q 667 650 661 635 q 677 671 673 665 q 687 676 681 676 q 705 642 705 676 l 699 534 l 705 428 q 687 394 705 394 q 669 414 677 394 q 647 452 661 435 q 617 481 633 470 q 558 505 586 505 l 391 505 q 346 492 362 505 q 330 460 330 479 l 330 160 q 396 66 330 66 l 536 66 q 806 157 701 66 q 842 191 825 174 l 876 225 q 914 250 900 250 q 928 240 928 250 q 909 189 928 222 q 878 135 890 157 q 857 93 867 114 q 840 49 848 71 l 823 0 l 760 0 q 722 -134 722 -66 q 815 -255 722 -212 q 878 -277 847 -271 q 913 -289 908 -283 q 918 -300 918 -294 q 912 -311 918 -307 q 898 -316 907 -316 l 747 -317 q 627 -252 656 -317 q 616 -196 616 -229 z "},"":{"ha":810,"x_min":63,"x_max":758,"o":"m 541 -5 q 431 -16 495 -16 q 297 8 367 -16 q 175 79 227 33 q 63 342 63 180 q 168 591 63 487 q 441 700 278 700 q 647 635 562 700 q 741 521 698 595 q 758 471 758 490 q 727 431 758 441 q 345 316 547 365 l 234 290 q 332 122 258 184 q 494 62 404 62 q 657 117 581 62 q 693 152 681 134 q 712 175 705 169 q 727 181 718 181 q 746 163 746 181 q 724 110 746 140 q 684 65 702 80 q 650 32 667 50 q 618 -9 633 15 q 584 -134 584 -66 q 654 -255 584 -212 q 704 -277 679 -271 q 734 -289 729 -283 q 739 -300 739 -294 q 733 -311 739 -307 q 719 -316 728 -316 l 568 -317 q 477 -196 477 -317 q 541 -5 477 -94 m 226 347 q 580 448 456 404 q 596 467 596 453 q 591 497 596 480 q 575 534 585 515 q 550 571 565 553 q 515 605 535 590 q 427 637 472 637 q 347 622 382 637 q 283 573 311 606 q 225 374 225 503 l 225 360 q 226 347 225 353 z "},"":{"ha":927,"x_min":35,"x_max":928,"o":"m 330 160 q 396 66 330 66 l 536 66 q 806 157 701 66 q 842 191 825 174 l 876 225 q 914 250 900 250 q 928 240 928 250 q 909 189 928 222 q 878 135 890 157 q 857 93 867 114 q 840 49 848 71 l 823 0 l 267 0 q 180 -3 202 0 q 98 -10 135 -10 q 48 0 60 -10 q 35 21 35 10 q 58 39 35 39 l 101 35 q 154 58 140 35 q 180 218 180 104 l 180 810 q 170 920 180 894 q 153 962 161 947 q 91 991 137 991 l 58 987 q 35 1006 35 987 q 48 1026 35 1017 q 90 1036 60 1036 q 137 1035 120 1036 l 170 1032 q 259 1026 222 1026 l 810 1026 q 833 920 815 978 q 864 804 864 820 q 853 787 864 787 q 833 800 844 787 q 734 906 753 891 q 701 930 716 921 q 669 946 686 939 q 577 960 632 960 l 396 960 q 344 944 358 960 q 330 897 330 928 l 330 610 q 392 571 330 571 l 558 571 q 647 618 607 571 q 667 650 661 635 q 677 671 673 665 q 687 676 681 676 q 705 642 705 676 l 699 534 l 705 428 q 687 394 705 394 q 669 414 677 394 q 647 452 661 435 q 617 481 633 470 q 558 505 586 505 l 391 505 q 346 492 362 505 q 330 460 330 479 l 330 160 m 553 1165 q 483 1112 507 1112 q 442 1130 459 1112 q 410 1165 425 1148 l 261 1333 q 250 1360 250 1346 q 254 1371 250 1365 q 266 1377 258 1377 q 304 1362 282 1377 l 481 1248 l 659 1362 q 693 1377 681 1377 q 713 1360 713 1377 q 702 1333 713 1346 l 553 1165 z "},"":{"ha":810,"x_min":63,"x_max":758,"o":"m 175 79 q 149 102 175 79 q 93 192 123 125 q 63 335 63 258 q 91 476 63 412 q 168 591 118 541 q 441 700 278 700 q 647 635 562 700 q 741 521 698 595 q 758 471 758 490 q 727 431 758 441 q 345 316 547 365 l 234 290 q 332 122 258 184 q 494 62 404 62 q 657 117 581 62 q 693 152 681 134 q 712 175 705 169 q 727 181 718 181 q 746 163 746 181 q 722 107 746 140 q 668 52 699 75 q 603 14 638 29 q 450 -16 533 -16 q 297 8 367 -16 q 175 79 227 33 m 226 347 q 580 448 456 404 q 596 467 596 453 q 591 497 596 480 q 575 534 585 515 q 550 571 565 553 q 515 605 535 590 q 427 637 472 637 q 347 622 382 637 q 283 573 311 606 q 225 374 225 503 l 225 360 q 226 347 225 353 m 515 863 q 444 810 469 810 q 403 828 420 810 q 371 863 386 846 l 222 1031 q 211 1058 211 1044 q 215 1069 211 1063 q 227 1075 220 1075 q 265 1061 243 1075 l 442 946 l 621 1061 q 654 1075 642 1075 q 675 1058 675 1075 q 663 1031 675 1044 l 515 863 z "},"":{"ha":1158,"x_min":80,"x_max":1148,"o":"m 1126 507 l 1078 512 q 1039 393 1040 512 q 1039 339 1039 363 l 1039 135 l 982 104 q 931 73 955 90 q 873 39 908 56 q 796 9 838 21 q 595 -16 712 -16 q 384 25 479 -16 q 221 134 288 65 q 80 494 80 279 q 231 898 80 738 q 472 1039 328 1000 q 613 1059 544 1059 q 825 1021 732 1059 q 864 1010 853 1010 q 878 1010 874 1010 q 887 1015 882 1011 q 914 1038 895 1019 l 934 1059 q 962 1076 951 1076 q 979 1051 979 1076 q 981 1004 979 1025 q 989 960 984 982 q 1007 880 998 910 q 1023 801 1023 829 q 1008 773 1023 773 q 986 788 995 773 q 836 932 938 878 q 632 984 736 984 q 456 956 528 984 q 332 878 383 928 q 225 603 225 772 q 378 205 225 360 q 591 79 469 113 q 700 62 651 62 q 782 71 749 62 q 840 96 815 79 q 892 199 892 134 l 892 339 q 882 449 892 423 q 865 488 873 475 q 813 512 852 512 l 763 505 q 746 511 752 505 q 741 527 741 517 q 753 547 741 536 q 788 557 766 557 q 822 556 810 557 q 845 555 833 556 q 865 553 856 555 l 882 552 q 950 547 914 547 q 1031 552 1000 547 q 1092 557 1061 557 q 1136 547 1123 557 q 1148 526 1148 536 q 1126 507 1148 507 m 436 1126 q 402 1112 414 1112 q 386 1118 391 1112 q 382 1129 382 1124 q 393 1156 382 1143 l 542 1324 q 593 1373 582 1369 q 615 1377 605 1377 q 686 1324 640 1377 l 834 1156 q 846 1129 846 1143 q 842 1118 846 1124 q 830 1112 838 1112 q 791 1126 813 1112 l 613 1241 l 436 1126 z "},"":{"ha":925,"x_min":102,"x_max":881,"o":"m 264 -40 q 170 68 170 1 q 235 161 170 121 q 286 182 257 174 q 129 350 161 234 q 150 536 102 447 q 338 680 205 640 q 483 700 404 700 q 628 675 562 700 q 765 705 717 677 q 791 720 779 712 q 845 741 822 741 q 881 708 881 741 q 836 653 881 675 q 709 630 791 631 q 797 446 800 557 q 699 236 793 318 q 455 152 604 152 q 296 126 337 152 q 284 110 284 119 q 508 43 284 58 q 837 -74 781 24 q 855 -149 855 -106 q 828 -232 855 -192 q 750 -300 801 -271 q 463 -359 644 -359 q 186 -307 280 -359 q 105 -190 105 -262 q 194 -69 105 -119 q 264 -40 224 -52 m 329 281 q 343 264 329 281 q 398 230 357 248 q 479 212 438 212 q 548 221 519 212 q 597 250 576 231 q 643 363 641 290 q 628 487 646 436 q 580 571 610 537 q 434 637 520 637 q 319 591 366 637 q 271 477 273 544 q 284 362 269 411 q 329 281 300 314 m 518 -274 q 772 -193 772 -274 q 602 -96 772 -131 q 475 -79 537 -83 q 360 -67 395 -74 q 254 -137 279 -90 q 246 -171 246 -152 q 261 -210 246 -190 q 309 -243 277 -229 q 518 -274 379 -274 m 283 825 q 250 810 262 810 q 229 827 229 810 q 241 854 229 841 l 389 1022 q 441 1071 429 1067 q 459 1075 452 1075 q 474 1073 467 1075 q 490 1065 481 1071 q 533 1022 508 1052 l 682 854 q 693 827 693 841 q 689 816 693 822 q 677 810 685 810 q 639 825 660 810 l 460 939 l 283 825 z "},"":{"ha":1158,"x_min":80,"x_max":1148,"o":"m 1126 507 l 1078 512 q 1039 393 1040 512 q 1039 339 1039 363 l 1039 135 l 982 104 q 931 73 955 90 q 873 39 908 56 q 796 9 838 21 q 595 -16 712 -16 q 384 25 479 -16 q 221 134 288 65 q 80 494 80 279 q 231 898 80 738 q 472 1039 328 1000 q 613 1059 544 1059 q 825 1021 732 1059 q 864 1010 853 1010 q 878 1010 874 1010 q 887 1015 882 1011 q 914 1038 895 1019 l 934 1059 q 962 1076 951 1076 q 979 1051 979 1076 q 981 1004 979 1025 q 989 960 984 982 q 1007 880 998 910 q 1023 801 1023 829 q 1008 773 1023 773 q 986 788 995 773 q 836 932 938 878 q 632 984 736 984 q 456 956 528 984 q 332 878 383 928 q 225 603 225 772 q 378 205 225 360 q 591 79 469 113 q 700 62 651 62 q 782 71 749 62 q 840 96 815 79 q 892 199 892 134 l 892 339 q 882 449 892 423 q 865 488 873 475 q 813 512 852 512 l 763 505 q 746 511 752 505 q 741 527 741 517 q 753 547 741 536 q 788 557 766 557 q 822 556 810 557 q 845 555 833 556 q 865 553 856 555 l 882 552 q 950 547 914 547 q 1031 552 1000 547 q 1092 557 1061 557 q 1136 547 1123 557 q 1148 526 1148 536 q 1126 507 1148 507 m 614 1109 q 371 1245 446 1109 q 330 1342 347 1288 q 401 1362 368 1356 q 472 1356 435 1368 q 564 1183 491 1223 q 614 1169 587 1169 q 736 1279 696 1169 q 755 1356 749 1314 q 817 1363 790 1368 q 897 1342 854 1356 q 614 1109 827 1109 z "},"":{"ha":925,"x_min":102,"x_max":881,"o":"m 264 -40 q 170 68 170 1 q 235 161 170 121 q 286 182 257 174 q 129 350 161 234 q 150 536 102 447 q 338 680 205 640 q 483 700 404 700 q 628 675 562 700 q 765 705 717 677 q 791 720 779 712 q 845 741 822 741 q 881 708 881 741 q 836 653 881 675 q 709 630 791 631 q 797 446 800 557 q 699 236 793 318 q 455 152 604 152 q 296 126 337 152 q 284 110 284 119 q 508 43 284 58 q 837 -74 781 24 q 855 -149 855 -106 q 828 -232 855 -192 q 750 -300 801 -271 q 463 -359 644 -359 q 186 -307 280 -359 q 105 -190 105 -262 q 194 -69 105 -119 q 264 -40 224 -52 m 329 281 q 343 264 329 281 q 398 230 357 248 q 479 212 438 212 q 548 221 519 212 q 597 250 576 231 q 643 363 641 290 q 628 487 646 436 q 580 571 610 537 q 434 637 520 637 q 319 591 366 637 q 271 477 273 544 q 284 362 269 411 q 329 281 300 314 m 518 -274 q 772 -193 772 -274 q 602 -96 772 -131 q 475 -79 537 -83 q 360 -67 395 -74 q 254 -137 279 -90 q 246 -171 246 -152 q 261 -210 246 -190 q 309 -243 277 -229 q 518 -274 379 -274 m 461 829 q 218 964 294 829 q 178 1062 194 1008 q 249 1082 215 1076 q 319 1076 282 1088 q 411 902 338 943 q 461 889 435 889 q 584 999 543 889 q 603 1076 597 1034 q 664 1083 637 1088 q 745 1062 701 1076 q 461 829 675 829 z "},"":{"ha":1158,"x_min":80,"x_max":1148,"o":"m 1126 507 l 1078 512 q 1039 393 1040 512 q 1039 339 1039 363 l 1039 135 l 982 104 q 931 73 955 90 q 873 39 908 56 q 796 9 838 21 q 595 -16 712 -16 q 384 25 479 -16 q 221 134 288 65 q 80 494 80 279 q 231 898 80 738 q 472 1039 328 1000 q 613 1059 544 1059 q 825 1021 732 1059 q 864 1010 853 1010 q 878 1010 874 1010 q 887 1015 882 1011 q 914 1038 895 1019 l 934 1059 q 962 1076 951 1076 q 979 1051 979 1076 q 981 1004 979 1025 q 989 960 984 982 q 1007 880 998 910 q 1023 801 1023 829 q 1008 773 1023 773 q 986 788 995 773 q 836 932 938 878 q 632 984 736 984 q 456 956 528 984 q 332 878 383 928 q 225 603 225 772 q 378 205 225 360 q 591 79 469 113 q 700 62 651 62 q 782 71 749 62 q 840 96 815 79 q 892 199 892 134 l 892 339 q 882 449 892 423 q 865 488 873 475 q 813 512 852 512 l 763 505 q 746 511 752 505 q 741 527 741 517 q 753 547 741 536 q 788 557 766 557 q 822 556 810 557 q 845 555 833 556 q 865 553 856 555 l 882 552 q 950 547 914 547 q 1031 552 1000 547 q 1092 557 1061 557 q 1136 547 1123 557 q 1148 526 1148 536 q 1126 507 1148 507 m 612 1158 q 564 1168 585 1158 q 530 1194 543 1179 q 503 1256 503 1225 q 511 1307 503 1286 q 534 1343 519 1327 q 616 1377 567 1377 q 699 1339 668 1377 q 725 1262 725 1305 q 694 1193 725 1224 q 612 1158 661 1158 z "},"":{"ha":925,"x_min":102,"x_max":881,"o":"m 264 -40 q 170 68 170 1 q 235 161 170 121 q 286 182 257 174 q 129 350 161 234 q 150 536 102 447 q 338 680 205 640 q 483 700 404 700 q 628 675 562 700 q 765 705 717 677 q 791 720 779 712 q 845 741 822 741 q 881 708 881 741 q 836 653 881 675 q 709 630 791 631 q 797 446 800 557 q 699 236 793 318 q 455 152 604 152 q 296 126 337 152 q 284 110 284 119 q 508 43 284 58 q 837 -74 781 24 q 855 -149 855 -106 q 828 -232 855 -192 q 750 -300 801 -271 q 463 -359 644 -359 q 186 -307 280 -359 q 105 -190 105 -262 q 194 -69 105 -119 q 264 -40 224 -52 m 329 281 q 343 264 329 281 q 398 230 357 248 q 479 212 438 212 q 548 221 519 212 q 597 250 576 231 q 643 363 641 290 q 628 487 646 436 q 580 571 610 537 q 434 637 520 637 q 319 591 366 637 q 271 477 273 544 q 284 362 269 411 q 329 281 300 314 m 518 -274 q 772 -193 772 -274 q 602 -96 772 -131 q 475 -79 537 -83 q 360 -67 395 -74 q 254 -137 279 -90 q 246 -171 246 -152 q 261 -210 246 -190 q 309 -243 277 -229 q 518 -274 379 -274 m 377 853 q 370 861 377 853 q 357 887 363 869 q 351 926 351 906 q 359 966 351 945 q 382 1002 367 986 q 464 1036 414 1036 q 546 998 515 1036 q 572 921 572 964 q 542 852 572 883 q 470 817 509 817 q 411 827 432 817 q 377 853 391 838 z "},"":{"ha":1158,"x_min":80,"x_max":1148,"o":"m 1126 507 l 1078 512 q 1039 393 1040 512 q 1039 339 1039 363 l 1039 135 l 982 104 q 931 73 955 90 q 873 39 908 56 q 796 9 838 21 q 595 -16 712 -16 q 384 25 479 -16 q 221 134 288 65 q 80 494 80 279 q 231 898 80 738 q 472 1039 328 1000 q 613 1059 544 1059 q 825 1021 732 1059 q 864 1010 853 1010 q 878 1010 874 1010 q 887 1015 882 1011 q 914 1038 895 1019 l 934 1059 q 962 1076 951 1076 q 979 1051 979 1076 q 981 1004 979 1025 q 989 960 984 982 q 1007 880 998 910 q 1023 801 1023 829 q 1008 773 1023 773 q 986 788 995 773 q 836 932 938 878 q 632 984 736 984 q 456 956 528 984 q 332 878 383 928 q 225 603 225 772 q 378 205 225 360 q 591 79 469 113 q 700 62 651 62 q 782 71 749 62 q 840 96 815 79 q 892 199 892 134 l 892 339 q 882 449 892 423 q 865 488 873 475 q 813 512 852 512 l 763 505 q 746 511 752 505 q 741 527 741 517 q 753 547 741 536 q 788 557 766 557 q 822 556 810 557 q 845 555 833 556 q 865 553 856 555 l 882 552 q 950 547 914 547 q 1031 552 1000 547 q 1092 557 1061 557 q 1136 547 1123 557 q 1148 526 1148 536 q 1126 507 1148 507 m 533 -212 q 497 -193 513 -208 q 481 -156 481 -178 q 488 -119 481 -134 q 507 -94 495 -104 q 577 -69 534 -69 q 649 -100 621 -69 q 676 -183 676 -130 q 662 -267 676 -236 q 624 -318 647 -298 q 518 -359 577 -359 q 497 -351 505 -359 q 490 -328 490 -342 q 517 -299 490 -314 q 554 -272 545 -284 q 563 -247 563 -260 q 533 -212 563 -218 z "},"":{"ha":925,"x_min":102,"x_max":881,"o":"m 264 -40 q 170 68 170 1 q 235 161 170 121 q 286 182 257 174 q 129 350 161 234 q 150 536 102 447 q 338 680 205 640 q 483 700 404 700 q 628 675 562 700 q 765 705 717 677 q 791 720 779 712 q 845 741 822 741 q 881 708 881 741 q 836 653 881 675 q 709 630 791 631 q 797 446 800 557 q 699 236 793 318 q 455 152 604 152 q 296 126 337 152 q 284 110 284 119 q 508 43 284 58 q 837 -74 781 24 q 855 -149 855 -106 q 828 -232 855 -192 q 750 -300 801 -271 q 463 -359 644 -359 q 186 -307 280 -359 q 105 -190 105 -262 q 194 -69 105 -119 q 264 -40 224 -52 m 329 281 q 343 264 329 281 q 398 230 357 248 q 479 212 438 212 q 548 221 519 212 q 597 250 576 231 q 643 363 641 290 q 628 487 646 436 q 580 571 610 537 q 434 637 520 637 q 319 591 366 637 q 271 477 273 544 q 284 362 269 411 q 329 281 300 314 m 518 -274 q 772 -193 772 -274 q 602 -96 772 -131 q 475 -79 537 -83 q 360 -67 395 -74 q 254 -137 279 -90 q 246 -171 246 -152 q 261 -210 246 -190 q 309 -243 277 -229 q 518 -274 379 -274 m 508 949 q 544 931 528 945 q 559 894 559 916 q 553 857 559 872 q 534 831 546 842 q 464 807 507 807 q 392 838 420 807 q 365 921 365 868 q 379 1005 365 974 q 417 1056 394 1036 q 523 1097 464 1097 q 544 1089 536 1097 q 551 1066 551 1080 q 524 1037 551 1052 q 487 1010 496 1022 q 478 985 478 998 q 508 949 478 956 z "},"":{"ha":1273,"x_min":61,"x_max":1211,"o":"m 478 50 q 500 31 500 50 q 488 10 500 20 q 448 0 475 0 q 384 3 409 0 q 347 7 358 6 q 324 9 336 8 q 281 10 301 10 q 205 7 228 10 q 73 10 98 -9 q 61 31 61 20 q 83 50 61 50 l 127 45 q 180 69 165 45 q 203 148 201 106 q 205 218 205 189 l 205 819 q 196 929 205 903 q 179 967 186 955 q 127 991 165 991 l 83 987 q 61 1005 61 987 q 74 1026 61 1016 q 113 1036 86 1036 q 178 1033 153 1036 q 214 1029 203 1030 q 237 1027 225 1028 q 281 1026 260 1026 q 356 1029 334 1026 q 438 1036 401 1036 q 488 1026 475 1036 q 500 1005 500 1016 q 478 987 500 987 l 435 991 q 382 967 396 991 q 358 888 361 930 q 356 819 356 847 l 356 682 q 368 656 356 663 q 431 644 389 644 l 842 644 q 916 682 916 644 l 916 819 q 907 929 916 903 q 890 967 897 955 q 838 991 876 991 l 794 987 q 772 1005 772 987 q 784 1026 772 1016 q 824 1036 797 1036 q 889 1033 863 1036 q 925 1029 914 1030 q 948 1027 936 1028 q 991 1026 971 1026 q 1067 1029 1044 1026 q 1149 1036 1112 1036 q 1199 1026 1186 1036 q 1211 1005 1211 1016 q 1189 987 1211 987 l 1145 991 q 1093 967 1107 991 q 1069 888 1072 930 q 1067 819 1067 847 l 1067 218 q 1076 107 1067 134 q 1093 69 1086 81 q 1145 45 1107 45 l 1189 50 q 1211 31 1211 50 q 1199 10 1211 20 q 1159 0 1186 0 q 1094 3 1120 0 q 1058 7 1069 6 q 1035 9 1047 8 q 991 10 1012 10 q 916 7 939 10 q 784 10 808 -9 q 772 31 772 20 q 794 50 772 50 l 838 45 q 890 69 876 45 q 914 148 911 106 q 916 218 916 189 l 916 530 q 898 562 916 549 q 842 576 880 576 l 431 576 q 374 562 391 576 q 356 530 356 549 l 356 218 q 366 107 356 134 q 382 69 375 81 q 435 45 396 45 l 478 50 m 458 1126 q 425 1112 437 1112 q 409 1118 413 1112 q 404 1129 404 1124 q 416 1156 404 1143 l 564 1324 q 616 1373 604 1369 q 637 1377 627 1377 q 708 1324 662 1377 l 857 1156 q 868 1129 868 1143 q 864 1118 868 1124 q 852 1112 860 1112 q 814 1126 836 1112 l 635 1241 l 458 1126 z "},"":{"ha":1039,"x_min":54,"x_max":988,"o":"m 149 0 q 84 31 84 0 q 106 50 84 50 l 140 45 q 193 80 180 45 q 214 236 214 135 l 214 787 q 182 960 214 921 q 98 993 159 987 q 62 1015 62 996 q 72 1030 62 1023 q 99 1036 81 1036 q 130 1035 116 1036 l 158 1032 q 224 1028 197 1028 q 290 1033 262 1028 q 329 1038 317 1038 q 348 1035 340 1038 q 359 1024 355 1033 q 366 954 366 1010 l 366 576 q 630 700 479 700 q 819 618 762 700 q 863 457 863 557 l 863 236 q 870 119 863 146 q 883 77 877 92 q 903 53 888 62 q 932 45 918 45 l 967 50 q 988 31 988 50 q 926 0 988 0 q 882 4 909 0 q 772 11 810 14 l 724 7 q 700 4 713 5 q 651 0 671 0 q 583 31 583 0 q 606 50 583 50 l 641 45 q 708 140 702 45 q 711 236 711 177 l 711 431 q 640 602 711 556 q 575 620 612 620 q 509 610 538 620 q 454 585 480 601 q 366 505 405 555 l 366 236 q 373 116 366 141 q 387 76 380 92 q 445 45 402 45 l 478 50 q 500 31 500 50 q 433 0 500 0 q 401 2 413 0 q 379 4 389 3 l 358 7 q 335 8 347 7 q 311 9 323 9 q 288 10 298 10 q 264 9 278 10 l 239 8 q 201 5 216 7 q 149 0 169 0 m 109 1126 q 75 1112 87 1112 q 59 1118 63 1112 q 54 1129 54 1124 q 66 1156 54 1143 l 214 1324 q 266 1373 254 1369 q 288 1377 277 1377 q 358 1324 312 1377 l 507 1156 q 518 1129 518 1143 q 514 1118 518 1124 q 503 1112 510 1112 q 464 1126 486 1112 l 286 1241 l 109 1126 z "}}}
